G04 #@! TF.GenerationSoftware,KiCad,Pcbnew,8.0.4*
G04 #@! TF.CreationDate,2024-09-09T15:01:44+02:00*
G04 #@! TF.ProjectId,dmx_to_pwm,646d785f-746f-45f7-9077-6d2e6b696361,rev?*
G04 #@! TF.SameCoordinates,Original*
G04 #@! TF.FileFunction,Legend,Top*
G04 #@! TF.FilePolarity,Positive*
%FSLAX46Y46*%
G04 Gerber Fmt 4.6, Leading zero omitted, Abs format (unit mm)*
G04 Created by KiCad (PCBNEW 8.0.4) date 2024-09-09 15:01:44*
%MOMM*%
%LPD*%
G01*
G04 APERTURE LIST*
G04 Aperture macros list*
%AMRoundRect*
0 Rectangle with rounded corners*
0 $1 Rounding radius*
0 $2 $3 $4 $5 $6 $7 $8 $9 X,Y pos of 4 corners*
0 Add a 4 corners polygon primitive as box body*
4,1,4,$2,$3,$4,$5,$6,$7,$8,$9,$2,$3,0*
0 Add four circle primitives for the rounded corners*
1,1,$1+$1,$2,$3*
1,1,$1+$1,$4,$5*
1,1,$1+$1,$6,$7*
1,1,$1+$1,$8,$9*
0 Add four rect primitives between the rounded corners*
20,1,$1+$1,$2,$3,$4,$5,0*
20,1,$1+$1,$4,$5,$6,$7,0*
20,1,$1+$1,$6,$7,$8,$9,0*
20,1,$1+$1,$8,$9,$2,$3,0*%
G04 Aperture macros list end*
%ADD10C,0.120000*%
%ADD11C,1.600000*%
%ADD12R,2.200000X2.200000*%
%ADD13O,2.200000X2.200000*%
%ADD14C,1.440000*%
%ADD15R,1.600000X1.600000*%
%ADD16O,3.200000X3.200000*%
%ADD17R,3.200000X3.200000*%
%ADD18C,2.400000*%
%ADD19O,2.400000X2.400000*%
%ADD20R,2.000000X1.905000*%
%ADD21O,2.000000X1.905000*%
%ADD22C,1.500000*%
%ADD23R,1.500000X1.500000*%
%ADD24C,3.200000*%
%ADD25R,1.600000X2.400000*%
%ADD26O,1.600000X2.400000*%
%ADD27O,1.800000X1.800000*%
%ADD28R,1.800000X1.800000*%
%ADD29R,1.700000X1.700000*%
%ADD30O,1.700000X1.700000*%
%ADD31O,2.400000X1.600000*%
%ADD32R,2.400000X1.600000*%
%ADD33RoundRect,0.250000X0.725000X-0.600000X0.725000X0.600000X-0.725000X0.600000X-0.725000X-0.600000X0*%
%ADD34O,1.950000X1.700000*%
%ADD35R,2.400000X2.400000*%
%ADD36O,1.600000X1.600000*%
G04 APERTURE END LIST*
D10*
X101230000Y-30695000D02*
X101230000Y-30630000D01*
X101230000Y-32870000D02*
X101230000Y-32805000D01*
X104470000Y-30630000D02*
X101230000Y-30630000D01*
X104470000Y-30695000D02*
X104470000Y-30630000D01*
X104470000Y-32870000D02*
X101230000Y-32870000D01*
X104470000Y-32870000D02*
X104470000Y-32805000D01*
X76050000Y-65710000D02*
X75985000Y-65710000D01*
X76050000Y-65710000D02*
X76050000Y-68950000D01*
X73875000Y-65710000D02*
X73810000Y-65710000D01*
X73810000Y-65710000D02*
X73810000Y-68950000D01*
X76050000Y-68950000D02*
X75985000Y-68950000D01*
X73875000Y-68950000D02*
X73810000Y-68950000D01*
X103050000Y-37030000D02*
X97610000Y-37030000D01*
X103050000Y-36900000D02*
X103050000Y-37030000D01*
X103050000Y-34220000D02*
X103050000Y-34090000D01*
X103050000Y-34090000D02*
X97610000Y-34090000D01*
X102270000Y-37030000D02*
X102270000Y-34090000D01*
X102150000Y-37030000D02*
X102150000Y-34090000D01*
X102030000Y-37030000D02*
X102030000Y-34090000D01*
X97610000Y-37030000D02*
X97610000Y-36900000D01*
X97610000Y-34090000D02*
X97610000Y-34220000D01*
X83895000Y-23565000D02*
X81465000Y-23565000D01*
X83895000Y-23565000D02*
X83895000Y-25084000D01*
X82680000Y-23565000D02*
X82680000Y-24324000D01*
X81465000Y-23565000D02*
X81465000Y-25084000D01*
X83895000Y-25084000D02*
X81465000Y-25084000D01*
X86360000Y-25085000D02*
X81290000Y-25085000D01*
X86360000Y-25085000D02*
X86360000Y-34855000D01*
X81290000Y-25085000D02*
X81290000Y-34855000D01*
X86360000Y-34855000D02*
X81290000Y-34855000D01*
X85130000Y-165040000D02*
G75*
G02*
X77390000Y-165040000I-3870000J0D01*
G01*
X77390000Y-165040000D02*
G75*
G02*
X85130000Y-165040000I3870000J0D01*
G01*
X77117789Y-162865000D02*
X77867789Y-162865000D01*
X77492789Y-162490000D02*
X77492789Y-163240000D01*
X81260000Y-161210000D02*
X81260000Y-168870000D01*
X81300000Y-161210000D02*
X81300000Y-168870000D01*
X81340000Y-161210000D02*
X81340000Y-168870000D01*
X81380000Y-161211000D02*
X81380000Y-168869000D01*
X81420000Y-161213000D02*
X81420000Y-168867000D01*
X81460000Y-161215000D02*
X81460000Y-168865000D01*
X81500000Y-161217000D02*
X81500000Y-164000000D01*
X81500000Y-166080000D02*
X81500000Y-168863000D01*
X81540000Y-161220000D02*
X81540000Y-164000000D01*
X81540000Y-166080000D02*
X81540000Y-168860000D01*
X81580000Y-161223000D02*
X81580000Y-164000000D01*
X81580000Y-166080000D02*
X81580000Y-168857000D01*
X81620000Y-161226000D02*
X81620000Y-164000000D01*
X81620000Y-166080000D02*
X81620000Y-168854000D01*
X81660000Y-161230000D02*
X81660000Y-164000000D01*
X81660000Y-166080000D02*
X81660000Y-168850000D01*
X81700000Y-161235000D02*
X81700000Y-164000000D01*
X81700000Y-166080000D02*
X81700000Y-168845000D01*
X81740000Y-161239000D02*
X81740000Y-164000000D01*
X81740000Y-166080000D02*
X81740000Y-168841000D01*
X81780000Y-161245000D02*
X81780000Y-164000000D01*
X81780000Y-166080000D02*
X81780000Y-168835000D01*
X81820000Y-161250000D02*
X81820000Y-164000000D01*
X81820000Y-166080000D02*
X81820000Y-168830000D01*
X81860000Y-161256000D02*
X81860000Y-164000000D01*
X81860000Y-166080000D02*
X81860000Y-168824000D01*
X81900000Y-161263000D02*
X81900000Y-164000000D01*
X81900000Y-166080000D02*
X81900000Y-168817000D01*
X81940000Y-161270000D02*
X81940000Y-164000000D01*
X81940000Y-166080000D02*
X81940000Y-168810000D01*
X81981000Y-161277000D02*
X81981000Y-164000000D01*
X81981000Y-166080000D02*
X81981000Y-168803000D01*
X82021000Y-161285000D02*
X82021000Y-164000000D01*
X82021000Y-166080000D02*
X82021000Y-168795000D01*
X82061000Y-161293000D02*
X82061000Y-164000000D01*
X82061000Y-166080000D02*
X82061000Y-168787000D01*
X82101000Y-161302000D02*
X82101000Y-164000000D01*
X82101000Y-166080000D02*
X82101000Y-168778000D01*
X82141000Y-161311000D02*
X82141000Y-164000000D01*
X82141000Y-166080000D02*
X82141000Y-168769000D01*
X82181000Y-161320000D02*
X82181000Y-164000000D01*
X82181000Y-166080000D02*
X82181000Y-168760000D01*
X82221000Y-161330000D02*
X82221000Y-164000000D01*
X82221000Y-166080000D02*
X82221000Y-168750000D01*
X82261000Y-161341000D02*
X82261000Y-164000000D01*
X82261000Y-166080000D02*
X82261000Y-168739000D01*
X82301000Y-161352000D02*
X82301000Y-164000000D01*
X82301000Y-166080000D02*
X82301000Y-168728000D01*
X82341000Y-161363000D02*
X82341000Y-164000000D01*
X82341000Y-166080000D02*
X82341000Y-168717000D01*
X82381000Y-161375000D02*
X82381000Y-164000000D01*
X82381000Y-166080000D02*
X82381000Y-168705000D01*
X82421000Y-161387000D02*
X82421000Y-164000000D01*
X82421000Y-166080000D02*
X82421000Y-168693000D01*
X82461000Y-161400000D02*
X82461000Y-164000000D01*
X82461000Y-166080000D02*
X82461000Y-168680000D01*
X82501000Y-161414000D02*
X82501000Y-164000000D01*
X82501000Y-166080000D02*
X82501000Y-168666000D01*
X82541000Y-161427000D02*
X82541000Y-164000000D01*
X82541000Y-166080000D02*
X82541000Y-168653000D01*
X82581000Y-161442000D02*
X82581000Y-164000000D01*
X82581000Y-166080000D02*
X82581000Y-168638000D01*
X82621000Y-161456000D02*
X82621000Y-164000000D01*
X82621000Y-166080000D02*
X82621000Y-168624000D01*
X82661000Y-161472000D02*
X82661000Y-164000000D01*
X82661000Y-166080000D02*
X82661000Y-168608000D01*
X82701000Y-161487000D02*
X82701000Y-164000000D01*
X82701000Y-166080000D02*
X82701000Y-168593000D01*
X82741000Y-161504000D02*
X82741000Y-164000000D01*
X82741000Y-166080000D02*
X82741000Y-168576000D01*
X82781000Y-161520000D02*
X82781000Y-164000000D01*
X82781000Y-166080000D02*
X82781000Y-168560000D01*
X82821000Y-161538000D02*
X82821000Y-164000000D01*
X82821000Y-166080000D02*
X82821000Y-168542000D01*
X82861000Y-161556000D02*
X82861000Y-164000000D01*
X82861000Y-166080000D02*
X82861000Y-168524000D01*
X82901000Y-161574000D02*
X82901000Y-164000000D01*
X82901000Y-166080000D02*
X82901000Y-168506000D01*
X82941000Y-161593000D02*
X82941000Y-164000000D01*
X82941000Y-166080000D02*
X82941000Y-168487000D01*
X82981000Y-161613000D02*
X82981000Y-164000000D01*
X82981000Y-166080000D02*
X82981000Y-168467000D01*
X83021000Y-161633000D02*
X83021000Y-164000000D01*
X83021000Y-166080000D02*
X83021000Y-168447000D01*
X83061000Y-161654000D02*
X83061000Y-164000000D01*
X83061000Y-166080000D02*
X83061000Y-168426000D01*
X83101000Y-161675000D02*
X83101000Y-164000000D01*
X83101000Y-166080000D02*
X83101000Y-168405000D01*
X83141000Y-161697000D02*
X83141000Y-164000000D01*
X83141000Y-166080000D02*
X83141000Y-168383000D01*
X83181000Y-161719000D02*
X83181000Y-164000000D01*
X83181000Y-166080000D02*
X83181000Y-168361000D01*
X83221000Y-161743000D02*
X83221000Y-164000000D01*
X83221000Y-166080000D02*
X83221000Y-168337000D01*
X83261000Y-161766000D02*
X83261000Y-164000000D01*
X83261000Y-166080000D02*
X83261000Y-168314000D01*
X83301000Y-161791000D02*
X83301000Y-164000000D01*
X83301000Y-166080000D02*
X83301000Y-168289000D01*
X83341000Y-161816000D02*
X83341000Y-164000000D01*
X83341000Y-166080000D02*
X83341000Y-168264000D01*
X83381000Y-161842000D02*
X83381000Y-164000000D01*
X83381000Y-166080000D02*
X83381000Y-168238000D01*
X83421000Y-161868000D02*
X83421000Y-164000000D01*
X83421000Y-166080000D02*
X83421000Y-168212000D01*
X83461000Y-161896000D02*
X83461000Y-164000000D01*
X83461000Y-166080000D02*
X83461000Y-168184000D01*
X83501000Y-161924000D02*
X83501000Y-164000000D01*
X83501000Y-166080000D02*
X83501000Y-168156000D01*
X83541000Y-161952000D02*
X83541000Y-164000000D01*
X83541000Y-166080000D02*
X83541000Y-168128000D01*
X83581000Y-161982000D02*
X83581000Y-168098000D01*
X83621000Y-162012000D02*
X83621000Y-168068000D01*
X83661000Y-162044000D02*
X83661000Y-168036000D01*
X83701000Y-162076000D02*
X83701000Y-168004000D01*
X83741000Y-162109000D02*
X83741000Y-167971000D01*
X83781000Y-162142000D02*
X83781000Y-167938000D01*
X83821000Y-162177000D02*
X83821000Y-167903000D01*
X83861000Y-162213000D02*
X83861000Y-167867000D01*
X83901000Y-162250000D02*
X83901000Y-167830000D01*
X83941000Y-162288000D02*
X83941000Y-167792000D01*
X83981000Y-162327000D02*
X83981000Y-167753000D01*
X84021000Y-162367000D02*
X84021000Y-167713000D01*
X84061000Y-162408000D02*
X84061000Y-167672000D01*
X84101000Y-162451000D02*
X84101000Y-167629000D01*
X84141000Y-162494000D02*
X84141000Y-167586000D01*
X84181000Y-162540000D02*
X84181000Y-167540000D01*
X84221000Y-162586000D02*
X84221000Y-167494000D01*
X84261000Y-162635000D02*
X84261000Y-167445000D01*
X84301000Y-162685000D02*
X84301000Y-167395000D01*
X84341000Y-162736000D02*
X84341000Y-167344000D01*
X84381000Y-162790000D02*
X84381000Y-167290000D01*
X84421000Y-162845000D02*
X84421000Y-167235000D01*
X84461000Y-162903000D02*
X84461000Y-167177000D01*
X84501000Y-162963000D02*
X84501000Y-167117000D01*
X84541000Y-163026000D02*
X84541000Y-167054000D01*
X84581000Y-163091000D02*
X84581000Y-166989000D01*
X84621000Y-163159000D02*
X84621000Y-166921000D01*
X84661000Y-163231000D02*
X84661000Y-166849000D01*
X84701000Y-163307000D02*
X84701000Y-166773000D01*
X84741000Y-163386000D02*
X84741000Y-166694000D01*
X84781000Y-163471000D02*
X84781000Y-166609000D01*
X84821000Y-163562000D02*
X84821000Y-166518000D01*
X84861000Y-163659000D02*
X84861000Y-166421000D01*
X84901000Y-163765000D02*
X84901000Y-166315000D01*
X84941000Y-163882000D02*
X84941000Y-166198000D01*
X84981000Y-164012000D02*
X84981000Y-166068000D01*
X85021000Y-164163000D02*
X85021000Y-165917000D01*
X85061000Y-164347000D02*
X85061000Y-165733000D01*
X85101000Y-164599000D02*
X85101000Y-165481000D01*
X81130000Y-65710000D02*
X81065000Y-65710000D01*
X81130000Y-65710000D02*
X81130000Y-68950000D01*
X78955000Y-65710000D02*
X78890000Y-65710000D01*
X78890000Y-65710000D02*
X78890000Y-68950000D01*
X81130000Y-68950000D02*
X81065000Y-68950000D01*
X78955000Y-68950000D02*
X78890000Y-68950000D01*
X77545000Y-23565000D02*
X75115000Y-23565000D01*
X77545000Y-23565000D02*
X77545000Y-25084000D01*
X76330000Y-23565000D02*
X76330000Y-24324000D01*
X75115000Y-23565000D02*
X75115000Y-25084000D01*
X77545000Y-25084000D02*
X75115000Y-25084000D01*
X80010000Y-25085000D02*
X74940000Y-25085000D01*
X80010000Y-25085000D02*
X80010000Y-34855000D01*
X74940000Y-25085000D02*
X74940000Y-34855000D01*
X80010000Y-34855000D02*
X74940000Y-34855000D01*
X83250000Y-142240000D02*
X82340000Y-142240000D01*
X82340000Y-144960000D02*
X82340000Y-139520000D01*
X82340000Y-139520000D02*
X72600000Y-139520000D01*
X74265000Y-139520000D02*
X74265000Y-144960000D01*
X74145000Y-139520000D02*
X74145000Y-144960000D01*
X74025000Y-139520000D02*
X74025000Y-144960000D01*
X72600000Y-144960000D02*
X82340000Y-144960000D01*
X72600000Y-139520000D02*
X72600000Y-144960000D01*
X71690000Y-142240000D02*
X72600000Y-142240000D01*
X73040000Y-39380000D02*
X73040000Y-49520000D01*
X72560000Y-39380000D02*
X73040000Y-39380000D01*
X69680000Y-39380000D02*
X69200000Y-39380000D01*
X69200000Y-39380000D02*
X69200000Y-49520000D01*
X73040000Y-49520000D02*
X72560000Y-49520000D01*
X69200000Y-49520000D02*
X69680000Y-49520000D01*
X92090000Y-39380000D02*
X92090000Y-49520000D01*
X91610000Y-39380000D02*
X92090000Y-39380000D01*
X88730000Y-39380000D02*
X88250000Y-39380000D01*
X88250000Y-39380000D02*
X88250000Y-49520000D01*
X92090000Y-49520000D02*
X91610000Y-49520000D01*
X88250000Y-49520000D02*
X88730000Y-49520000D01*
X72390000Y-96350000D02*
X72390000Y-100100000D01*
X74760000Y-93980000D02*
G75*
G02*
X70020000Y-93980000I-2370000J0D01*
G01*
X70020000Y-93980000D02*
G75*
G02*
X74760000Y-93980000I2370000J0D01*
G01*
X75470000Y-63540000D02*
X80111000Y-63540000D01*
X75470000Y-63540000D02*
X75470000Y-53300000D01*
X76980000Y-63540000D02*
X76980000Y-53300000D01*
X80111000Y-63540000D02*
X80111000Y-53300000D01*
X75470000Y-60270000D02*
X76980000Y-60270000D01*
X75470000Y-56569000D02*
X76980000Y-56569000D01*
X75470000Y-53300000D02*
X80111000Y-53300000D01*
X84490000Y-96350000D02*
X84490000Y-100100000D01*
X86860000Y-93980000D02*
G75*
G02*
X82120000Y-93980000I-2370000J0D01*
G01*
X82120000Y-93980000D02*
G75*
G02*
X86860000Y-93980000I2370000J0D01*
G01*
X102700000Y-130810000D02*
X106450000Y-130810000D01*
X102700000Y-130810000D02*
G75*
G02*
X97960000Y-130810000I-2370000J0D01*
G01*
X97960000Y-130810000D02*
G75*
G02*
X102700000Y-130810000I2370000J0D01*
G01*
X107950000Y-175430000D02*
X107950000Y-171680000D01*
X110320000Y-177800000D02*
G75*
G02*
X105580000Y-177800000I-2370000J0D01*
G01*
X105580000Y-177800000D02*
G75*
G02*
X110320000Y-177800000I2370000J0D01*
G01*
X103172500Y-170880000D02*
X103172500Y-188840000D01*
X103172500Y-170880000D02*
X87652500Y-170880000D01*
X87652500Y-188840000D02*
X103172500Y-188840000D01*
X87652500Y-170880000D02*
X87652500Y-188840000D01*
X87467500Y-174760000D02*
X86967500Y-174260000D01*
X86967500Y-175260000D02*
X87467500Y-174760000D01*
X86967500Y-174260000D02*
X86967500Y-175260000D01*
X103050000Y-44650000D02*
X97610000Y-44650000D01*
X103050000Y-44520000D02*
X103050000Y-44650000D01*
X103050000Y-41840000D02*
X103050000Y-41710000D01*
X103050000Y-41710000D02*
X97610000Y-41710000D01*
X102270000Y-44650000D02*
X102270000Y-41710000D01*
X102150000Y-44650000D02*
X102150000Y-41710000D01*
X102030000Y-44650000D02*
X102030000Y-41710000D01*
X97610000Y-44650000D02*
X97610000Y-44520000D01*
X97610000Y-41710000D02*
X97610000Y-41840000D01*
X104470000Y-40490000D02*
X104470000Y-40425000D01*
X104470000Y-40490000D02*
X101230000Y-40490000D01*
X104470000Y-38315000D02*
X104470000Y-38250000D01*
X104470000Y-38250000D02*
X101230000Y-38250000D01*
X101230000Y-40490000D02*
X101230000Y-40425000D01*
X101230000Y-38315000D02*
X101230000Y-38250000D01*
X75550000Y-49520000D02*
X76030000Y-49520000D01*
X79390000Y-49520000D02*
X78910000Y-49520000D01*
X75550000Y-39380000D02*
X75550000Y-49520000D01*
X76030000Y-39380000D02*
X75550000Y-39380000D01*
X78910000Y-39380000D02*
X79390000Y-39380000D01*
X79390000Y-39380000D02*
X79390000Y-49520000D01*
X76140000Y-133060000D02*
X96580000Y-133060000D01*
X96580000Y-133060000D02*
X96580000Y-128560000D01*
X76140000Y-131810000D02*
X76140000Y-133060000D01*
X76140000Y-128560000D02*
X76140000Y-129810000D01*
X96580000Y-128560000D02*
X76140000Y-128560000D01*
X76140000Y-129810000D02*
G75*
G02*
X76140000Y-131810000I0J-1000000D01*
G01*
X85740000Y-39380000D02*
X85740000Y-49520000D01*
X85260000Y-39380000D02*
X85740000Y-39380000D01*
X82380000Y-39380000D02*
X81900000Y-39380000D01*
X81900000Y-39380000D02*
X81900000Y-49520000D01*
X85740000Y-49520000D02*
X85260000Y-49520000D01*
X81900000Y-49520000D02*
X82380000Y-49520000D01*
X103050000Y-52270000D02*
X97610000Y-52270000D01*
X103050000Y-52140000D02*
X103050000Y-52270000D01*
X103050000Y-49460000D02*
X103050000Y-49330000D01*
X103050000Y-49330000D02*
X97610000Y-49330000D01*
X102270000Y-52270000D02*
X102270000Y-49330000D01*
X102150000Y-52270000D02*
X102150000Y-49330000D01*
X102030000Y-52270000D02*
X102030000Y-49330000D01*
X97610000Y-52270000D02*
X97610000Y-52140000D01*
X97610000Y-49330000D02*
X97610000Y-49460000D01*
X73660000Y-34855000D02*
X68590000Y-34855000D01*
X68590000Y-25085000D02*
X68590000Y-34855000D01*
X73660000Y-25085000D02*
X73660000Y-34855000D01*
X73660000Y-25085000D02*
X68590000Y-25085000D01*
X71195000Y-25084000D02*
X68765000Y-25084000D01*
X68765000Y-23565000D02*
X68765000Y-25084000D01*
X69980000Y-23565000D02*
X69980000Y-24324000D01*
X71195000Y-23565000D02*
X71195000Y-25084000D01*
X71195000Y-23565000D02*
X68765000Y-23565000D01*
X67770000Y-148120000D02*
X72411000Y-148120000D01*
X67770000Y-151390000D02*
X69279000Y-151390000D01*
X67770000Y-155090000D02*
X69279000Y-155090000D01*
X67770000Y-158361000D02*
X67770000Y-148120000D01*
X67770000Y-158361000D02*
X72411000Y-158361000D01*
X69279000Y-158361000D02*
X69279000Y-148120000D01*
X72411000Y-149840000D02*
X75025000Y-149840000D01*
X72411000Y-150475000D02*
X72411000Y-148120000D01*
X72411000Y-153240000D02*
X75025000Y-153240000D01*
X72411000Y-153875000D02*
X72411000Y-152605000D01*
X72411000Y-156640000D02*
X75041000Y-156640000D01*
X72411000Y-158361000D02*
X72411000Y-156005000D01*
X97610000Y-26470000D02*
X97610000Y-26600000D01*
X97610000Y-29410000D02*
X97610000Y-29280000D01*
X102030000Y-29410000D02*
X102030000Y-26470000D01*
X102150000Y-29410000D02*
X102150000Y-26470000D01*
X102270000Y-29410000D02*
X102270000Y-26470000D01*
X103050000Y-26470000D02*
X97610000Y-26470000D01*
X103050000Y-26600000D02*
X103050000Y-26470000D01*
X103050000Y-29280000D02*
X103050000Y-29410000D01*
X103050000Y-29410000D02*
X97610000Y-29410000D01*
X77410000Y-76260000D02*
X77410000Y-74930000D01*
X78740000Y-76260000D02*
X77410000Y-76260000D01*
X80010000Y-76260000D02*
X87690000Y-76260000D01*
X80010000Y-76260000D02*
X80010000Y-73660000D01*
X87690000Y-76260000D02*
X87690000Y-71060000D01*
X77410000Y-73660000D02*
X77410000Y-71060000D01*
X80010000Y-73660000D02*
X77410000Y-73660000D01*
X77410000Y-71060000D02*
X87690000Y-71060000D01*
X103140000Y-166430000D02*
G75*
G02*
X105140000Y-166430000I1000000J0D01*
G01*
X98890000Y-156090000D02*
X98890000Y-166490000D01*
X98890000Y-166490000D02*
X109390000Y-166490000D01*
X101890000Y-156150000D02*
X101890000Y-166430000D01*
X101890000Y-166430000D02*
X103140000Y-166430000D01*
X105140000Y-166430000D02*
X106390000Y-166430000D01*
X106390000Y-156150000D02*
X101890000Y-156150000D01*
X106390000Y-166430000D02*
X106390000Y-156150000D01*
X109390000Y-156090000D02*
X98890000Y-156090000D01*
X109390000Y-166490000D02*
X109390000Y-156090000D01*
X107510000Y-24220000D02*
X107510000Y-39440000D01*
X107510000Y-39440000D02*
X111530000Y-39440000D01*
X108010000Y-24720000D02*
X109220000Y-24720000D01*
X108010000Y-38940000D02*
X108010000Y-24720000D01*
X109220000Y-24720000D02*
X109220000Y-24220000D01*
X109220000Y-38940000D02*
X108010000Y-38940000D01*
X109220000Y-39440000D02*
X109220000Y-38940000D01*
X109330000Y-39740000D02*
X111830000Y-39740000D01*
X110030000Y-24220000D02*
X110030000Y-25220000D01*
X110030000Y-25220000D02*
X111530000Y-25220000D01*
X110030000Y-38440000D02*
X111530000Y-38440000D01*
X110030000Y-39440000D02*
X110030000Y-38440000D01*
X111530000Y-24220000D02*
X107510000Y-24220000D01*
X111530000Y-39440000D02*
X111530000Y-24220000D01*
X111830000Y-39740000D02*
X111830000Y-37240000D01*
X78440000Y-96350000D02*
X78440000Y-100100000D01*
X80810000Y-93980000D02*
G75*
G02*
X76070000Y-93980000I-2370000J0D01*
G01*
X76070000Y-93980000D02*
G75*
G02*
X80810000Y-93980000I2370000J0D01*
G01*
X102540000Y-124675000D02*
X102540000Y-124610000D01*
X102540000Y-126850000D02*
X102540000Y-126785000D01*
X105780000Y-124610000D02*
X102540000Y-124610000D01*
X105780000Y-124675000D02*
X105780000Y-124610000D01*
X105780000Y-126850000D02*
X102540000Y-126850000D01*
X105780000Y-126850000D02*
X105780000Y-126785000D01*
X83090000Y-63540000D02*
X87731000Y-63540000D01*
X83090000Y-63540000D02*
X83090000Y-53300000D01*
X84600000Y-63540000D02*
X84600000Y-53300000D01*
X87731000Y-63540000D02*
X87731000Y-53300000D01*
X83090000Y-60270000D02*
X84600000Y-60270000D01*
X83090000Y-56569000D02*
X84600000Y-56569000D01*
X83090000Y-53300000D02*
X87731000Y-53300000D01*
X69782500Y-174260000D02*
X69782500Y-175260000D01*
X69782500Y-175260000D02*
X70282500Y-174760000D01*
X70282500Y-174760000D02*
X69782500Y-174260000D01*
X70467500Y-170880000D02*
X70467500Y-188840000D01*
X70467500Y-188840000D02*
X85987500Y-188840000D01*
X85987500Y-170880000D02*
X70467500Y-170880000D01*
X85987500Y-170880000D02*
X85987500Y-188840000D01*
X75991395Y-165040000D02*
G75*
G02*
X68251395Y-165040000I-3870000J0D01*
G01*
X68251395Y-165040000D02*
G75*
G02*
X75991395Y-165040000I3870000J0D01*
G01*
X76263606Y-167215000D02*
X75513606Y-167215000D01*
X75888606Y-167590000D02*
X75888606Y-166840000D01*
X72121395Y-168870000D02*
X72121395Y-161210000D01*
X72081395Y-168870000D02*
X72081395Y-161210000D01*
X72041395Y-168870000D02*
X72041395Y-161210000D01*
X72001395Y-168869000D02*
X72001395Y-161211000D01*
X71961395Y-168867000D02*
X71961395Y-161213000D01*
X71921395Y-168865000D02*
X71921395Y-161215000D01*
X71881395Y-168863000D02*
X71881395Y-166080000D01*
X71881395Y-164000000D02*
X71881395Y-161217000D01*
X71841395Y-168860000D02*
X71841395Y-166080000D01*
X71841395Y-164000000D02*
X71841395Y-161220000D01*
X71801395Y-168857000D02*
X71801395Y-166080000D01*
X71801395Y-164000000D02*
X71801395Y-161223000D01*
X71761395Y-168854000D02*
X71761395Y-166080000D01*
X71761395Y-164000000D02*
X71761395Y-161226000D01*
X71721395Y-168850000D02*
X71721395Y-166080000D01*
X71721395Y-164000000D02*
X71721395Y-161230000D01*
X71681395Y-168845000D02*
X71681395Y-166080000D01*
X71681395Y-164000000D02*
X71681395Y-161235000D01*
X71641395Y-168841000D02*
X71641395Y-166080000D01*
X71641395Y-164000000D02*
X71641395Y-161239000D01*
X71601395Y-168835000D02*
X71601395Y-166080000D01*
X71601395Y-164000000D02*
X71601395Y-161245000D01*
X71561395Y-168830000D02*
X71561395Y-166080000D01*
X71561395Y-164000000D02*
X71561395Y-161250000D01*
X71521395Y-168824000D02*
X71521395Y-166080000D01*
X71521395Y-164000000D02*
X71521395Y-161256000D01*
X71481395Y-168817000D02*
X71481395Y-166080000D01*
X71481395Y-164000000D02*
X71481395Y-161263000D01*
X71441395Y-168810000D02*
X71441395Y-166080000D01*
X71441395Y-164000000D02*
X71441395Y-161270000D01*
X71400395Y-168803000D02*
X71400395Y-166080000D01*
X71400395Y-164000000D02*
X71400395Y-161277000D01*
X71360395Y-168795000D02*
X71360395Y-166080000D01*
X71360395Y-164000000D02*
X71360395Y-161285000D01*
X71320395Y-168787000D02*
X71320395Y-166080000D01*
X71320395Y-164000000D02*
X71320395Y-161293000D01*
X71280395Y-168778000D02*
X71280395Y-166080000D01*
X71280395Y-164000000D02*
X71280395Y-161302000D01*
X71240395Y-168769000D02*
X71240395Y-166080000D01*
X71240395Y-164000000D02*
X71240395Y-161311000D01*
X71200395Y-168760000D02*
X71200395Y-166080000D01*
X71200395Y-164000000D02*
X71200395Y-161320000D01*
X71160395Y-168750000D02*
X71160395Y-166080000D01*
X71160395Y-164000000D02*
X71160395Y-161330000D01*
X71120395Y-168739000D02*
X71120395Y-166080000D01*
X71120395Y-164000000D02*
X71120395Y-161341000D01*
X71080395Y-168728000D02*
X71080395Y-166080000D01*
X71080395Y-164000000D02*
X71080395Y-161352000D01*
X71040395Y-168717000D02*
X71040395Y-166080000D01*
X71040395Y-164000000D02*
X71040395Y-161363000D01*
X71000395Y-168705000D02*
X71000395Y-166080000D01*
X71000395Y-164000000D02*
X71000395Y-161375000D01*
X70960395Y-168693000D02*
X70960395Y-166080000D01*
X70960395Y-164000000D02*
X70960395Y-161387000D01*
X70920395Y-168680000D02*
X70920395Y-166080000D01*
X70920395Y-164000000D02*
X70920395Y-161400000D01*
X70880395Y-168666000D02*
X70880395Y-166080000D01*
X70880395Y-164000000D02*
X70880395Y-161414000D01*
X70840395Y-168653000D02*
X70840395Y-166080000D01*
X70840395Y-164000000D02*
X70840395Y-161427000D01*
X70800395Y-168638000D02*
X70800395Y-166080000D01*
X70800395Y-164000000D02*
X70800395Y-161442000D01*
X70760395Y-168624000D02*
X70760395Y-166080000D01*
X70760395Y-164000000D02*
X70760395Y-161456000D01*
X70720395Y-168608000D02*
X70720395Y-166080000D01*
X70720395Y-164000000D02*
X70720395Y-161472000D01*
X70680395Y-168593000D02*
X70680395Y-166080000D01*
X70680395Y-164000000D02*
X70680395Y-161487000D01*
X70640395Y-168576000D02*
X70640395Y-166080000D01*
X70640395Y-164000000D02*
X70640395Y-161504000D01*
X70600395Y-168560000D02*
X70600395Y-166080000D01*
X70600395Y-164000000D02*
X70600395Y-161520000D01*
X70560395Y-168542000D02*
X70560395Y-166080000D01*
X70560395Y-164000000D02*
X70560395Y-161538000D01*
X70520395Y-168524000D02*
X70520395Y-166080000D01*
X70520395Y-164000000D02*
X70520395Y-161556000D01*
X70480395Y-168506000D02*
X70480395Y-166080000D01*
X70480395Y-164000000D02*
X70480395Y-161574000D01*
X70440395Y-168487000D02*
X70440395Y-166080000D01*
X70440395Y-164000000D02*
X70440395Y-161593000D01*
X70400395Y-168467000D02*
X70400395Y-166080000D01*
X70400395Y-164000000D02*
X70400395Y-161613000D01*
X70360395Y-168447000D02*
X70360395Y-166080000D01*
X70360395Y-164000000D02*
X70360395Y-161633000D01*
X70320395Y-168426000D02*
X70320395Y-166080000D01*
X70320395Y-164000000D02*
X70320395Y-161654000D01*
X70280395Y-168405000D02*
X70280395Y-166080000D01*
X70280395Y-164000000D02*
X70280395Y-161675000D01*
X70240395Y-168383000D02*
X70240395Y-166080000D01*
X70240395Y-164000000D02*
X70240395Y-161697000D01*
X70200395Y-168361000D02*
X70200395Y-166080000D01*
X70200395Y-164000000D02*
X70200395Y-161719000D01*
X70160395Y-168337000D02*
X70160395Y-166080000D01*
X70160395Y-164000000D02*
X70160395Y-161743000D01*
X70120395Y-168314000D02*
X70120395Y-166080000D01*
X70120395Y-164000000D02*
X70120395Y-161766000D01*
X70080395Y-168289000D02*
X70080395Y-166080000D01*
X70080395Y-164000000D02*
X70080395Y-161791000D01*
X70040395Y-168264000D02*
X70040395Y-166080000D01*
X70040395Y-164000000D02*
X70040395Y-161816000D01*
X70000395Y-168238000D02*
X70000395Y-166080000D01*
X70000395Y-164000000D02*
X70000395Y-161842000D01*
X69960395Y-168212000D02*
X69960395Y-166080000D01*
X69960395Y-164000000D02*
X69960395Y-161868000D01*
X69920395Y-168184000D02*
X69920395Y-166080000D01*
X69920395Y-164000000D02*
X69920395Y-161896000D01*
X69880395Y-168156000D02*
X69880395Y-166080000D01*
X69880395Y-164000000D02*
X69880395Y-161924000D01*
X69840395Y-168128000D02*
X69840395Y-166080000D01*
X69840395Y-164000000D02*
X69840395Y-161952000D01*
X69800395Y-168098000D02*
X69800395Y-161982000D01*
X69760395Y-168068000D02*
X69760395Y-162012000D01*
X69720395Y-168036000D02*
X69720395Y-162044000D01*
X69680395Y-168004000D02*
X69680395Y-162076000D01*
X69640395Y-167971000D02*
X69640395Y-162109000D01*
X69600395Y-167938000D02*
X69600395Y-162142000D01*
X69560395Y-167903000D02*
X69560395Y-162177000D01*
X69520395Y-167867000D02*
X69520395Y-162213000D01*
X69480395Y-167830000D02*
X69480395Y-162250000D01*
X69440395Y-167792000D02*
X69440395Y-162288000D01*
X69400395Y-167753000D02*
X69400395Y-162327000D01*
X69360395Y-167713000D02*
X69360395Y-162367000D01*
X69320395Y-167672000D02*
X69320395Y-162408000D01*
X69280395Y-167629000D02*
X69280395Y-162451000D01*
X69240395Y-167586000D02*
X69240395Y-162494000D01*
X69200395Y-167540000D02*
X69200395Y-162540000D01*
X69160395Y-167494000D02*
X69160395Y-162586000D01*
X69120395Y-167445000D02*
X69120395Y-162635000D01*
X69080395Y-167395000D02*
X69080395Y-162685000D01*
X69040395Y-167344000D02*
X69040395Y-162736000D01*
X69000395Y-167290000D02*
X69000395Y-162790000D01*
X68960395Y-167235000D02*
X68960395Y-162845000D01*
X68920395Y-167177000D02*
X68920395Y-162903000D01*
X68880395Y-167117000D02*
X68880395Y-162963000D01*
X68840395Y-167054000D02*
X68840395Y-163026000D01*
X68800395Y-166989000D02*
X68800395Y-163091000D01*
X68760395Y-166921000D02*
X68760395Y-163159000D01*
X68720395Y-166849000D02*
X68720395Y-163231000D01*
X68680395Y-166773000D02*
X68680395Y-163307000D01*
X68640395Y-166694000D02*
X68640395Y-163386000D01*
X68600395Y-166609000D02*
X68600395Y-163471000D01*
X68560395Y-166518000D02*
X68560395Y-163562000D01*
X68520395Y-166421000D02*
X68520395Y-163659000D01*
X68480395Y-166315000D02*
X68480395Y-163765000D01*
X68440395Y-166198000D02*
X68440395Y-163882000D01*
X68400395Y-166068000D02*
X68400395Y-164012000D01*
X68360395Y-165917000D02*
X68360395Y-164163000D01*
X68320395Y-165733000D02*
X68320395Y-164347000D01*
X68280395Y-165481000D02*
X68280395Y-164599000D01*
X91290000Y-65710000D02*
X91225000Y-65710000D01*
X91290000Y-65710000D02*
X91290000Y-68950000D01*
X89115000Y-65710000D02*
X89050000Y-65710000D01*
X89050000Y-65710000D02*
X89050000Y-68950000D01*
X91290000Y-68950000D02*
X91225000Y-68950000D01*
X89115000Y-68950000D02*
X89050000Y-68950000D01*
X104470000Y-48110000D02*
X104470000Y-48045000D01*
X104470000Y-48110000D02*
X101230000Y-48110000D01*
X104470000Y-45935000D02*
X104470000Y-45870000D01*
X104470000Y-45870000D02*
X101230000Y-45870000D01*
X101230000Y-48110000D02*
X101230000Y-48045000D01*
X101230000Y-45935000D02*
X101230000Y-45870000D01*
X67850000Y-63540000D02*
X72491000Y-63540000D01*
X67850000Y-63540000D02*
X67850000Y-53300000D01*
X69360000Y-63540000D02*
X69360000Y-53300000D01*
X72491000Y-63540000D02*
X72491000Y-53300000D01*
X67850000Y-60270000D02*
X69360000Y-60270000D01*
X67850000Y-56569000D02*
X69360000Y-56569000D01*
X67850000Y-53300000D02*
X72491000Y-53300000D01*
X101930000Y-169965000D02*
X101930000Y-170030000D01*
X101930000Y-167790000D02*
X101930000Y-167855000D01*
X98690000Y-170030000D02*
X101930000Y-170030000D01*
X98690000Y-169965000D02*
X98690000Y-170030000D01*
X98690000Y-167790000D02*
X101930000Y-167790000D01*
X98690000Y-167790000D02*
X98690000Y-167855000D01*
X90540000Y-96350000D02*
X90540000Y-100100000D01*
X92910000Y-93980000D02*
G75*
G02*
X88170000Y-93980000I-2370000J0D01*
G01*
X88170000Y-93980000D02*
G75*
G02*
X92910000Y-93980000I2370000J0D01*
G01*
X106390000Y-146110000D02*
X106390000Y-138370000D01*
X106390000Y-138370000D02*
X101890000Y-138370000D01*
X105140000Y-146110000D02*
X106390000Y-146110000D01*
X101890000Y-146110000D02*
X103140000Y-146110000D01*
X101890000Y-138370000D02*
X101890000Y-146110000D01*
X103140000Y-146110000D02*
G75*
G02*
X105140000Y-146110000I1000000J0D01*
G01*
X105580000Y-149860000D02*
X101830000Y-149860000D01*
X110320000Y-149860000D02*
G75*
G02*
X105580000Y-149860000I-2370000J0D01*
G01*
X105580000Y-149860000D02*
G75*
G02*
X110320000Y-149860000I2370000J0D01*
G01*
X92710000Y-34855000D02*
X87640000Y-34855000D01*
X87640000Y-25085000D02*
X87640000Y-34855000D01*
X92710000Y-25085000D02*
X92710000Y-34855000D01*
X92710000Y-25085000D02*
X87640000Y-25085000D01*
X90245000Y-25084000D02*
X87815000Y-25084000D01*
X87815000Y-23565000D02*
X87815000Y-25084000D01*
X89030000Y-23565000D02*
X89030000Y-24324000D01*
X90245000Y-23565000D02*
X90245000Y-25084000D01*
X90245000Y-23565000D02*
X87815000Y-23565000D01*
X86210000Y-65710000D02*
X86145000Y-65710000D01*
X86210000Y-65710000D02*
X86210000Y-68950000D01*
X84035000Y-65710000D02*
X83970000Y-65710000D01*
X83970000Y-65710000D02*
X83970000Y-68950000D01*
X86210000Y-68950000D02*
X86145000Y-68950000D01*
X84035000Y-68950000D02*
X83970000Y-68950000D01*
X95330000Y-154940000D02*
G75*
G02*
X82590000Y-154940000I-6370000J0D01*
G01*
X82590000Y-154940000D02*
G75*
G02*
X95330000Y-154940000I6370000J0D01*
G01*
X95321000Y-154623000D02*
X95321000Y-155257000D01*
X95281000Y-154183000D02*
X95281000Y-155697000D01*
X95241000Y-153912000D02*
X95241000Y-155968000D01*
X95201000Y-153699000D02*
X95201000Y-156181000D01*
X95161000Y-153518000D02*
X95161000Y-156362000D01*
X95121000Y-153357000D02*
X95121000Y-156523000D01*
X95081000Y-153212000D02*
X95081000Y-156668000D01*
X95041000Y-153079000D02*
X95041000Y-156801000D01*
X95001000Y-152956000D02*
X95001000Y-156924000D01*
X94961000Y-152840000D02*
X94961000Y-157040000D01*
X94921000Y-152731000D02*
X94921000Y-157149000D01*
X94881000Y-152628000D02*
X94881000Y-157252000D01*
X94841000Y-152530000D02*
X94841000Y-157350000D01*
X94801000Y-152436000D02*
X94801000Y-157444000D01*
X94761000Y-152346000D02*
X94761000Y-157534000D01*
X94721000Y-152259000D02*
X94721000Y-157621000D01*
X94681000Y-152176000D02*
X94681000Y-157704000D01*
X94641000Y-152096000D02*
X94641000Y-157784000D01*
X94601000Y-152019000D02*
X94601000Y-157861000D01*
X94561000Y-151944000D02*
X94561000Y-157936000D01*
X94521000Y-151871000D02*
X94521000Y-158009000D01*
X94481000Y-151800000D02*
X94481000Y-158080000D01*
X94441000Y-151732000D02*
X94441000Y-158148000D01*
X94401000Y-151665000D02*
X94401000Y-158215000D01*
X94361000Y-151601000D02*
X94361000Y-158279000D01*
X94321000Y-151538000D02*
X94321000Y-158342000D01*
X94281000Y-151476000D02*
X94281000Y-158404000D01*
X94241000Y-151416000D02*
X94241000Y-158464000D01*
X94201000Y-151357000D02*
X94201000Y-158523000D01*
X94161000Y-151300000D02*
X94161000Y-158580000D01*
X94121000Y-156380000D02*
X94121000Y-158636000D01*
X94121000Y-151244000D02*
X94121000Y-153500000D01*
X94081000Y-156380000D02*
X94081000Y-158690000D01*
X94081000Y-151190000D02*
X94081000Y-153500000D01*
X94041000Y-156380000D02*
X94041000Y-158744000D01*
X94041000Y-151136000D02*
X94041000Y-153500000D01*
X94001000Y-156380000D02*
X94001000Y-158796000D01*
X94001000Y-151084000D02*
X94001000Y-153500000D01*
X93961000Y-156380000D02*
X93961000Y-158847000D01*
X93961000Y-151033000D02*
X93961000Y-153500000D01*
X93921000Y-156380000D02*
X93921000Y-158897000D01*
X93921000Y-150983000D02*
X93921000Y-153500000D01*
X93881000Y-156380000D02*
X93881000Y-158947000D01*
X93881000Y-150933000D02*
X93881000Y-153500000D01*
X93841000Y-156380000D02*
X93841000Y-158995000D01*
X93841000Y-150885000D02*
X93841000Y-153500000D01*
X93801000Y-156380000D02*
X93801000Y-159042000D01*
X93801000Y-150838000D02*
X93801000Y-153500000D01*
X93761000Y-156380000D02*
X93761000Y-159088000D01*
X93761000Y-150792000D02*
X93761000Y-153500000D01*
X93721000Y-156380000D02*
X93721000Y-159134000D01*
X93721000Y-150746000D02*
X93721000Y-153500000D01*
X93681000Y-156380000D02*
X93681000Y-159178000D01*
X93681000Y-150702000D02*
X93681000Y-153500000D01*
X93641000Y-156380000D02*
X93641000Y-159222000D01*
X93641000Y-150658000D02*
X93641000Y-153500000D01*
X93601000Y-156380000D02*
X93601000Y-159265000D01*
X93601000Y-150615000D02*
X93601000Y-153500000D01*
X93561000Y-156380000D02*
X93561000Y-159307000D01*
X93561000Y-150573000D02*
X93561000Y-153500000D01*
X93521000Y-156380000D02*
X93521000Y-159348000D01*
X93521000Y-150532000D02*
X93521000Y-153500000D01*
X93481000Y-156380000D02*
X93481000Y-159389000D01*
X93481000Y-150491000D02*
X93481000Y-153500000D01*
X93441000Y-156380000D02*
X93441000Y-159429000D01*
X93441000Y-150451000D02*
X93441000Y-153500000D01*
X93401000Y-156380000D02*
X93401000Y-159468000D01*
X93401000Y-150412000D02*
X93401000Y-153500000D01*
X93361000Y-156380000D02*
X93361000Y-159507000D01*
X93361000Y-150373000D02*
X93361000Y-153500000D01*
X93321000Y-156380000D02*
X93321000Y-159545000D01*
X93321000Y-150335000D02*
X93321000Y-153500000D01*
X93281000Y-156380000D02*
X93281000Y-159582000D01*
X93281000Y-150298000D02*
X93281000Y-153500000D01*
X93241000Y-156380000D02*
X93241000Y-159618000D01*
X93241000Y-150262000D02*
X93241000Y-153500000D01*
X93201000Y-156380000D02*
X93201000Y-159654000D01*
X93201000Y-150226000D02*
X93201000Y-153500000D01*
X93161000Y-156380000D02*
X93161000Y-159690000D01*
X93161000Y-150190000D02*
X93161000Y-153500000D01*
X93121000Y-156380000D02*
X93121000Y-159725000D01*
X93121000Y-150155000D02*
X93121000Y-153500000D01*
X93081000Y-156380000D02*
X93081000Y-159759000D01*
X93081000Y-150121000D02*
X93081000Y-153500000D01*
X93041000Y-156380000D02*
X93041000Y-159792000D01*
X93041000Y-150088000D02*
X93041000Y-153500000D01*
X93001000Y-156380000D02*
X93001000Y-159825000D01*
X93001000Y-150055000D02*
X93001000Y-153500000D01*
X92961000Y-156380000D02*
X92961000Y-159858000D01*
X92961000Y-150022000D02*
X92961000Y-153500000D01*
X92921000Y-156380000D02*
X92921000Y-159890000D01*
X92921000Y-149990000D02*
X92921000Y-153500000D01*
X92881000Y-156380000D02*
X92881000Y-159922000D01*
X92881000Y-149958000D02*
X92881000Y-153500000D01*
X92841000Y-156380000D02*
X92841000Y-159952000D01*
X92841000Y-149928000D02*
X92841000Y-153500000D01*
X92801000Y-156380000D02*
X92801000Y-159983000D01*
X92801000Y-149897000D02*
X92801000Y-153500000D01*
X92761000Y-156380000D02*
X92761000Y-160013000D01*
X92761000Y-149867000D02*
X92761000Y-153500000D01*
X92721000Y-156380000D02*
X92721000Y-160042000D01*
X92721000Y-149838000D02*
X92721000Y-153500000D01*
X92681000Y-156380000D02*
X92681000Y-160071000D01*
X92681000Y-149809000D02*
X92681000Y-153500000D01*
X92641000Y-156380000D02*
X92641000Y-160100000D01*
X92641000Y-149780000D02*
X92641000Y-153500000D01*
X92601000Y-156380000D02*
X92601000Y-160128000D01*
X92601000Y-149752000D02*
X92601000Y-153500000D01*
X92561000Y-156380000D02*
X92561000Y-160156000D01*
X92561000Y-149724000D02*
X92561000Y-153500000D01*
X92521000Y-156380000D02*
X92521000Y-160183000D01*
X92521000Y-149697000D02*
X92521000Y-153500000D01*
X92481000Y-156380000D02*
X92481000Y-160210000D01*
X92481000Y-149670000D02*
X92481000Y-153500000D01*
X92441000Y-156380000D02*
X92441000Y-160236000D01*
X92441000Y-149644000D02*
X92441000Y-153500000D01*
X92401000Y-156380000D02*
X92401000Y-160262000D01*
X92401000Y-149618000D02*
X92401000Y-153500000D01*
X92361000Y-156380000D02*
X92361000Y-160287000D01*
X92361000Y-149593000D02*
X92361000Y-153500000D01*
X92321000Y-156380000D02*
X92321000Y-160312000D01*
X92321000Y-149568000D02*
X92321000Y-153500000D01*
X92281000Y-156380000D02*
X92281000Y-160337000D01*
X92281000Y-149543000D02*
X92281000Y-153500000D01*
X92241000Y-156380000D02*
X92241000Y-160361000D01*
X92241000Y-149519000D02*
X92241000Y-153500000D01*
X92201000Y-156380000D02*
X92201000Y-160385000D01*
X92201000Y-149495000D02*
X92201000Y-153500000D01*
X92161000Y-156380000D02*
X92161000Y-160408000D01*
X92161000Y-149472000D02*
X92161000Y-153500000D01*
X92121000Y-156380000D02*
X92121000Y-160431000D01*
X92121000Y-149449000D02*
X92121000Y-153500000D01*
X92081000Y-156380000D02*
X92081000Y-160454000D01*
X92081000Y-149426000D02*
X92081000Y-153500000D01*
X92041000Y-156380000D02*
X92041000Y-160476000D01*
X92041000Y-149404000D02*
X92041000Y-153500000D01*
X92001000Y-156380000D02*
X92001000Y-160498000D01*
X92001000Y-149382000D02*
X92001000Y-153500000D01*
X91961000Y-156380000D02*
X91961000Y-160520000D01*
X91961000Y-149360000D02*
X91961000Y-153500000D01*
X91921000Y-156380000D02*
X91921000Y-160541000D01*
X91921000Y-149339000D02*
X91921000Y-153500000D01*
X91881000Y-156380000D02*
X91881000Y-160562000D01*
X91881000Y-149318000D02*
X91881000Y-153500000D01*
X91841000Y-156380000D02*
X91841000Y-160582000D01*
X91841000Y-149298000D02*
X91841000Y-153500000D01*
X91801000Y-156380000D02*
X91801000Y-160602000D01*
X91801000Y-149278000D02*
X91801000Y-153500000D01*
X91761000Y-156380000D02*
X91761000Y-160622000D01*
X91761000Y-149258000D02*
X91761000Y-153500000D01*
X91721000Y-156380000D02*
X91721000Y-160642000D01*
X91721000Y-149238000D02*
X91721000Y-153500000D01*
X91681000Y-156380000D02*
X91681000Y-160661000D01*
X91681000Y-149219000D02*
X91681000Y-153500000D01*
X91641000Y-156380000D02*
X91641000Y-160679000D01*
X91641000Y-149201000D02*
X91641000Y-153500000D01*
X91601000Y-156380000D02*
X91601000Y-160698000D01*
X91601000Y-149182000D02*
X91601000Y-153500000D01*
X91561000Y-156380000D02*
X91561000Y-160716000D01*
X91561000Y-149164000D02*
X91561000Y-153500000D01*
X91521000Y-156380000D02*
X91521000Y-160733000D01*
X91521000Y-149147000D02*
X91521000Y-153500000D01*
X91481000Y-156380000D02*
X91481000Y-160751000D01*
X91481000Y-149129000D02*
X91481000Y-153500000D01*
X91441000Y-156380000D02*
X91441000Y-160768000D01*
X91441000Y-149112000D02*
X91441000Y-153500000D01*
X91401000Y-156380000D02*
X91401000Y-160785000D01*
X91401000Y-149095000D02*
X91401000Y-153500000D01*
X91361000Y-156380000D02*
X91361000Y-160801000D01*
X91361000Y-149079000D02*
X91361000Y-153500000D01*
X91321000Y-156380000D02*
X91321000Y-160817000D01*
X91321000Y-149063000D02*
X91321000Y-153500000D01*
X91281000Y-156380000D02*
X91281000Y-160833000D01*
X91281000Y-149047000D02*
X91281000Y-153500000D01*
X91241000Y-149032000D02*
X91241000Y-160848000D01*
X91201000Y-149016000D02*
X91201000Y-160864000D01*
X91161000Y-149001000D02*
X91161000Y-160879000D01*
X91121000Y-148987000D02*
X91121000Y-160893000D01*
X91081000Y-148973000D02*
X91081000Y-160907000D01*
X91041000Y-148959000D02*
X91041000Y-160921000D01*
X91001000Y-148945000D02*
X91001000Y-160935000D01*
X90961000Y-148932000D02*
X90961000Y-160948000D01*
X90921000Y-148919000D02*
X90921000Y-160961000D01*
X90881000Y-148906000D02*
X90881000Y-160974000D01*
X90841000Y-148893000D02*
X90841000Y-160987000D01*
X90801000Y-148881000D02*
X90801000Y-160999000D01*
X90761000Y-148869000D02*
X90761000Y-161011000D01*
X90721000Y-148857000D02*
X90721000Y-161023000D01*
X90681000Y-148846000D02*
X90681000Y-161034000D01*
X90641000Y-148835000D02*
X90641000Y-161045000D01*
X90601000Y-148824000D02*
X90601000Y-161056000D01*
X90561000Y-148814000D02*
X90561000Y-161066000D01*
X90521000Y-148803000D02*
X90521000Y-161077000D01*
X90481000Y-148794000D02*
X90481000Y-161086000D01*
X90441000Y-148784000D02*
X90441000Y-161096000D01*
X90401000Y-148774000D02*
X90401000Y-161106000D01*
X90361000Y-148765000D02*
X90361000Y-161115000D01*
X90321000Y-148756000D02*
X90321000Y-161124000D01*
X90281000Y-148748000D02*
X90281000Y-161132000D01*
X90241000Y-148739000D02*
X90241000Y-161141000D01*
X90201000Y-148731000D02*
X90201000Y-161149000D01*
X90161000Y-148724000D02*
X90161000Y-161156000D01*
X90121000Y-148716000D02*
X90121000Y-161164000D01*
X90081000Y-148709000D02*
X90081000Y-161171000D01*
X90041000Y-148702000D02*
X90041000Y-161178000D01*
X90001000Y-148695000D02*
X90001000Y-161185000D01*
X89961000Y-148688000D02*
X89961000Y-161192000D01*
X89921000Y-148682000D02*
X89921000Y-161198000D01*
X89881000Y-148676000D02*
X89881000Y-161204000D01*
X89841000Y-148671000D02*
X89841000Y-161209000D01*
X89801000Y-148665000D02*
X89801000Y-161215000D01*
X89761000Y-148660000D02*
X89761000Y-161220000D01*
X89721000Y-148655000D02*
X89721000Y-161225000D01*
X89681000Y-148650000D02*
X89681000Y-161230000D01*
X89640000Y-148646000D02*
X89640000Y-161234000D01*
X89600000Y-148642000D02*
X89600000Y-161238000D01*
X89560000Y-148638000D02*
X89560000Y-161242000D01*
X89520000Y-148634000D02*
X89520000Y-161246000D01*
X89480000Y-148631000D02*
X89480000Y-161249000D01*
X89440000Y-148628000D02*
X89440000Y-161252000D01*
X89400000Y-148625000D02*
X89400000Y-161255000D01*
X89360000Y-148622000D02*
X89360000Y-161258000D01*
X89320000Y-148620000D02*
X89320000Y-161260000D01*
X89280000Y-148618000D02*
X89280000Y-161262000D01*
X89240000Y-148616000D02*
X89240000Y-161264000D01*
X89200000Y-148614000D02*
X89200000Y-161266000D01*
X89160000Y-148613000D02*
X89160000Y-161267000D01*
X89120000Y-148612000D02*
X89120000Y-161268000D01*
X89080000Y-148611000D02*
X89080000Y-161269000D01*
X89040000Y-148610000D02*
X89040000Y-161270000D01*
X89000000Y-148610000D02*
X89000000Y-161270000D01*
X88960000Y-148610000D02*
X88960000Y-161270000D01*
X82767918Y-150740000D02*
X82767918Y-151990000D01*
X82142918Y-151365000D02*
X83392918Y-151365000D01*
X104470000Y-25250000D02*
X104470000Y-25185000D01*
X104470000Y-25250000D02*
X101230000Y-25250000D01*
X104470000Y-23075000D02*
X104470000Y-23010000D01*
X104470000Y-23010000D02*
X101230000Y-23010000D01*
X101230000Y-25250000D02*
X101230000Y-25185000D01*
X101230000Y-23075000D02*
X101230000Y-23010000D01*
X91980000Y-78700000D02*
X96621000Y-78700000D01*
X91980000Y-81969000D02*
X93490000Y-81969000D01*
X91980000Y-85670000D02*
X93490000Y-85670000D01*
X96621000Y-88940000D02*
X96621000Y-78700000D01*
X93490000Y-88940000D02*
X93490000Y-78700000D01*
X91980000Y-88940000D02*
X91980000Y-78700000D01*
X91980000Y-88940000D02*
X96621000Y-88940000D01*
X76740000Y-78700000D02*
X81381000Y-78700000D01*
X76740000Y-81969000D02*
X78250000Y-81969000D01*
X76740000Y-85670000D02*
X78250000Y-85670000D01*
X81381000Y-88940000D02*
X81381000Y-78700000D01*
X78250000Y-88940000D02*
X78250000Y-78700000D01*
X76740000Y-88940000D02*
X76740000Y-78700000D01*
X76740000Y-88940000D02*
X81381000Y-88940000D01*
X69120000Y-88940000D02*
X73761000Y-88940000D01*
X69120000Y-88940000D02*
X69120000Y-78700000D01*
X70630000Y-88940000D02*
X70630000Y-78700000D01*
X73761000Y-88940000D02*
X73761000Y-78700000D01*
X69120000Y-85670000D02*
X70630000Y-85670000D01*
X69120000Y-81969000D02*
X70630000Y-81969000D01*
X69120000Y-78700000D02*
X73761000Y-78700000D01*
X84360000Y-88940000D02*
X89001000Y-88940000D01*
X84360000Y-88940000D02*
X84360000Y-78700000D01*
X85870000Y-88940000D02*
X85870000Y-78700000D01*
X89001000Y-88940000D02*
X89001000Y-78700000D01*
X84360000Y-85670000D02*
X85870000Y-85670000D01*
X84360000Y-81969000D02*
X85870000Y-81969000D01*
X84360000Y-78700000D02*
X89001000Y-78700000D01*
X110620000Y-105280000D02*
X107950000Y-105280000D01*
X105410000Y-105280000D02*
X67180000Y-105280000D01*
X67180000Y-105280000D02*
X67180000Y-110360000D01*
X107950000Y-107950000D02*
X107950000Y-105280000D01*
X105410000Y-107950000D02*
X105410000Y-105280000D01*
X105410000Y-107950000D02*
X107950000Y-107950000D01*
X105410000Y-107950000D02*
X69850000Y-107950000D01*
X69850000Y-107950000D02*
X69850000Y-105280000D01*
X75060000Y-110360000D02*
X75060000Y-118240000D01*
X64640000Y-110360000D02*
X75060000Y-110360000D01*
X75060000Y-118240000D02*
X64640000Y-118240000D01*
X64640000Y-118240000D02*
X64640000Y-110360000D01*
X107950000Y-120650000D02*
X69850000Y-120650000D01*
X107950000Y-120650000D02*
X107950000Y-123320000D01*
X69850000Y-120650000D02*
X69850000Y-123320000D01*
X110620000Y-123320000D02*
X110620000Y-105280000D01*
X67180000Y-123320000D02*
X67180000Y-118240000D01*
X67180000Y-123320000D02*
X110620000Y-123320000D01*
X90710000Y-63540000D02*
X95351000Y-63540000D01*
X90710000Y-63540000D02*
X90710000Y-53300000D01*
X92220000Y-63540000D02*
X92220000Y-53300000D01*
X95351000Y-63540000D02*
X95351000Y-53300000D01*
X90710000Y-60270000D02*
X92220000Y-60270000D01*
X90710000Y-56569000D02*
X92220000Y-56569000D01*
X90710000Y-53300000D02*
X95351000Y-53300000D01*
%LPC*%
D11*
X101600000Y-31750000D03*
X104100000Y-31750000D03*
X74930000Y-66080000D03*
X74930000Y-68580000D03*
D12*
X104140000Y-35560000D03*
D13*
X96520000Y-35560000D03*
D14*
X85090000Y-32510000D03*
X82550000Y-29970000D03*
X85090000Y-27430000D03*
D11*
X82510000Y-165040000D03*
D15*
X80010000Y-165040000D03*
D11*
X80010000Y-66080000D03*
X80010000Y-68580000D03*
D14*
X78740000Y-32510000D03*
X76200000Y-29970000D03*
X78740000Y-27430000D03*
D16*
X85090000Y-142240000D03*
D17*
X69850000Y-142240000D03*
D18*
X71120000Y-38100000D03*
D19*
X71120000Y-50800000D03*
D18*
X90170000Y-38100000D03*
D19*
X90170000Y-50800000D03*
D18*
X72390000Y-93980000D03*
D19*
X72390000Y-101600000D03*
D20*
X78740000Y-60960000D03*
D21*
X78740000Y-58420000D03*
X78740000Y-55880000D03*
D18*
X84490000Y-93980000D03*
D19*
X84490000Y-101600000D03*
D18*
X100330000Y-130810000D03*
D19*
X107950000Y-130810000D03*
D18*
X107950000Y-177800000D03*
D19*
X107950000Y-170180000D03*
D22*
X99857500Y-172220000D03*
X98587500Y-174760000D03*
X97317500Y-172220000D03*
X96047500Y-174760000D03*
X94777500Y-172220000D03*
X93507500Y-174760000D03*
X92237500Y-172220000D03*
D23*
X90967500Y-174760000D03*
D24*
X101127500Y-181110000D03*
X89697500Y-181110000D03*
D12*
X104140000Y-43180000D03*
D13*
X96520000Y-43180000D03*
D11*
X104100000Y-39370000D03*
X101600000Y-39370000D03*
D19*
X77470000Y-50800000D03*
D18*
X77470000Y-38100000D03*
D25*
X77470000Y-134620000D03*
D26*
X80010000Y-134620000D03*
X82550000Y-134620000D03*
X85090000Y-134620000D03*
X87630000Y-134620000D03*
X90170000Y-134620000D03*
X92710000Y-134620000D03*
X95250000Y-134620000D03*
X95250000Y-127000000D03*
X92710000Y-127000000D03*
X90170000Y-127000000D03*
X87630000Y-127000000D03*
X85090000Y-127000000D03*
X82550000Y-127000000D03*
X80010000Y-127000000D03*
X77470000Y-127000000D03*
D18*
X83820000Y-38100000D03*
D19*
X83820000Y-50800000D03*
D12*
X104140000Y-50800000D03*
D13*
X96520000Y-50800000D03*
D14*
X72390000Y-27430000D03*
X69850000Y-29970000D03*
X72390000Y-32510000D03*
D27*
X76090000Y-149840000D03*
X72390000Y-151540000D03*
X76090000Y-153240000D03*
X72390000Y-154940000D03*
D28*
X76090000Y-156640000D03*
D13*
X96520000Y-27940000D03*
D12*
X104140000Y-27940000D03*
D29*
X78740000Y-74930000D03*
D30*
X78740000Y-72390000D03*
X81280000Y-74930000D03*
X81280000Y-72390000D03*
X83820000Y-74930000D03*
X83820000Y-72390000D03*
X86360000Y-74930000D03*
X86360000Y-72390000D03*
D31*
X100330000Y-165100000D03*
X100330000Y-162560000D03*
X100330000Y-160020000D03*
X100330000Y-157480000D03*
X107950000Y-157480000D03*
X107950000Y-160020000D03*
X107950000Y-162560000D03*
D32*
X107950000Y-165100000D03*
D33*
X109220000Y-36830000D03*
D34*
X109220000Y-34330000D03*
X109220000Y-31830000D03*
X109220000Y-29330000D03*
X109220000Y-26830000D03*
D18*
X78440000Y-93980000D03*
D19*
X78440000Y-101600000D03*
D11*
X102910000Y-125730000D03*
X105410000Y-125730000D03*
D20*
X86360000Y-60960000D03*
D21*
X86360000Y-58420000D03*
X86360000Y-55880000D03*
D24*
X72512500Y-181110000D03*
X83942500Y-181110000D03*
D23*
X73782500Y-174760000D03*
D22*
X75052500Y-172220000D03*
X76322500Y-174760000D03*
X77592500Y-172220000D03*
X78862500Y-174760000D03*
X80132500Y-172220000D03*
X81402500Y-174760000D03*
X82672500Y-172220000D03*
D11*
X70871395Y-165040000D03*
D15*
X73371395Y-165040000D03*
D11*
X90170000Y-66080000D03*
X90170000Y-68580000D03*
X104100000Y-46990000D03*
X101600000Y-46990000D03*
D20*
X71120000Y-60960000D03*
D21*
X71120000Y-58420000D03*
X71120000Y-55880000D03*
D11*
X101560000Y-168910000D03*
X99060000Y-168910000D03*
D18*
X90540000Y-93980000D03*
D19*
X90540000Y-101600000D03*
D32*
X107950000Y-144780000D03*
D31*
X107950000Y-142240000D03*
X107950000Y-139700000D03*
X100330000Y-139700000D03*
X100330000Y-142240000D03*
X100330000Y-144780000D03*
D18*
X107950000Y-149860000D03*
D19*
X100330000Y-149860000D03*
D14*
X91440000Y-27430000D03*
X88900000Y-29970000D03*
X91440000Y-32510000D03*
D11*
X85090000Y-66080000D03*
X85090000Y-68580000D03*
D18*
X92710000Y-154940000D03*
D35*
X85210000Y-154940000D03*
D11*
X104100000Y-24130000D03*
X101600000Y-24130000D03*
D21*
X95250000Y-81280000D03*
X95250000Y-83820000D03*
D20*
X95250000Y-86360000D03*
D21*
X80010000Y-81280000D03*
X80010000Y-83820000D03*
D20*
X80010000Y-86360000D03*
X72390000Y-86360000D03*
D21*
X72390000Y-83820000D03*
X72390000Y-81280000D03*
D20*
X87630000Y-86360000D03*
D21*
X87630000Y-83820000D03*
X87630000Y-81280000D03*
D36*
X106680000Y-121920000D03*
X104140000Y-121920000D03*
X101600000Y-121920000D03*
X99060000Y-121920000D03*
X96520000Y-121920000D03*
X93980000Y-121920000D03*
X91440000Y-121920000D03*
X88900000Y-121920000D03*
X86360000Y-121920000D03*
X83820000Y-121920000D03*
X81280000Y-121920000D03*
X78740000Y-121920000D03*
X76200000Y-121920000D03*
X73660000Y-121920000D03*
X71120000Y-121920000D03*
X71120000Y-106680000D03*
X73660000Y-106680000D03*
X76200000Y-106680000D03*
X78740000Y-106680000D03*
X81280000Y-106680000D03*
X83820000Y-106680000D03*
X86360000Y-106680000D03*
X88900000Y-106680000D03*
X91440000Y-106680000D03*
X93980000Y-106680000D03*
X96520000Y-106680000D03*
X99060000Y-106680000D03*
X101600000Y-106680000D03*
X104140000Y-106680000D03*
D15*
X106680000Y-106680000D03*
D20*
X93980000Y-60960000D03*
D21*
X93980000Y-58420000D03*
X93980000Y-55880000D03*
%LPD*%
M02*
