G04 #@! TF.GenerationSoftware,KiCad,Pcbnew,8.0.6*
G04 #@! TF.CreationDate,2024-11-01T16:27:22+01:00*
G04 #@! TF.ProjectId,dmx_to_pwm,646d785f-746f-45f7-9077-6d2e6b696361,rev?*
G04 #@! TF.SameCoordinates,Original*
G04 #@! TF.FileFunction,Copper,L1,Top*
G04 #@! TF.FilePolarity,Positive*
%FSLAX46Y46*%
G04 Gerber Fmt 4.6, Leading zero omitted, Abs format (unit mm)*
G04 Created by KiCad (PCBNEW 8.0.6) date 2024-11-01 16:27:22*
%MOMM*%
%LPD*%
G01*
G04 APERTURE LIST*
G04 Aperture macros list*
%AMRoundRect*
0 Rectangle with rounded corners*
0 $1 Rounding radius*
0 $2 $3 $4 $5 $6 $7 $8 $9 X,Y pos of 4 corners*
0 Add a 4 corners polygon primitive as box body*
4,1,4,$2,$3,$4,$5,$6,$7,$8,$9,$2,$3,0*
0 Add four circle primitives for the rounded corners*
1,1,$1+$1,$2,$3*
1,1,$1+$1,$4,$5*
1,1,$1+$1,$6,$7*
1,1,$1+$1,$8,$9*
0 Add four rect primitives between the rounded corners*
20,1,$1+$1,$2,$3,$4,$5,0*
20,1,$1+$1,$4,$5,$6,$7,0*
20,1,$1+$1,$6,$7,$8,$9,0*
20,1,$1+$1,$8,$9,$2,$3,0*%
G04 Aperture macros list end*
G04 #@! TA.AperFunction,ComponentPad*
%ADD10C,6.400000*%
G04 #@! TD*
G04 #@! TA.AperFunction,ComponentPad*
%ADD11C,1.600000*%
G04 #@! TD*
G04 #@! TA.AperFunction,ComponentPad*
%ADD12R,1.600000X1.600000*%
G04 #@! TD*
G04 #@! TA.AperFunction,ComponentPad*
%ADD13C,1.440000*%
G04 #@! TD*
G04 #@! TA.AperFunction,ComponentPad*
%ADD14R,2.000000X1.905000*%
G04 #@! TD*
G04 #@! TA.AperFunction,ComponentPad*
%ADD15O,2.000000X1.905000*%
G04 #@! TD*
G04 #@! TA.AperFunction,ComponentPad*
%ADD16R,2.200000X2.200000*%
G04 #@! TD*
G04 #@! TA.AperFunction,ComponentPad*
%ADD17O,2.200000X2.200000*%
G04 #@! TD*
G04 #@! TA.AperFunction,ComponentPad*
%ADD18R,3.200000X3.200000*%
G04 #@! TD*
G04 #@! TA.AperFunction,ComponentPad*
%ADD19O,3.200000X3.200000*%
G04 #@! TD*
G04 #@! TA.AperFunction,ComponentPad*
%ADD20C,2.400000*%
G04 #@! TD*
G04 #@! TA.AperFunction,ComponentPad*
%ADD21O,2.400000X2.400000*%
G04 #@! TD*
G04 #@! TA.AperFunction,ComponentPad*
%ADD22R,1.500000X1.500000*%
G04 #@! TD*
G04 #@! TA.AperFunction,ComponentPad*
%ADD23C,1.500000*%
G04 #@! TD*
G04 #@! TA.AperFunction,ComponentPad*
%ADD24R,1.600000X2.400000*%
G04 #@! TD*
G04 #@! TA.AperFunction,ComponentPad*
%ADD25O,1.600000X2.400000*%
G04 #@! TD*
G04 #@! TA.AperFunction,ComponentPad*
%ADD26RoundRect,0.250000X0.725000X-0.600000X0.725000X0.600000X-0.725000X0.600000X-0.725000X-0.600000X0*%
G04 #@! TD*
G04 #@! TA.AperFunction,ComponentPad*
%ADD27O,1.950000X1.700000*%
G04 #@! TD*
G04 #@! TA.AperFunction,ComponentPad*
%ADD28R,1.800000X1.800000*%
G04 #@! TD*
G04 #@! TA.AperFunction,ComponentPad*
%ADD29O,1.800000X1.800000*%
G04 #@! TD*
G04 #@! TA.AperFunction,ComponentPad*
%ADD30R,1.700000X1.700000*%
G04 #@! TD*
G04 #@! TA.AperFunction,ComponentPad*
%ADD31O,1.700000X1.700000*%
G04 #@! TD*
G04 #@! TA.AperFunction,ComponentPad*
%ADD32R,2.400000X1.600000*%
G04 #@! TD*
G04 #@! TA.AperFunction,ComponentPad*
%ADD33O,2.400000X1.600000*%
G04 #@! TD*
G04 #@! TA.AperFunction,ComponentPad*
%ADD34O,1.600000X1.600000*%
G04 #@! TD*
G04 #@! TA.AperFunction,Conductor*
%ADD35C,0.500000*%
G04 #@! TD*
G04 #@! TA.AperFunction,Conductor*
%ADD36C,0.250000*%
G04 #@! TD*
G04 #@! TA.AperFunction,Conductor*
%ADD37C,1.000000*%
G04 #@! TD*
G04 #@! TA.AperFunction,Conductor*
%ADD38C,0.200000*%
G04 #@! TD*
G04 APERTURE END LIST*
G04 #@! TA.AperFunction,Conductor*
G36*
X97155000Y-172402500D02*
G01*
X100330000Y-172402500D01*
X100330000Y-178117500D01*
X97155000Y-178117500D01*
X97155000Y-172402500D01*
G37*
G04 #@! TD.AperFunction*
G04 #@! TA.AperFunction,Conductor*
G36*
X81915000Y-164465000D02*
G01*
X83820000Y-164465000D01*
X83820000Y-170180000D01*
X81915000Y-170180000D01*
X81915000Y-164465000D01*
G37*
G04 #@! TD.AperFunction*
G04 #@! TA.AperFunction,Conductor*
G36*
X80010000Y-176847500D02*
G01*
X99695000Y-176847500D01*
X99695000Y-178752500D01*
X80010000Y-178752500D01*
X80010000Y-176847500D01*
G37*
G04 #@! TD.AperFunction*
G04 #@! TA.AperFunction,Conductor*
G36*
X80010000Y-167957500D02*
G01*
X82550000Y-167957500D01*
X82550000Y-178117500D01*
X80010000Y-178117500D01*
X80010000Y-167957500D01*
G37*
G04 #@! TD.AperFunction*
D10*
X104775000Y-93980000D03*
X96520000Y-147955000D03*
X71755000Y-130810000D03*
X71755000Y-74295000D03*
X109220000Y-47625000D03*
D11*
X104100000Y-31750000D03*
X101600000Y-31750000D03*
X74930000Y-66080000D03*
X74930000Y-68580000D03*
D12*
X86440000Y-154940000D03*
D11*
X91440000Y-154940000D03*
D13*
X85090000Y-32510000D03*
X82550000Y-29970000D03*
X85090000Y-27430000D03*
D14*
X77470000Y-56515000D03*
D15*
X77470000Y-59055000D03*
X77470000Y-61595000D03*
D12*
X80010000Y-165040000D03*
D11*
X82510000Y-165040000D03*
X80010000Y-66080000D03*
X80010000Y-68580000D03*
D13*
X78740000Y-32510000D03*
X76200000Y-29970000D03*
X78740000Y-27430000D03*
D16*
X96520000Y-27940000D03*
D17*
X104140000Y-27940000D03*
D18*
X69850000Y-142240000D03*
D19*
X85090000Y-142240000D03*
D20*
X71120000Y-38100000D03*
D21*
X71120000Y-50800000D03*
D20*
X90170000Y-38100000D03*
D21*
X90170000Y-50800000D03*
D14*
X85725000Y-56515000D03*
D15*
X85725000Y-59055000D03*
X85725000Y-61595000D03*
D20*
X72390000Y-93980000D03*
D21*
X72390000Y-101600000D03*
D20*
X84490000Y-93980000D03*
D21*
X84490000Y-101600000D03*
D20*
X107950000Y-177800000D03*
D21*
X107950000Y-170180000D03*
D16*
X96520000Y-35560000D03*
D17*
X104140000Y-35560000D03*
D22*
X90967500Y-174760000D03*
D23*
X92237500Y-172220000D03*
X93507500Y-174760000D03*
X94777500Y-172220000D03*
X96047500Y-174760000D03*
X97317500Y-172220000D03*
X98587500Y-174760000D03*
X99857500Y-172220000D03*
D14*
X93980000Y-56515000D03*
D15*
X93980000Y-59055000D03*
X93980000Y-61595000D03*
D11*
X104100000Y-39370000D03*
X101600000Y-39370000D03*
D14*
X95250000Y-86360000D03*
D15*
X95250000Y-83820000D03*
X95250000Y-81280000D03*
D20*
X77470000Y-38100000D03*
D21*
X77470000Y-50800000D03*
D24*
X77470000Y-134620000D03*
D25*
X80010000Y-134620000D03*
X82550000Y-134620000D03*
X85090000Y-134620000D03*
X87630000Y-134620000D03*
X90170000Y-134620000D03*
X92710000Y-134620000D03*
X95250000Y-134620000D03*
X95250000Y-127000000D03*
X92710000Y-127000000D03*
X90170000Y-127000000D03*
X87630000Y-127000000D03*
X85090000Y-127000000D03*
X82550000Y-127000000D03*
X80010000Y-127000000D03*
X77470000Y-127000000D03*
D20*
X83820000Y-38100000D03*
D21*
X83820000Y-50800000D03*
D14*
X80010000Y-86360000D03*
D15*
X80010000Y-83820000D03*
X80010000Y-81280000D03*
D26*
X108920000Y-138390000D03*
D27*
X108920000Y-135890000D03*
X108920000Y-133390000D03*
D14*
X72390000Y-86360000D03*
D15*
X72390000Y-83820000D03*
X72390000Y-81280000D03*
D13*
X72390000Y-32510000D03*
X69850000Y-29970000D03*
X72390000Y-27430000D03*
D28*
X76090000Y-156640000D03*
D29*
X72390000Y-154940000D03*
X76090000Y-153240000D03*
X72390000Y-151540000D03*
X76090000Y-149840000D03*
D30*
X78740000Y-74930000D03*
D31*
X78740000Y-72390000D03*
X81280000Y-74930000D03*
X81280000Y-72390000D03*
X83820000Y-74930000D03*
X83820000Y-72390000D03*
X86360000Y-74930000D03*
X86360000Y-72390000D03*
D32*
X107950000Y-165100000D03*
D33*
X107950000Y-162560000D03*
X107950000Y-160020000D03*
X107950000Y-157480000D03*
X100330000Y-157480000D03*
X100330000Y-160020000D03*
X100330000Y-162560000D03*
X100330000Y-165100000D03*
D26*
X109220000Y-36830000D03*
D27*
X109220000Y-34330000D03*
X109220000Y-31830000D03*
X109220000Y-29330000D03*
X109220000Y-26830000D03*
D20*
X78440000Y-93980000D03*
D21*
X78440000Y-101600000D03*
D14*
X87630000Y-86360000D03*
D15*
X87630000Y-83820000D03*
X87630000Y-81280000D03*
D22*
X73782500Y-174760000D03*
D23*
X75052500Y-172220000D03*
X76322500Y-174760000D03*
X77592500Y-172220000D03*
X78862500Y-174760000D03*
X80132500Y-172220000D03*
X81402500Y-174760000D03*
X82672500Y-172220000D03*
D12*
X73371395Y-165040000D03*
D11*
X70871395Y-165040000D03*
X90170000Y-66080000D03*
X90170000Y-68580000D03*
D22*
X109220000Y-148590000D03*
D11*
X109220000Y-146050000D03*
X109220000Y-151130000D03*
X104100000Y-46990000D03*
X101600000Y-46990000D03*
X99060000Y-168910000D03*
X101560000Y-168910000D03*
D14*
X70175000Y-56515000D03*
D15*
X70175000Y-59055000D03*
X70175000Y-61595000D03*
D20*
X90540000Y-93980000D03*
D21*
X90540000Y-101600000D03*
D16*
X96520000Y-43180000D03*
D17*
X104140000Y-43180000D03*
D13*
X91440000Y-32510000D03*
X88900000Y-29970000D03*
X91440000Y-27430000D03*
D12*
X106680000Y-106680000D03*
D34*
X104140000Y-106680000D03*
X101600000Y-106680000D03*
X99060000Y-106680000D03*
X96520000Y-106680000D03*
X93980000Y-106680000D03*
X91440000Y-106680000D03*
X88900000Y-106680000D03*
X86360000Y-106680000D03*
X83820000Y-106680000D03*
X81280000Y-106680000D03*
X78740000Y-106680000D03*
X76200000Y-106680000D03*
X73660000Y-106680000D03*
X71120000Y-106680000D03*
X71120000Y-121920000D03*
X73660000Y-121920000D03*
X76200000Y-121920000D03*
X78740000Y-121920000D03*
X81280000Y-121920000D03*
X83820000Y-121920000D03*
X86360000Y-121920000D03*
X88900000Y-121920000D03*
X91440000Y-121920000D03*
X93980000Y-121920000D03*
X96520000Y-121920000D03*
X99060000Y-121920000D03*
X101600000Y-121920000D03*
X104140000Y-121920000D03*
X106680000Y-121920000D03*
D11*
X85090000Y-66080000D03*
X85090000Y-68580000D03*
X104100000Y-24130000D03*
X101600000Y-24130000D03*
D16*
X96520000Y-51435000D03*
D17*
X104140000Y-51435000D03*
D35*
X99060000Y-93980000D02*
X99060000Y-70485000D01*
X99060000Y-106680000D02*
X99060000Y-93980000D01*
X99060000Y-93980000D02*
X104775000Y-93980000D01*
X104140000Y-43180000D02*
X104140000Y-46950000D01*
D36*
X104140000Y-46950000D02*
X104100000Y-46990000D01*
D37*
X79440000Y-165040000D02*
X74295000Y-159895000D01*
X74295000Y-159895000D02*
X74170000Y-159895000D01*
X69215000Y-154715000D02*
X72390000Y-151540000D01*
X74170000Y-159895000D02*
X69215000Y-154940000D01*
X69215000Y-154940000D02*
X69215000Y-154715000D01*
D36*
X107950000Y-109220000D02*
X105410000Y-109220000D01*
X104140000Y-107950000D02*
X104140000Y-106680000D01*
X111760000Y-146050000D02*
X111760000Y-128270000D01*
X111760000Y-128270000D02*
X110490000Y-127000000D01*
X110490000Y-111760000D02*
X107950000Y-109220000D01*
X105410000Y-109220000D02*
X104140000Y-107950000D01*
X110490000Y-127000000D02*
X110490000Y-111760000D01*
X109220000Y-148590000D02*
X111760000Y-146050000D01*
X81280000Y-123190000D02*
X81280000Y-121920000D01*
X80010000Y-124460000D02*
X81280000Y-123190000D01*
X80010000Y-127000000D02*
X80010000Y-124460000D01*
X78740000Y-123190000D02*
X78740000Y-121920000D01*
X77470000Y-127000000D02*
X77470000Y-124460000D01*
X77470000Y-124460000D02*
X78740000Y-123190000D01*
X83820000Y-123190000D02*
X83820000Y-121920000D01*
X82550000Y-124460000D02*
X83820000Y-123190000D01*
X82550000Y-127000000D02*
X82550000Y-124460000D01*
X92710000Y-124460000D02*
X93980000Y-123190000D01*
X93980000Y-123190000D02*
X93980000Y-121920000D01*
X92710000Y-127000000D02*
X92710000Y-124460000D01*
X95250000Y-127000000D02*
X95250000Y-124460000D01*
X96520000Y-123190000D02*
X96520000Y-121920000D01*
X95250000Y-124460000D02*
X96520000Y-123190000D01*
X86360000Y-123190000D02*
X86360000Y-121920000D01*
X85090000Y-124460000D02*
X86360000Y-123190000D01*
X85090000Y-127000000D02*
X85090000Y-124460000D01*
D35*
X76090000Y-149840000D02*
X76090000Y-153240000D01*
X101560000Y-170517500D02*
X99857500Y-172220000D01*
D36*
X97317500Y-174152500D02*
X98425000Y-175260000D01*
X83690000Y-142240000D02*
X85090000Y-142240000D01*
D35*
X104140000Y-56595000D02*
X104140000Y-51435000D01*
X104100000Y-39370000D02*
X104100000Y-43140000D01*
X94260991Y-66080000D02*
X90170000Y-66080000D01*
D36*
X82550000Y-172220000D02*
X82672500Y-172220000D01*
X81402500Y-173490000D02*
X81402500Y-174760000D01*
X104140000Y-47030000D02*
X104100000Y-46990000D01*
D35*
X80010000Y-134620000D02*
X77470000Y-134620000D01*
D36*
X97317500Y-172220000D02*
X97317500Y-174152500D01*
D35*
X100330000Y-157480000D02*
X101600000Y-156210000D01*
X85090000Y-66080000D02*
X80010000Y-66080000D01*
X87630000Y-134620000D02*
X85090000Y-134620000D01*
X70871395Y-166756395D02*
X70871395Y-165040000D01*
X104100000Y-24130000D02*
X104100000Y-27900000D01*
X75882500Y-167640000D02*
X71755000Y-167640000D01*
X92710000Y-134620000D02*
X90170000Y-134620000D01*
X104140000Y-121920000D02*
X104140000Y-111760000D01*
D36*
X94655000Y-66080000D02*
X94260991Y-66080000D01*
D35*
X95250000Y-134620000D02*
X92710000Y-134620000D01*
X100330000Y-142240000D02*
X95250000Y-137160000D01*
X95250000Y-130810000D02*
X104140000Y-121920000D01*
X101560000Y-168910000D02*
X101560000Y-170517500D01*
D36*
X82510000Y-172180000D02*
X82550000Y-172220000D01*
D35*
X71755000Y-167640000D02*
X70871395Y-166756395D01*
X108920000Y-135890000D02*
X106680000Y-135890000D01*
X101600000Y-156210000D02*
X101600000Y-143510000D01*
X104100000Y-31750000D02*
X104100000Y-35520000D01*
X80010000Y-66080000D02*
X74930000Y-66080000D01*
D36*
X98587500Y-173490000D02*
X97317500Y-172220000D01*
D35*
X85090000Y-134620000D02*
X82550000Y-134620000D01*
X104140000Y-51435000D02*
X104140000Y-47030000D01*
X101600000Y-143510000D02*
X100330000Y-142240000D01*
X104140000Y-35560000D02*
X104140000Y-39330000D01*
X85090000Y-142240000D02*
X85090000Y-134620000D01*
X90170000Y-66080000D02*
X85090000Y-66080000D01*
X82510000Y-165040000D02*
X82510000Y-159660000D01*
X90170000Y-134620000D02*
X87630000Y-134620000D01*
X104140000Y-27940000D02*
X104140000Y-31710000D01*
X95250000Y-134620000D02*
X95250000Y-130810000D01*
D36*
X82672500Y-172220000D02*
X81402500Y-173490000D01*
D35*
X104140000Y-56595000D02*
X94655000Y-66080000D01*
X104140000Y-111760000D02*
X99060000Y-106680000D01*
X95250000Y-137160000D02*
X95250000Y-134620000D01*
X82510000Y-159660000D02*
X76090000Y-153240000D01*
X106680000Y-135890000D02*
X100330000Y-142240000D01*
X81280000Y-173037500D02*
X75882500Y-167640000D01*
X103640000Y-173490000D02*
X98587500Y-173490000D01*
X76090000Y-149840000D02*
X83690000Y-142240000D01*
X82550000Y-134620000D02*
X80010000Y-134620000D01*
D36*
X109140000Y-31750000D02*
X109220000Y-31830000D01*
D35*
X99060000Y-70485000D02*
X94655000Y-66080000D01*
X107950000Y-177800000D02*
X103640000Y-173490000D01*
D37*
X104100000Y-31750000D02*
X109140000Y-31750000D01*
D36*
X90170000Y-124460000D02*
X91440000Y-123190000D01*
X91440000Y-123190000D02*
X91440000Y-121920000D01*
X90170000Y-127000000D02*
X90170000Y-124460000D01*
X87630000Y-124460000D02*
X88900000Y-123190000D01*
X88900000Y-123190000D02*
X88900000Y-121920000D01*
X87630000Y-127000000D02*
X87630000Y-124460000D01*
D38*
X92237500Y-172220000D02*
X92237500Y-170652500D01*
X92237500Y-170652500D02*
X100330000Y-162560000D01*
X90967500Y-169382500D02*
X100330000Y-160020000D01*
X90967500Y-174760000D02*
X90967500Y-169382500D01*
D36*
X107950000Y-160020000D02*
X107950000Y-162560000D01*
X107950000Y-162560000D02*
X110490000Y-162560000D01*
X110490000Y-162560000D02*
X110490000Y-170180000D01*
X110490000Y-170180000D02*
X107950000Y-170180000D01*
X109220000Y-146050000D02*
X109220000Y-138690000D01*
X109220000Y-138690000D02*
X108920000Y-138390000D01*
X107950000Y-165100000D02*
X104458198Y-161608198D01*
X104458198Y-155891802D02*
X109220000Y-151130000D01*
X104458198Y-161608198D02*
X104458198Y-155891802D01*
D35*
X96520000Y-46990000D02*
X93980000Y-49530000D01*
X100330000Y-39370000D02*
X101600000Y-39370000D01*
X96520000Y-43180000D02*
X96520000Y-46990000D01*
X93980000Y-52070000D02*
X89535000Y-56515000D01*
X96520000Y-43180000D02*
X100330000Y-39370000D01*
X93980000Y-49530000D02*
X93980000Y-52070000D01*
X89535000Y-56515000D02*
X85725000Y-56515000D01*
M02*
