G04 #@! TF.GenerationSoftware,KiCad,Pcbnew,8.0.6*
G04 #@! TF.CreationDate,2024-11-01T16:27:22+01:00*
G04 #@! TF.ProjectId,dmx_to_pwm,646d785f-746f-45f7-9077-6d2e6b696361,rev?*
G04 #@! TF.SameCoordinates,Original*
G04 #@! TF.FileFunction,Legend,Top*
G04 #@! TF.FilePolarity,Positive*
%FSLAX46Y46*%
G04 Gerber Fmt 4.6, Leading zero omitted, Abs format (unit mm)*
G04 Created by KiCad (PCBNEW 8.0.6) date 2024-11-01 16:27:22*
%MOMM*%
%LPD*%
G01*
G04 APERTURE LIST*
G04 Aperture macros list*
%AMRoundRect*
0 Rectangle with rounded corners*
0 $1 Rounding radius*
0 $2 $3 $4 $5 $6 $7 $8 $9 X,Y pos of 4 corners*
0 Add a 4 corners polygon primitive as box body*
4,1,4,$2,$3,$4,$5,$6,$7,$8,$9,$2,$3,0*
0 Add four circle primitives for the rounded corners*
1,1,$1+$1,$2,$3*
1,1,$1+$1,$4,$5*
1,1,$1+$1,$6,$7*
1,1,$1+$1,$8,$9*
0 Add four rect primitives between the rounded corners*
20,1,$1+$1,$2,$3,$4,$5,0*
20,1,$1+$1,$4,$5,$6,$7,0*
20,1,$1+$1,$6,$7,$8,$9,0*
20,1,$1+$1,$8,$9,$2,$3,0*%
G04 Aperture macros list end*
%ADD10C,0.150000*%
%ADD11C,0.120000*%
%ADD12C,6.400000*%
%ADD13C,1.600000*%
%ADD14R,1.600000X1.600000*%
%ADD15C,1.440000*%
%ADD16R,2.000000X1.905000*%
%ADD17O,2.000000X1.905000*%
%ADD18R,2.200000X2.200000*%
%ADD19O,2.200000X2.200000*%
%ADD20R,3.200000X3.200000*%
%ADD21O,3.200000X3.200000*%
%ADD22C,2.400000*%
%ADD23O,2.400000X2.400000*%
%ADD24C,3.200000*%
%ADD25R,1.500000X1.500000*%
%ADD26C,1.500000*%
%ADD27R,1.600000X2.400000*%
%ADD28O,1.600000X2.400000*%
%ADD29RoundRect,0.250000X0.725000X-0.600000X0.725000X0.600000X-0.725000X0.600000X-0.725000X-0.600000X0*%
%ADD30O,1.950000X1.700000*%
%ADD31R,1.800000X1.800000*%
%ADD32O,1.800000X1.800000*%
%ADD33R,1.700000X1.700000*%
%ADD34O,1.700000X1.700000*%
%ADD35R,2.400000X1.600000*%
%ADD36O,2.400000X1.600000*%
%ADD37O,1.600000X1.600000*%
G04 APERTURE END LIST*
D10*
X104013095Y-90234819D02*
X104013095Y-89234819D01*
X104013095Y-89711009D02*
X104584523Y-89711009D01*
X104584523Y-90234819D02*
X104584523Y-89234819D01*
X105536904Y-89234819D02*
X105060714Y-89234819D01*
X105060714Y-89234819D02*
X105013095Y-89711009D01*
X105013095Y-89711009D02*
X105060714Y-89663390D01*
X105060714Y-89663390D02*
X105155952Y-89615771D01*
X105155952Y-89615771D02*
X105394047Y-89615771D01*
X105394047Y-89615771D02*
X105489285Y-89663390D01*
X105489285Y-89663390D02*
X105536904Y-89711009D01*
X105536904Y-89711009D02*
X105584523Y-89806247D01*
X105584523Y-89806247D02*
X105584523Y-90044342D01*
X105584523Y-90044342D02*
X105536904Y-90139580D01*
X105536904Y-90139580D02*
X105489285Y-90187200D01*
X105489285Y-90187200D02*
X105394047Y-90234819D01*
X105394047Y-90234819D02*
X105155952Y-90234819D01*
X105155952Y-90234819D02*
X105060714Y-90187200D01*
X105060714Y-90187200D02*
X105013095Y-90139580D01*
X95758095Y-144209819D02*
X95758095Y-143209819D01*
X95758095Y-143686009D02*
X96329523Y-143686009D01*
X96329523Y-144209819D02*
X96329523Y-143209819D01*
X97234285Y-143543152D02*
X97234285Y-144209819D01*
X96996190Y-143162200D02*
X96758095Y-143876485D01*
X96758095Y-143876485D02*
X97377142Y-143876485D01*
X70993095Y-127064819D02*
X70993095Y-126064819D01*
X70993095Y-126541009D02*
X71564523Y-126541009D01*
X71564523Y-127064819D02*
X71564523Y-126064819D01*
X71945476Y-126064819D02*
X72564523Y-126064819D01*
X72564523Y-126064819D02*
X72231190Y-126445771D01*
X72231190Y-126445771D02*
X72374047Y-126445771D01*
X72374047Y-126445771D02*
X72469285Y-126493390D01*
X72469285Y-126493390D02*
X72516904Y-126541009D01*
X72516904Y-126541009D02*
X72564523Y-126636247D01*
X72564523Y-126636247D02*
X72564523Y-126874342D01*
X72564523Y-126874342D02*
X72516904Y-126969580D01*
X72516904Y-126969580D02*
X72469285Y-127017200D01*
X72469285Y-127017200D02*
X72374047Y-127064819D01*
X72374047Y-127064819D02*
X72088333Y-127064819D01*
X72088333Y-127064819D02*
X71993095Y-127017200D01*
X71993095Y-127017200D02*
X71945476Y-126969580D01*
X70993095Y-70549819D02*
X70993095Y-69549819D01*
X70993095Y-70026009D02*
X71564523Y-70026009D01*
X71564523Y-70549819D02*
X71564523Y-69549819D01*
X71993095Y-69645057D02*
X72040714Y-69597438D01*
X72040714Y-69597438D02*
X72135952Y-69549819D01*
X72135952Y-69549819D02*
X72374047Y-69549819D01*
X72374047Y-69549819D02*
X72469285Y-69597438D01*
X72469285Y-69597438D02*
X72516904Y-69645057D01*
X72516904Y-69645057D02*
X72564523Y-69740295D01*
X72564523Y-69740295D02*
X72564523Y-69835533D01*
X72564523Y-69835533D02*
X72516904Y-69978390D01*
X72516904Y-69978390D02*
X71945476Y-70549819D01*
X71945476Y-70549819D02*
X72564523Y-70549819D01*
X108458095Y-43879819D02*
X108458095Y-42879819D01*
X108458095Y-43356009D02*
X109029523Y-43356009D01*
X109029523Y-43879819D02*
X109029523Y-42879819D01*
X110029523Y-43879819D02*
X109458095Y-43879819D01*
X109743809Y-43879819D02*
X109743809Y-42879819D01*
X109743809Y-42879819D02*
X109648571Y-43022676D01*
X109648571Y-43022676D02*
X109553333Y-43117914D01*
X109553333Y-43117914D02*
X109458095Y-43165533D01*
X98377142Y-32109580D02*
X98329523Y-32157200D01*
X98329523Y-32157200D02*
X98186666Y-32204819D01*
X98186666Y-32204819D02*
X98091428Y-32204819D01*
X98091428Y-32204819D02*
X97948571Y-32157200D01*
X97948571Y-32157200D02*
X97853333Y-32061961D01*
X97853333Y-32061961D02*
X97805714Y-31966723D01*
X97805714Y-31966723D02*
X97758095Y-31776247D01*
X97758095Y-31776247D02*
X97758095Y-31633390D01*
X97758095Y-31633390D02*
X97805714Y-31442914D01*
X97805714Y-31442914D02*
X97853333Y-31347676D01*
X97853333Y-31347676D02*
X97948571Y-31252438D01*
X97948571Y-31252438D02*
X98091428Y-31204819D01*
X98091428Y-31204819D02*
X98186666Y-31204819D01*
X98186666Y-31204819D02*
X98329523Y-31252438D01*
X98329523Y-31252438D02*
X98377142Y-31300057D01*
X99329523Y-32204819D02*
X98758095Y-32204819D01*
X99043809Y-32204819D02*
X99043809Y-31204819D01*
X99043809Y-31204819D02*
X98948571Y-31347676D01*
X98948571Y-31347676D02*
X98853333Y-31442914D01*
X98853333Y-31442914D02*
X98758095Y-31490533D01*
X99948571Y-31204819D02*
X100043809Y-31204819D01*
X100043809Y-31204819D02*
X100139047Y-31252438D01*
X100139047Y-31252438D02*
X100186666Y-31300057D01*
X100186666Y-31300057D02*
X100234285Y-31395295D01*
X100234285Y-31395295D02*
X100281904Y-31585771D01*
X100281904Y-31585771D02*
X100281904Y-31823866D01*
X100281904Y-31823866D02*
X100234285Y-32014342D01*
X100234285Y-32014342D02*
X100186666Y-32109580D01*
X100186666Y-32109580D02*
X100139047Y-32157200D01*
X100139047Y-32157200D02*
X100043809Y-32204819D01*
X100043809Y-32204819D02*
X99948571Y-32204819D01*
X99948571Y-32204819D02*
X99853333Y-32157200D01*
X99853333Y-32157200D02*
X99805714Y-32109580D01*
X99805714Y-32109580D02*
X99758095Y-32014342D01*
X99758095Y-32014342D02*
X99710476Y-31823866D01*
X99710476Y-31823866D02*
X99710476Y-31585771D01*
X99710476Y-31585771D02*
X99758095Y-31395295D01*
X99758095Y-31395295D02*
X99805714Y-31300057D01*
X99805714Y-31300057D02*
X99853333Y-31252438D01*
X99853333Y-31252438D02*
X99948571Y-31204819D01*
X77539580Y-67496666D02*
X77587200Y-67544285D01*
X77587200Y-67544285D02*
X77634819Y-67687142D01*
X77634819Y-67687142D02*
X77634819Y-67782380D01*
X77634819Y-67782380D02*
X77587200Y-67925237D01*
X77587200Y-67925237D02*
X77491961Y-68020475D01*
X77491961Y-68020475D02*
X77396723Y-68068094D01*
X77396723Y-68068094D02*
X77206247Y-68115713D01*
X77206247Y-68115713D02*
X77063390Y-68115713D01*
X77063390Y-68115713D02*
X76872914Y-68068094D01*
X76872914Y-68068094D02*
X76777676Y-68020475D01*
X76777676Y-68020475D02*
X76682438Y-67925237D01*
X76682438Y-67925237D02*
X76634819Y-67782380D01*
X76634819Y-67782380D02*
X76634819Y-67687142D01*
X76634819Y-67687142D02*
X76682438Y-67544285D01*
X76682438Y-67544285D02*
X76730057Y-67496666D01*
X76634819Y-66591904D02*
X76634819Y-67068094D01*
X76634819Y-67068094D02*
X77111009Y-67115713D01*
X77111009Y-67115713D02*
X77063390Y-67068094D01*
X77063390Y-67068094D02*
X77015771Y-66972856D01*
X77015771Y-66972856D02*
X77015771Y-66734761D01*
X77015771Y-66734761D02*
X77063390Y-66639523D01*
X77063390Y-66639523D02*
X77111009Y-66591904D01*
X77111009Y-66591904D02*
X77206247Y-66544285D01*
X77206247Y-66544285D02*
X77444342Y-66544285D01*
X77444342Y-66544285D02*
X77539580Y-66591904D01*
X77539580Y-66591904D02*
X77587200Y-66639523D01*
X77587200Y-66639523D02*
X77634819Y-66734761D01*
X77634819Y-66734761D02*
X77634819Y-66972856D01*
X77634819Y-66972856D02*
X77587200Y-67068094D01*
X77587200Y-67068094D02*
X77539580Y-67115713D01*
X88773333Y-150049580D02*
X88725714Y-150097200D01*
X88725714Y-150097200D02*
X88582857Y-150144819D01*
X88582857Y-150144819D02*
X88487619Y-150144819D01*
X88487619Y-150144819D02*
X88344762Y-150097200D01*
X88344762Y-150097200D02*
X88249524Y-150001961D01*
X88249524Y-150001961D02*
X88201905Y-149906723D01*
X88201905Y-149906723D02*
X88154286Y-149716247D01*
X88154286Y-149716247D02*
X88154286Y-149573390D01*
X88154286Y-149573390D02*
X88201905Y-149382914D01*
X88201905Y-149382914D02*
X88249524Y-149287676D01*
X88249524Y-149287676D02*
X88344762Y-149192438D01*
X88344762Y-149192438D02*
X88487619Y-149144819D01*
X88487619Y-149144819D02*
X88582857Y-149144819D01*
X88582857Y-149144819D02*
X88725714Y-149192438D01*
X88725714Y-149192438D02*
X88773333Y-149240057D01*
X89630476Y-149144819D02*
X89440000Y-149144819D01*
X89440000Y-149144819D02*
X89344762Y-149192438D01*
X89344762Y-149192438D02*
X89297143Y-149240057D01*
X89297143Y-149240057D02*
X89201905Y-149382914D01*
X89201905Y-149382914D02*
X89154286Y-149573390D01*
X89154286Y-149573390D02*
X89154286Y-149954342D01*
X89154286Y-149954342D02*
X89201905Y-150049580D01*
X89201905Y-150049580D02*
X89249524Y-150097200D01*
X89249524Y-150097200D02*
X89344762Y-150144819D01*
X89344762Y-150144819D02*
X89535238Y-150144819D01*
X89535238Y-150144819D02*
X89630476Y-150097200D01*
X89630476Y-150097200D02*
X89678095Y-150049580D01*
X89678095Y-150049580D02*
X89725714Y-149954342D01*
X89725714Y-149954342D02*
X89725714Y-149716247D01*
X89725714Y-149716247D02*
X89678095Y-149621009D01*
X89678095Y-149621009D02*
X89630476Y-149573390D01*
X89630476Y-149573390D02*
X89535238Y-149525771D01*
X89535238Y-149525771D02*
X89344762Y-149525771D01*
X89344762Y-149525771D02*
X89249524Y-149573390D01*
X89249524Y-149573390D02*
X89201905Y-149621009D01*
X89201905Y-149621009D02*
X89154286Y-149716247D01*
X81194819Y-59816904D02*
X82004342Y-59816904D01*
X82004342Y-59816904D02*
X82099580Y-59769285D01*
X82099580Y-59769285D02*
X82147200Y-59721666D01*
X82147200Y-59721666D02*
X82194819Y-59626428D01*
X82194819Y-59626428D02*
X82194819Y-59435952D01*
X82194819Y-59435952D02*
X82147200Y-59340714D01*
X82147200Y-59340714D02*
X82099580Y-59293095D01*
X82099580Y-59293095D02*
X82004342Y-59245476D01*
X82004342Y-59245476D02*
X81194819Y-59245476D01*
X81194819Y-58864523D02*
X81194819Y-58245476D01*
X81194819Y-58245476D02*
X81575771Y-58578809D01*
X81575771Y-58578809D02*
X81575771Y-58435952D01*
X81575771Y-58435952D02*
X81623390Y-58340714D01*
X81623390Y-58340714D02*
X81671009Y-58293095D01*
X81671009Y-58293095D02*
X81766247Y-58245476D01*
X81766247Y-58245476D02*
X82004342Y-58245476D01*
X82004342Y-58245476D02*
X82099580Y-58293095D01*
X82099580Y-58293095D02*
X82147200Y-58340714D01*
X82147200Y-58340714D02*
X82194819Y-58435952D01*
X82194819Y-58435952D02*
X82194819Y-58721666D01*
X82194819Y-58721666D02*
X82147200Y-58816904D01*
X82147200Y-58816904D02*
X82099580Y-58864523D01*
X81093333Y-160399580D02*
X81045714Y-160447200D01*
X81045714Y-160447200D02*
X80902857Y-160494819D01*
X80902857Y-160494819D02*
X80807619Y-160494819D01*
X80807619Y-160494819D02*
X80664762Y-160447200D01*
X80664762Y-160447200D02*
X80569524Y-160351961D01*
X80569524Y-160351961D02*
X80521905Y-160256723D01*
X80521905Y-160256723D02*
X80474286Y-160066247D01*
X80474286Y-160066247D02*
X80474286Y-159923390D01*
X80474286Y-159923390D02*
X80521905Y-159732914D01*
X80521905Y-159732914D02*
X80569524Y-159637676D01*
X80569524Y-159637676D02*
X80664762Y-159542438D01*
X80664762Y-159542438D02*
X80807619Y-159494819D01*
X80807619Y-159494819D02*
X80902857Y-159494819D01*
X80902857Y-159494819D02*
X81045714Y-159542438D01*
X81045714Y-159542438D02*
X81093333Y-159590057D01*
X81426667Y-159494819D02*
X82093333Y-159494819D01*
X82093333Y-159494819D02*
X81664762Y-160494819D01*
X82619580Y-67496666D02*
X82667200Y-67544285D01*
X82667200Y-67544285D02*
X82714819Y-67687142D01*
X82714819Y-67687142D02*
X82714819Y-67782380D01*
X82714819Y-67782380D02*
X82667200Y-67925237D01*
X82667200Y-67925237D02*
X82571961Y-68020475D01*
X82571961Y-68020475D02*
X82476723Y-68068094D01*
X82476723Y-68068094D02*
X82286247Y-68115713D01*
X82286247Y-68115713D02*
X82143390Y-68115713D01*
X82143390Y-68115713D02*
X81952914Y-68068094D01*
X81952914Y-68068094D02*
X81857676Y-68020475D01*
X81857676Y-68020475D02*
X81762438Y-67925237D01*
X81762438Y-67925237D02*
X81714819Y-67782380D01*
X81714819Y-67782380D02*
X81714819Y-67687142D01*
X81714819Y-67687142D02*
X81762438Y-67544285D01*
X81762438Y-67544285D02*
X81810057Y-67496666D01*
X82048152Y-66639523D02*
X82714819Y-66639523D01*
X81667200Y-66877618D02*
X82381485Y-67115713D01*
X82381485Y-67115713D02*
X82381485Y-66496666D01*
X99591905Y-25924819D02*
X99591905Y-24924819D01*
X99591905Y-24924819D02*
X99830000Y-24924819D01*
X99830000Y-24924819D02*
X99972857Y-24972438D01*
X99972857Y-24972438D02*
X100068095Y-25067676D01*
X100068095Y-25067676D02*
X100115714Y-25162914D01*
X100115714Y-25162914D02*
X100163333Y-25353390D01*
X100163333Y-25353390D02*
X100163333Y-25496247D01*
X100163333Y-25496247D02*
X100115714Y-25686723D01*
X100115714Y-25686723D02*
X100068095Y-25781961D01*
X100068095Y-25781961D02*
X99972857Y-25877200D01*
X99972857Y-25877200D02*
X99830000Y-25924819D01*
X99830000Y-25924819D02*
X99591905Y-25924819D01*
X101020476Y-24924819D02*
X100830000Y-24924819D01*
X100830000Y-24924819D02*
X100734762Y-24972438D01*
X100734762Y-24972438D02*
X100687143Y-25020057D01*
X100687143Y-25020057D02*
X100591905Y-25162914D01*
X100591905Y-25162914D02*
X100544286Y-25353390D01*
X100544286Y-25353390D02*
X100544286Y-25734342D01*
X100544286Y-25734342D02*
X100591905Y-25829580D01*
X100591905Y-25829580D02*
X100639524Y-25877200D01*
X100639524Y-25877200D02*
X100734762Y-25924819D01*
X100734762Y-25924819D02*
X100925238Y-25924819D01*
X100925238Y-25924819D02*
X101020476Y-25877200D01*
X101020476Y-25877200D02*
X101068095Y-25829580D01*
X101068095Y-25829580D02*
X101115714Y-25734342D01*
X101115714Y-25734342D02*
X101115714Y-25496247D01*
X101115714Y-25496247D02*
X101068095Y-25401009D01*
X101068095Y-25401009D02*
X101020476Y-25353390D01*
X101020476Y-25353390D02*
X100925238Y-25305771D01*
X100925238Y-25305771D02*
X100734762Y-25305771D01*
X100734762Y-25305771D02*
X100639524Y-25353390D01*
X100639524Y-25353390D02*
X100591905Y-25401009D01*
X100591905Y-25401009D02*
X100544286Y-25496247D01*
X96258095Y-26294819D02*
X96258095Y-25294819D01*
X96829523Y-26294819D02*
X96400952Y-25723390D01*
X96829523Y-25294819D02*
X96258095Y-25866247D01*
X69588095Y-140094819D02*
X69588095Y-139094819D01*
X70159523Y-140094819D02*
X69730952Y-139523390D01*
X70159523Y-139094819D02*
X69588095Y-139666247D01*
X89449819Y-59816904D02*
X90259342Y-59816904D01*
X90259342Y-59816904D02*
X90354580Y-59769285D01*
X90354580Y-59769285D02*
X90402200Y-59721666D01*
X90402200Y-59721666D02*
X90449819Y-59626428D01*
X90449819Y-59626428D02*
X90449819Y-59435952D01*
X90449819Y-59435952D02*
X90402200Y-59340714D01*
X90402200Y-59340714D02*
X90354580Y-59293095D01*
X90354580Y-59293095D02*
X90259342Y-59245476D01*
X90259342Y-59245476D02*
X89449819Y-59245476D01*
X89783152Y-58340714D02*
X90449819Y-58340714D01*
X89402200Y-58578809D02*
X90116485Y-58816904D01*
X90116485Y-58816904D02*
X90116485Y-58197857D01*
X76214819Y-97956666D02*
X75738628Y-98289999D01*
X76214819Y-98528094D02*
X75214819Y-98528094D01*
X75214819Y-98528094D02*
X75214819Y-98147142D01*
X75214819Y-98147142D02*
X75262438Y-98051904D01*
X75262438Y-98051904D02*
X75310057Y-98004285D01*
X75310057Y-98004285D02*
X75405295Y-97956666D01*
X75405295Y-97956666D02*
X75548152Y-97956666D01*
X75548152Y-97956666D02*
X75643390Y-98004285D01*
X75643390Y-98004285D02*
X75691009Y-98051904D01*
X75691009Y-98051904D02*
X75738628Y-98147142D01*
X75738628Y-98147142D02*
X75738628Y-98528094D01*
X75548152Y-97099523D02*
X76214819Y-97099523D01*
X75167200Y-97337618D02*
X75881485Y-97575713D01*
X75881485Y-97575713D02*
X75881485Y-96956666D01*
X88314819Y-97956666D02*
X87838628Y-98289999D01*
X88314819Y-98528094D02*
X87314819Y-98528094D01*
X87314819Y-98528094D02*
X87314819Y-98147142D01*
X87314819Y-98147142D02*
X87362438Y-98051904D01*
X87362438Y-98051904D02*
X87410057Y-98004285D01*
X87410057Y-98004285D02*
X87505295Y-97956666D01*
X87505295Y-97956666D02*
X87648152Y-97956666D01*
X87648152Y-97956666D02*
X87743390Y-98004285D01*
X87743390Y-98004285D02*
X87791009Y-98051904D01*
X87791009Y-98051904D02*
X87838628Y-98147142D01*
X87838628Y-98147142D02*
X87838628Y-98528094D01*
X87410057Y-97575713D02*
X87362438Y-97528094D01*
X87362438Y-97528094D02*
X87314819Y-97432856D01*
X87314819Y-97432856D02*
X87314819Y-97194761D01*
X87314819Y-97194761D02*
X87362438Y-97099523D01*
X87362438Y-97099523D02*
X87410057Y-97051904D01*
X87410057Y-97051904D02*
X87505295Y-97004285D01*
X87505295Y-97004285D02*
X87600533Y-97004285D01*
X87600533Y-97004285D02*
X87743390Y-97051904D01*
X87743390Y-97051904D02*
X88314819Y-97623332D01*
X88314819Y-97623332D02*
X88314819Y-97004285D01*
X105034819Y-174632857D02*
X104558628Y-174966190D01*
X105034819Y-175204285D02*
X104034819Y-175204285D01*
X104034819Y-175204285D02*
X104034819Y-174823333D01*
X104034819Y-174823333D02*
X104082438Y-174728095D01*
X104082438Y-174728095D02*
X104130057Y-174680476D01*
X104130057Y-174680476D02*
X104225295Y-174632857D01*
X104225295Y-174632857D02*
X104368152Y-174632857D01*
X104368152Y-174632857D02*
X104463390Y-174680476D01*
X104463390Y-174680476D02*
X104511009Y-174728095D01*
X104511009Y-174728095D02*
X104558628Y-174823333D01*
X104558628Y-174823333D02*
X104558628Y-175204285D01*
X105034819Y-173680476D02*
X105034819Y-174251904D01*
X105034819Y-173966190D02*
X104034819Y-173966190D01*
X104034819Y-173966190D02*
X104177676Y-174061428D01*
X104177676Y-174061428D02*
X104272914Y-174156666D01*
X104272914Y-174156666D02*
X104320533Y-174251904D01*
X104034819Y-173347142D02*
X104034819Y-172728095D01*
X104034819Y-172728095D02*
X104415771Y-173061428D01*
X104415771Y-173061428D02*
X104415771Y-172918571D01*
X104415771Y-172918571D02*
X104463390Y-172823333D01*
X104463390Y-172823333D02*
X104511009Y-172775714D01*
X104511009Y-172775714D02*
X104606247Y-172728095D01*
X104606247Y-172728095D02*
X104844342Y-172728095D01*
X104844342Y-172728095D02*
X104939580Y-172775714D01*
X104939580Y-172775714D02*
X104987200Y-172823333D01*
X104987200Y-172823333D02*
X105034819Y-172918571D01*
X105034819Y-172918571D02*
X105034819Y-173204285D01*
X105034819Y-173204285D02*
X104987200Y-173299523D01*
X104987200Y-173299523D02*
X104939580Y-173347142D01*
X99591905Y-33544819D02*
X99591905Y-32544819D01*
X99591905Y-32544819D02*
X99830000Y-32544819D01*
X99830000Y-32544819D02*
X99972857Y-32592438D01*
X99972857Y-32592438D02*
X100068095Y-32687676D01*
X100068095Y-32687676D02*
X100115714Y-32782914D01*
X100115714Y-32782914D02*
X100163333Y-32973390D01*
X100163333Y-32973390D02*
X100163333Y-33116247D01*
X100163333Y-33116247D02*
X100115714Y-33306723D01*
X100115714Y-33306723D02*
X100068095Y-33401961D01*
X100068095Y-33401961D02*
X99972857Y-33497200D01*
X99972857Y-33497200D02*
X99830000Y-33544819D01*
X99830000Y-33544819D02*
X99591905Y-33544819D01*
X101115714Y-33544819D02*
X100544286Y-33544819D01*
X100830000Y-33544819D02*
X100830000Y-32544819D01*
X100830000Y-32544819D02*
X100734762Y-32687676D01*
X100734762Y-32687676D02*
X100639524Y-32782914D01*
X100639524Y-32782914D02*
X100544286Y-32830533D01*
X96258095Y-33914819D02*
X96258095Y-32914819D01*
X96829523Y-33914819D02*
X96400952Y-33343390D01*
X96829523Y-32914819D02*
X96258095Y-33486247D01*
X97704819Y-59816904D02*
X98514342Y-59816904D01*
X98514342Y-59816904D02*
X98609580Y-59769285D01*
X98609580Y-59769285D02*
X98657200Y-59721666D01*
X98657200Y-59721666D02*
X98704819Y-59626428D01*
X98704819Y-59626428D02*
X98704819Y-59435952D01*
X98704819Y-59435952D02*
X98657200Y-59340714D01*
X98657200Y-59340714D02*
X98609580Y-59293095D01*
X98609580Y-59293095D02*
X98514342Y-59245476D01*
X98514342Y-59245476D02*
X97704819Y-59245476D01*
X97704819Y-58293095D02*
X97704819Y-58769285D01*
X97704819Y-58769285D02*
X98181009Y-58816904D01*
X98181009Y-58816904D02*
X98133390Y-58769285D01*
X98133390Y-58769285D02*
X98085771Y-58674047D01*
X98085771Y-58674047D02*
X98085771Y-58435952D01*
X98085771Y-58435952D02*
X98133390Y-58340714D01*
X98133390Y-58340714D02*
X98181009Y-58293095D01*
X98181009Y-58293095D02*
X98276247Y-58245476D01*
X98276247Y-58245476D02*
X98514342Y-58245476D01*
X98514342Y-58245476D02*
X98609580Y-58293095D01*
X98609580Y-58293095D02*
X98657200Y-58340714D01*
X98657200Y-58340714D02*
X98704819Y-58435952D01*
X98704819Y-58435952D02*
X98704819Y-58674047D01*
X98704819Y-58674047D02*
X98657200Y-58769285D01*
X98657200Y-58769285D02*
X98609580Y-58816904D01*
X98893333Y-39729580D02*
X98845714Y-39777200D01*
X98845714Y-39777200D02*
X98702857Y-39824819D01*
X98702857Y-39824819D02*
X98607619Y-39824819D01*
X98607619Y-39824819D02*
X98464762Y-39777200D01*
X98464762Y-39777200D02*
X98369524Y-39681961D01*
X98369524Y-39681961D02*
X98321905Y-39586723D01*
X98321905Y-39586723D02*
X98274286Y-39396247D01*
X98274286Y-39396247D02*
X98274286Y-39253390D01*
X98274286Y-39253390D02*
X98321905Y-39062914D01*
X98321905Y-39062914D02*
X98369524Y-38967676D01*
X98369524Y-38967676D02*
X98464762Y-38872438D01*
X98464762Y-38872438D02*
X98607619Y-38824819D01*
X98607619Y-38824819D02*
X98702857Y-38824819D01*
X98702857Y-38824819D02*
X98845714Y-38872438D01*
X98845714Y-38872438D02*
X98893333Y-38920057D01*
X99369524Y-39824819D02*
X99560000Y-39824819D01*
X99560000Y-39824819D02*
X99655238Y-39777200D01*
X99655238Y-39777200D02*
X99702857Y-39729580D01*
X99702857Y-39729580D02*
X99798095Y-39586723D01*
X99798095Y-39586723D02*
X99845714Y-39396247D01*
X99845714Y-39396247D02*
X99845714Y-39015295D01*
X99845714Y-39015295D02*
X99798095Y-38920057D01*
X99798095Y-38920057D02*
X99750476Y-38872438D01*
X99750476Y-38872438D02*
X99655238Y-38824819D01*
X99655238Y-38824819D02*
X99464762Y-38824819D01*
X99464762Y-38824819D02*
X99369524Y-38872438D01*
X99369524Y-38872438D02*
X99321905Y-38920057D01*
X99321905Y-38920057D02*
X99274286Y-39015295D01*
X99274286Y-39015295D02*
X99274286Y-39253390D01*
X99274286Y-39253390D02*
X99321905Y-39348628D01*
X99321905Y-39348628D02*
X99369524Y-39396247D01*
X99369524Y-39396247D02*
X99464762Y-39443866D01*
X99464762Y-39443866D02*
X99655238Y-39443866D01*
X99655238Y-39443866D02*
X99750476Y-39396247D01*
X99750476Y-39396247D02*
X99798095Y-39348628D01*
X99798095Y-39348628D02*
X99845714Y-39253390D01*
X91530057Y-83915238D02*
X91482438Y-84010476D01*
X91482438Y-84010476D02*
X91387200Y-84105714D01*
X91387200Y-84105714D02*
X91244342Y-84248571D01*
X91244342Y-84248571D02*
X91196723Y-84343809D01*
X91196723Y-84343809D02*
X91196723Y-84439047D01*
X91434819Y-84391428D02*
X91387200Y-84486666D01*
X91387200Y-84486666D02*
X91291961Y-84581904D01*
X91291961Y-84581904D02*
X91101485Y-84629523D01*
X91101485Y-84629523D02*
X90768152Y-84629523D01*
X90768152Y-84629523D02*
X90577676Y-84581904D01*
X90577676Y-84581904D02*
X90482438Y-84486666D01*
X90482438Y-84486666D02*
X90434819Y-84391428D01*
X90434819Y-84391428D02*
X90434819Y-84200952D01*
X90434819Y-84200952D02*
X90482438Y-84105714D01*
X90482438Y-84105714D02*
X90577676Y-84010476D01*
X90577676Y-84010476D02*
X90768152Y-83962857D01*
X90768152Y-83962857D02*
X91101485Y-83962857D01*
X91101485Y-83962857D02*
X91291961Y-84010476D01*
X91291961Y-84010476D02*
X91387200Y-84105714D01*
X91387200Y-84105714D02*
X91434819Y-84200952D01*
X91434819Y-84200952D02*
X91434819Y-84391428D01*
X90434819Y-83058095D02*
X90434819Y-83534285D01*
X90434819Y-83534285D02*
X90911009Y-83581904D01*
X90911009Y-83581904D02*
X90863390Y-83534285D01*
X90863390Y-83534285D02*
X90815771Y-83439047D01*
X90815771Y-83439047D02*
X90815771Y-83200952D01*
X90815771Y-83200952D02*
X90863390Y-83105714D01*
X90863390Y-83105714D02*
X90911009Y-83058095D01*
X90911009Y-83058095D02*
X91006247Y-83010476D01*
X91006247Y-83010476D02*
X91244342Y-83010476D01*
X91244342Y-83010476D02*
X91339580Y-83058095D01*
X91339580Y-83058095D02*
X91387200Y-83105714D01*
X91387200Y-83105714D02*
X91434819Y-83200952D01*
X91434819Y-83200952D02*
X91434819Y-83439047D01*
X91434819Y-83439047D02*
X91387200Y-83534285D01*
X91387200Y-83534285D02*
X91339580Y-83581904D01*
X76290057Y-83915238D02*
X76242438Y-84010476D01*
X76242438Y-84010476D02*
X76147200Y-84105714D01*
X76147200Y-84105714D02*
X76004342Y-84248571D01*
X76004342Y-84248571D02*
X75956723Y-84343809D01*
X75956723Y-84343809D02*
X75956723Y-84439047D01*
X76194819Y-84391428D02*
X76147200Y-84486666D01*
X76147200Y-84486666D02*
X76051961Y-84581904D01*
X76051961Y-84581904D02*
X75861485Y-84629523D01*
X75861485Y-84629523D02*
X75528152Y-84629523D01*
X75528152Y-84629523D02*
X75337676Y-84581904D01*
X75337676Y-84581904D02*
X75242438Y-84486666D01*
X75242438Y-84486666D02*
X75194819Y-84391428D01*
X75194819Y-84391428D02*
X75194819Y-84200952D01*
X75194819Y-84200952D02*
X75242438Y-84105714D01*
X75242438Y-84105714D02*
X75337676Y-84010476D01*
X75337676Y-84010476D02*
X75528152Y-83962857D01*
X75528152Y-83962857D02*
X75861485Y-83962857D01*
X75861485Y-83962857D02*
X76051961Y-84010476D01*
X76051961Y-84010476D02*
X76147200Y-84105714D01*
X76147200Y-84105714D02*
X76194819Y-84200952D01*
X76194819Y-84200952D02*
X76194819Y-84391428D01*
X75290057Y-83581904D02*
X75242438Y-83534285D01*
X75242438Y-83534285D02*
X75194819Y-83439047D01*
X75194819Y-83439047D02*
X75194819Y-83200952D01*
X75194819Y-83200952D02*
X75242438Y-83105714D01*
X75242438Y-83105714D02*
X75290057Y-83058095D01*
X75290057Y-83058095D02*
X75385295Y-83010476D01*
X75385295Y-83010476D02*
X75480533Y-83010476D01*
X75480533Y-83010476D02*
X75623390Y-83058095D01*
X75623390Y-83058095D02*
X76194819Y-83629523D01*
X76194819Y-83629523D02*
X76194819Y-83010476D01*
X105574819Y-136223333D02*
X106289104Y-136223333D01*
X106289104Y-136223333D02*
X106431961Y-136270952D01*
X106431961Y-136270952D02*
X106527200Y-136366190D01*
X106527200Y-136366190D02*
X106574819Y-136509047D01*
X106574819Y-136509047D02*
X106574819Y-136604285D01*
X105908152Y-135318571D02*
X106574819Y-135318571D01*
X105527200Y-135556666D02*
X106241485Y-135794761D01*
X106241485Y-135794761D02*
X106241485Y-135175714D01*
X68670057Y-83915238D02*
X68622438Y-84010476D01*
X68622438Y-84010476D02*
X68527200Y-84105714D01*
X68527200Y-84105714D02*
X68384342Y-84248571D01*
X68384342Y-84248571D02*
X68336723Y-84343809D01*
X68336723Y-84343809D02*
X68336723Y-84439047D01*
X68574819Y-84391428D02*
X68527200Y-84486666D01*
X68527200Y-84486666D02*
X68431961Y-84581904D01*
X68431961Y-84581904D02*
X68241485Y-84629523D01*
X68241485Y-84629523D02*
X67908152Y-84629523D01*
X67908152Y-84629523D02*
X67717676Y-84581904D01*
X67717676Y-84581904D02*
X67622438Y-84486666D01*
X67622438Y-84486666D02*
X67574819Y-84391428D01*
X67574819Y-84391428D02*
X67574819Y-84200952D01*
X67574819Y-84200952D02*
X67622438Y-84105714D01*
X67622438Y-84105714D02*
X67717676Y-84010476D01*
X67717676Y-84010476D02*
X67908152Y-83962857D01*
X67908152Y-83962857D02*
X68241485Y-83962857D01*
X68241485Y-83962857D02*
X68431961Y-84010476D01*
X68431961Y-84010476D02*
X68527200Y-84105714D01*
X68527200Y-84105714D02*
X68574819Y-84200952D01*
X68574819Y-84200952D02*
X68574819Y-84391428D01*
X67574819Y-83629523D02*
X67574819Y-83010476D01*
X67574819Y-83010476D02*
X67955771Y-83343809D01*
X67955771Y-83343809D02*
X67955771Y-83200952D01*
X67955771Y-83200952D02*
X68003390Y-83105714D01*
X68003390Y-83105714D02*
X68051009Y-83058095D01*
X68051009Y-83058095D02*
X68146247Y-83010476D01*
X68146247Y-83010476D02*
X68384342Y-83010476D01*
X68384342Y-83010476D02*
X68479580Y-83058095D01*
X68479580Y-83058095D02*
X68527200Y-83105714D01*
X68527200Y-83105714D02*
X68574819Y-83200952D01*
X68574819Y-83200952D02*
X68574819Y-83486666D01*
X68574819Y-83486666D02*
X68527200Y-83581904D01*
X68527200Y-83581904D02*
X68479580Y-83629523D01*
X66224819Y-154001904D02*
X67034342Y-154001904D01*
X67034342Y-154001904D02*
X67129580Y-153954285D01*
X67129580Y-153954285D02*
X67177200Y-153906666D01*
X67177200Y-153906666D02*
X67224819Y-153811428D01*
X67224819Y-153811428D02*
X67224819Y-153620952D01*
X67224819Y-153620952D02*
X67177200Y-153525714D01*
X67177200Y-153525714D02*
X67129580Y-153478095D01*
X67129580Y-153478095D02*
X67034342Y-153430476D01*
X67034342Y-153430476D02*
X66224819Y-153430476D01*
X66320057Y-153001904D02*
X66272438Y-152954285D01*
X66272438Y-152954285D02*
X66224819Y-152859047D01*
X66224819Y-152859047D02*
X66224819Y-152620952D01*
X66224819Y-152620952D02*
X66272438Y-152525714D01*
X66272438Y-152525714D02*
X66320057Y-152478095D01*
X66320057Y-152478095D02*
X66415295Y-152430476D01*
X66415295Y-152430476D02*
X66510533Y-152430476D01*
X66510533Y-152430476D02*
X66653390Y-152478095D01*
X66653390Y-152478095D02*
X67224819Y-153049523D01*
X67224819Y-153049523D02*
X67224819Y-152430476D01*
X75864819Y-73993333D02*
X76579104Y-73993333D01*
X76579104Y-73993333D02*
X76721961Y-74040952D01*
X76721961Y-74040952D02*
X76817200Y-74136190D01*
X76817200Y-74136190D02*
X76864819Y-74279047D01*
X76864819Y-74279047D02*
X76864819Y-74374285D01*
X75864819Y-73612380D02*
X75864819Y-72993333D01*
X75864819Y-72993333D02*
X76245771Y-73326666D01*
X76245771Y-73326666D02*
X76245771Y-73183809D01*
X76245771Y-73183809D02*
X76293390Y-73088571D01*
X76293390Y-73088571D02*
X76341009Y-73040952D01*
X76341009Y-73040952D02*
X76436247Y-72993333D01*
X76436247Y-72993333D02*
X76674342Y-72993333D01*
X76674342Y-72993333D02*
X76769580Y-73040952D01*
X76769580Y-73040952D02*
X76817200Y-73088571D01*
X76817200Y-73088571D02*
X76864819Y-73183809D01*
X76864819Y-73183809D02*
X76864819Y-73469523D01*
X76864819Y-73469523D02*
X76817200Y-73564761D01*
X76817200Y-73564761D02*
X76769580Y-73612380D01*
X105874819Y-32163333D02*
X106589104Y-32163333D01*
X106589104Y-32163333D02*
X106731961Y-32210952D01*
X106731961Y-32210952D02*
X106827200Y-32306190D01*
X106827200Y-32306190D02*
X106874819Y-32449047D01*
X106874819Y-32449047D02*
X106874819Y-32544285D01*
X105874819Y-31210952D02*
X105874819Y-31687142D01*
X105874819Y-31687142D02*
X106351009Y-31734761D01*
X106351009Y-31734761D02*
X106303390Y-31687142D01*
X106303390Y-31687142D02*
X106255771Y-31591904D01*
X106255771Y-31591904D02*
X106255771Y-31353809D01*
X106255771Y-31353809D02*
X106303390Y-31258571D01*
X106303390Y-31258571D02*
X106351009Y-31210952D01*
X106351009Y-31210952D02*
X106446247Y-31163333D01*
X106446247Y-31163333D02*
X106684342Y-31163333D01*
X106684342Y-31163333D02*
X106779580Y-31210952D01*
X106779580Y-31210952D02*
X106827200Y-31258571D01*
X106827200Y-31258571D02*
X106874819Y-31353809D01*
X106874819Y-31353809D02*
X106874819Y-31591904D01*
X106874819Y-31591904D02*
X106827200Y-31687142D01*
X106827200Y-31687142D02*
X106779580Y-31734761D01*
X82264819Y-97956666D02*
X81788628Y-98289999D01*
X82264819Y-98528094D02*
X81264819Y-98528094D01*
X81264819Y-98528094D02*
X81264819Y-98147142D01*
X81264819Y-98147142D02*
X81312438Y-98051904D01*
X81312438Y-98051904D02*
X81360057Y-98004285D01*
X81360057Y-98004285D02*
X81455295Y-97956666D01*
X81455295Y-97956666D02*
X81598152Y-97956666D01*
X81598152Y-97956666D02*
X81693390Y-98004285D01*
X81693390Y-98004285D02*
X81741009Y-98051904D01*
X81741009Y-98051904D02*
X81788628Y-98147142D01*
X81788628Y-98147142D02*
X81788628Y-98528094D01*
X81264819Y-97623332D02*
X81264819Y-97004285D01*
X81264819Y-97004285D02*
X81645771Y-97337618D01*
X81645771Y-97337618D02*
X81645771Y-97194761D01*
X81645771Y-97194761D02*
X81693390Y-97099523D01*
X81693390Y-97099523D02*
X81741009Y-97051904D01*
X81741009Y-97051904D02*
X81836247Y-97004285D01*
X81836247Y-97004285D02*
X82074342Y-97004285D01*
X82074342Y-97004285D02*
X82169580Y-97051904D01*
X82169580Y-97051904D02*
X82217200Y-97099523D01*
X82217200Y-97099523D02*
X82264819Y-97194761D01*
X82264819Y-97194761D02*
X82264819Y-97480475D01*
X82264819Y-97480475D02*
X82217200Y-97575713D01*
X82217200Y-97575713D02*
X82169580Y-97623332D01*
X83910057Y-83915238D02*
X83862438Y-84010476D01*
X83862438Y-84010476D02*
X83767200Y-84105714D01*
X83767200Y-84105714D02*
X83624342Y-84248571D01*
X83624342Y-84248571D02*
X83576723Y-84343809D01*
X83576723Y-84343809D02*
X83576723Y-84439047D01*
X83814819Y-84391428D02*
X83767200Y-84486666D01*
X83767200Y-84486666D02*
X83671961Y-84581904D01*
X83671961Y-84581904D02*
X83481485Y-84629523D01*
X83481485Y-84629523D02*
X83148152Y-84629523D01*
X83148152Y-84629523D02*
X82957676Y-84581904D01*
X82957676Y-84581904D02*
X82862438Y-84486666D01*
X82862438Y-84486666D02*
X82814819Y-84391428D01*
X82814819Y-84391428D02*
X82814819Y-84200952D01*
X82814819Y-84200952D02*
X82862438Y-84105714D01*
X82862438Y-84105714D02*
X82957676Y-84010476D01*
X82957676Y-84010476D02*
X83148152Y-83962857D01*
X83148152Y-83962857D02*
X83481485Y-83962857D01*
X83481485Y-83962857D02*
X83671961Y-84010476D01*
X83671961Y-84010476D02*
X83767200Y-84105714D01*
X83767200Y-84105714D02*
X83814819Y-84200952D01*
X83814819Y-84200952D02*
X83814819Y-84391428D01*
X83814819Y-83010476D02*
X83814819Y-83581904D01*
X83814819Y-83296190D02*
X82814819Y-83296190D01*
X82814819Y-83296190D02*
X82957676Y-83391428D01*
X82957676Y-83391428D02*
X83052914Y-83486666D01*
X83052914Y-83486666D02*
X83100533Y-83581904D01*
X77894166Y-169214819D02*
X77894166Y-169929104D01*
X77894166Y-169929104D02*
X77846547Y-170071961D01*
X77846547Y-170071961D02*
X77751309Y-170167200D01*
X77751309Y-170167200D02*
X77608452Y-170214819D01*
X77608452Y-170214819D02*
X77513214Y-170214819D01*
X78322738Y-169310057D02*
X78370357Y-169262438D01*
X78370357Y-169262438D02*
X78465595Y-169214819D01*
X78465595Y-169214819D02*
X78703690Y-169214819D01*
X78703690Y-169214819D02*
X78798928Y-169262438D01*
X78798928Y-169262438D02*
X78846547Y-169310057D01*
X78846547Y-169310057D02*
X78894166Y-169405295D01*
X78894166Y-169405295D02*
X78894166Y-169500533D01*
X78894166Y-169500533D02*
X78846547Y-169643390D01*
X78846547Y-169643390D02*
X78275119Y-170214819D01*
X78275119Y-170214819D02*
X78894166Y-170214819D01*
X71954728Y-170399580D02*
X71907109Y-170447200D01*
X71907109Y-170447200D02*
X71764252Y-170494819D01*
X71764252Y-170494819D02*
X71669014Y-170494819D01*
X71669014Y-170494819D02*
X71526157Y-170447200D01*
X71526157Y-170447200D02*
X71430919Y-170351961D01*
X71430919Y-170351961D02*
X71383300Y-170256723D01*
X71383300Y-170256723D02*
X71335681Y-170066247D01*
X71335681Y-170066247D02*
X71335681Y-169923390D01*
X71335681Y-169923390D02*
X71383300Y-169732914D01*
X71383300Y-169732914D02*
X71430919Y-169637676D01*
X71430919Y-169637676D02*
X71526157Y-169542438D01*
X71526157Y-169542438D02*
X71669014Y-169494819D01*
X71669014Y-169494819D02*
X71764252Y-169494819D01*
X71764252Y-169494819D02*
X71907109Y-169542438D01*
X71907109Y-169542438D02*
X71954728Y-169590057D01*
X72907109Y-170494819D02*
X72335681Y-170494819D01*
X72621395Y-170494819D02*
X72621395Y-169494819D01*
X72621395Y-169494819D02*
X72526157Y-169637676D01*
X72526157Y-169637676D02*
X72430919Y-169732914D01*
X72430919Y-169732914D02*
X72335681Y-169780533D01*
X92779580Y-67496666D02*
X92827200Y-67544285D01*
X92827200Y-67544285D02*
X92874819Y-67687142D01*
X92874819Y-67687142D02*
X92874819Y-67782380D01*
X92874819Y-67782380D02*
X92827200Y-67925237D01*
X92827200Y-67925237D02*
X92731961Y-68020475D01*
X92731961Y-68020475D02*
X92636723Y-68068094D01*
X92636723Y-68068094D02*
X92446247Y-68115713D01*
X92446247Y-68115713D02*
X92303390Y-68115713D01*
X92303390Y-68115713D02*
X92112914Y-68068094D01*
X92112914Y-68068094D02*
X92017676Y-68020475D01*
X92017676Y-68020475D02*
X91922438Y-67925237D01*
X91922438Y-67925237D02*
X91874819Y-67782380D01*
X91874819Y-67782380D02*
X91874819Y-67687142D01*
X91874819Y-67687142D02*
X91922438Y-67544285D01*
X91922438Y-67544285D02*
X91970057Y-67496666D01*
X91970057Y-67115713D02*
X91922438Y-67068094D01*
X91922438Y-67068094D02*
X91874819Y-66972856D01*
X91874819Y-66972856D02*
X91874819Y-66734761D01*
X91874819Y-66734761D02*
X91922438Y-66639523D01*
X91922438Y-66639523D02*
X91970057Y-66591904D01*
X91970057Y-66591904D02*
X92065295Y-66544285D01*
X92065295Y-66544285D02*
X92160533Y-66544285D01*
X92160533Y-66544285D02*
X92303390Y-66591904D01*
X92303390Y-66591904D02*
X92874819Y-67163332D01*
X92874819Y-67163332D02*
X92874819Y-66544285D01*
X112167200Y-149923332D02*
X112214819Y-149780475D01*
X112214819Y-149780475D02*
X112214819Y-149542380D01*
X112214819Y-149542380D02*
X112167200Y-149447142D01*
X112167200Y-149447142D02*
X112119580Y-149399523D01*
X112119580Y-149399523D02*
X112024342Y-149351904D01*
X112024342Y-149351904D02*
X111929104Y-149351904D01*
X111929104Y-149351904D02*
X111833866Y-149399523D01*
X111833866Y-149399523D02*
X111786247Y-149447142D01*
X111786247Y-149447142D02*
X111738628Y-149542380D01*
X111738628Y-149542380D02*
X111691009Y-149732856D01*
X111691009Y-149732856D02*
X111643390Y-149828094D01*
X111643390Y-149828094D02*
X111595771Y-149875713D01*
X111595771Y-149875713D02*
X111500533Y-149923332D01*
X111500533Y-149923332D02*
X111405295Y-149923332D01*
X111405295Y-149923332D02*
X111310057Y-149875713D01*
X111310057Y-149875713D02*
X111262438Y-149828094D01*
X111262438Y-149828094D02*
X111214819Y-149732856D01*
X111214819Y-149732856D02*
X111214819Y-149494761D01*
X111214819Y-149494761D02*
X111262438Y-149351904D01*
X111214819Y-149018570D02*
X112214819Y-148780475D01*
X112214819Y-148780475D02*
X111500533Y-148589999D01*
X111500533Y-148589999D02*
X112214819Y-148399523D01*
X112214819Y-148399523D02*
X111214819Y-148161428D01*
X111310057Y-147828094D02*
X111262438Y-147780475D01*
X111262438Y-147780475D02*
X111214819Y-147685237D01*
X111214819Y-147685237D02*
X111214819Y-147447142D01*
X111214819Y-147447142D02*
X111262438Y-147351904D01*
X111262438Y-147351904D02*
X111310057Y-147304285D01*
X111310057Y-147304285D02*
X111405295Y-147256666D01*
X111405295Y-147256666D02*
X111500533Y-147256666D01*
X111500533Y-147256666D02*
X111643390Y-147304285D01*
X111643390Y-147304285D02*
X112214819Y-147875713D01*
X112214819Y-147875713D02*
X112214819Y-147256666D01*
X98893333Y-47349580D02*
X98845714Y-47397200D01*
X98845714Y-47397200D02*
X98702857Y-47444819D01*
X98702857Y-47444819D02*
X98607619Y-47444819D01*
X98607619Y-47444819D02*
X98464762Y-47397200D01*
X98464762Y-47397200D02*
X98369524Y-47301961D01*
X98369524Y-47301961D02*
X98321905Y-47206723D01*
X98321905Y-47206723D02*
X98274286Y-47016247D01*
X98274286Y-47016247D02*
X98274286Y-46873390D01*
X98274286Y-46873390D02*
X98321905Y-46682914D01*
X98321905Y-46682914D02*
X98369524Y-46587676D01*
X98369524Y-46587676D02*
X98464762Y-46492438D01*
X98464762Y-46492438D02*
X98607619Y-46444819D01*
X98607619Y-46444819D02*
X98702857Y-46444819D01*
X98702857Y-46444819D02*
X98845714Y-46492438D01*
X98845714Y-46492438D02*
X98893333Y-46540057D01*
X99464762Y-46873390D02*
X99369524Y-46825771D01*
X99369524Y-46825771D02*
X99321905Y-46778152D01*
X99321905Y-46778152D02*
X99274286Y-46682914D01*
X99274286Y-46682914D02*
X99274286Y-46635295D01*
X99274286Y-46635295D02*
X99321905Y-46540057D01*
X99321905Y-46540057D02*
X99369524Y-46492438D01*
X99369524Y-46492438D02*
X99464762Y-46444819D01*
X99464762Y-46444819D02*
X99655238Y-46444819D01*
X99655238Y-46444819D02*
X99750476Y-46492438D01*
X99750476Y-46492438D02*
X99798095Y-46540057D01*
X99798095Y-46540057D02*
X99845714Y-46635295D01*
X99845714Y-46635295D02*
X99845714Y-46682914D01*
X99845714Y-46682914D02*
X99798095Y-46778152D01*
X99798095Y-46778152D02*
X99750476Y-46825771D01*
X99750476Y-46825771D02*
X99655238Y-46873390D01*
X99655238Y-46873390D02*
X99464762Y-46873390D01*
X99464762Y-46873390D02*
X99369524Y-46921009D01*
X99369524Y-46921009D02*
X99321905Y-46968628D01*
X99321905Y-46968628D02*
X99274286Y-47063866D01*
X99274286Y-47063866D02*
X99274286Y-47254342D01*
X99274286Y-47254342D02*
X99321905Y-47349580D01*
X99321905Y-47349580D02*
X99369524Y-47397200D01*
X99369524Y-47397200D02*
X99464762Y-47444819D01*
X99464762Y-47444819D02*
X99655238Y-47444819D01*
X99655238Y-47444819D02*
X99750476Y-47397200D01*
X99750476Y-47397200D02*
X99798095Y-47349580D01*
X99798095Y-47349580D02*
X99845714Y-47254342D01*
X99845714Y-47254342D02*
X99845714Y-47063866D01*
X99845714Y-47063866D02*
X99798095Y-46968628D01*
X99798095Y-46968628D02*
X99750476Y-46921009D01*
X99750476Y-46921009D02*
X99655238Y-46873390D01*
X103497142Y-167999580D02*
X103449523Y-168047200D01*
X103449523Y-168047200D02*
X103306666Y-168094819D01*
X103306666Y-168094819D02*
X103211428Y-168094819D01*
X103211428Y-168094819D02*
X103068571Y-168047200D01*
X103068571Y-168047200D02*
X102973333Y-167951961D01*
X102973333Y-167951961D02*
X102925714Y-167856723D01*
X102925714Y-167856723D02*
X102878095Y-167666247D01*
X102878095Y-167666247D02*
X102878095Y-167523390D01*
X102878095Y-167523390D02*
X102925714Y-167332914D01*
X102925714Y-167332914D02*
X102973333Y-167237676D01*
X102973333Y-167237676D02*
X103068571Y-167142438D01*
X103068571Y-167142438D02*
X103211428Y-167094819D01*
X103211428Y-167094819D02*
X103306666Y-167094819D01*
X103306666Y-167094819D02*
X103449523Y-167142438D01*
X103449523Y-167142438D02*
X103497142Y-167190057D01*
X104449523Y-168094819D02*
X103878095Y-168094819D01*
X104163809Y-168094819D02*
X104163809Y-167094819D01*
X104163809Y-167094819D02*
X104068571Y-167237676D01*
X104068571Y-167237676D02*
X103973333Y-167332914D01*
X103973333Y-167332914D02*
X103878095Y-167380533D01*
X104830476Y-167190057D02*
X104878095Y-167142438D01*
X104878095Y-167142438D02*
X104973333Y-167094819D01*
X104973333Y-167094819D02*
X105211428Y-167094819D01*
X105211428Y-167094819D02*
X105306666Y-167142438D01*
X105306666Y-167142438D02*
X105354285Y-167190057D01*
X105354285Y-167190057D02*
X105401904Y-167285295D01*
X105401904Y-167285295D02*
X105401904Y-167380533D01*
X105401904Y-167380533D02*
X105354285Y-167523390D01*
X105354285Y-167523390D02*
X104782857Y-168094819D01*
X104782857Y-168094819D02*
X105401904Y-168094819D01*
X73899819Y-59816904D02*
X74709342Y-59816904D01*
X74709342Y-59816904D02*
X74804580Y-59769285D01*
X74804580Y-59769285D02*
X74852200Y-59721666D01*
X74852200Y-59721666D02*
X74899819Y-59626428D01*
X74899819Y-59626428D02*
X74899819Y-59435952D01*
X74899819Y-59435952D02*
X74852200Y-59340714D01*
X74852200Y-59340714D02*
X74804580Y-59293095D01*
X74804580Y-59293095D02*
X74709342Y-59245476D01*
X74709342Y-59245476D02*
X73899819Y-59245476D01*
X74899819Y-58245476D02*
X74899819Y-58816904D01*
X74899819Y-58531190D02*
X73899819Y-58531190D01*
X73899819Y-58531190D02*
X74042676Y-58626428D01*
X74042676Y-58626428D02*
X74137914Y-58721666D01*
X74137914Y-58721666D02*
X74185533Y-58816904D01*
X94364819Y-97956666D02*
X93888628Y-98289999D01*
X94364819Y-98528094D02*
X93364819Y-98528094D01*
X93364819Y-98528094D02*
X93364819Y-98147142D01*
X93364819Y-98147142D02*
X93412438Y-98051904D01*
X93412438Y-98051904D02*
X93460057Y-98004285D01*
X93460057Y-98004285D02*
X93555295Y-97956666D01*
X93555295Y-97956666D02*
X93698152Y-97956666D01*
X93698152Y-97956666D02*
X93793390Y-98004285D01*
X93793390Y-98004285D02*
X93841009Y-98051904D01*
X93841009Y-98051904D02*
X93888628Y-98147142D01*
X93888628Y-98147142D02*
X93888628Y-98528094D01*
X94364819Y-97004285D02*
X94364819Y-97575713D01*
X94364819Y-97289999D02*
X93364819Y-97289999D01*
X93364819Y-97289999D02*
X93507676Y-97385237D01*
X93507676Y-97385237D02*
X93602914Y-97480475D01*
X93602914Y-97480475D02*
X93650533Y-97575713D01*
X99591905Y-41164819D02*
X99591905Y-40164819D01*
X99591905Y-40164819D02*
X99830000Y-40164819D01*
X99830000Y-40164819D02*
X99972857Y-40212438D01*
X99972857Y-40212438D02*
X100068095Y-40307676D01*
X100068095Y-40307676D02*
X100115714Y-40402914D01*
X100115714Y-40402914D02*
X100163333Y-40593390D01*
X100163333Y-40593390D02*
X100163333Y-40736247D01*
X100163333Y-40736247D02*
X100115714Y-40926723D01*
X100115714Y-40926723D02*
X100068095Y-41021961D01*
X100068095Y-41021961D02*
X99972857Y-41117200D01*
X99972857Y-41117200D02*
X99830000Y-41164819D01*
X99830000Y-41164819D02*
X99591905Y-41164819D01*
X100496667Y-40164819D02*
X101115714Y-40164819D01*
X101115714Y-40164819D02*
X100782381Y-40545771D01*
X100782381Y-40545771D02*
X100925238Y-40545771D01*
X100925238Y-40545771D02*
X101020476Y-40593390D01*
X101020476Y-40593390D02*
X101068095Y-40641009D01*
X101068095Y-40641009D02*
X101115714Y-40736247D01*
X101115714Y-40736247D02*
X101115714Y-40974342D01*
X101115714Y-40974342D02*
X101068095Y-41069580D01*
X101068095Y-41069580D02*
X101020476Y-41117200D01*
X101020476Y-41117200D02*
X100925238Y-41164819D01*
X100925238Y-41164819D02*
X100639524Y-41164819D01*
X100639524Y-41164819D02*
X100544286Y-41117200D01*
X100544286Y-41117200D02*
X100496667Y-41069580D01*
X96258095Y-41534819D02*
X96258095Y-40534819D01*
X96829523Y-41534819D02*
X96400952Y-40963390D01*
X96829523Y-40534819D02*
X96258095Y-41106247D01*
X71665180Y-113038095D02*
X70855657Y-113038095D01*
X70855657Y-113038095D02*
X70760419Y-113085714D01*
X70760419Y-113085714D02*
X70712800Y-113133333D01*
X70712800Y-113133333D02*
X70665180Y-113228571D01*
X70665180Y-113228571D02*
X70665180Y-113419047D01*
X70665180Y-113419047D02*
X70712800Y-113514285D01*
X70712800Y-113514285D02*
X70760419Y-113561904D01*
X70760419Y-113561904D02*
X70855657Y-113609523D01*
X70855657Y-113609523D02*
X71665180Y-113609523D01*
X70712800Y-114038095D02*
X70665180Y-114180952D01*
X70665180Y-114180952D02*
X70665180Y-114419047D01*
X70665180Y-114419047D02*
X70712800Y-114514285D01*
X70712800Y-114514285D02*
X70760419Y-114561904D01*
X70760419Y-114561904D02*
X70855657Y-114609523D01*
X70855657Y-114609523D02*
X70950895Y-114609523D01*
X70950895Y-114609523D02*
X71046133Y-114561904D01*
X71046133Y-114561904D02*
X71093752Y-114514285D01*
X71093752Y-114514285D02*
X71141371Y-114419047D01*
X71141371Y-114419047D02*
X71188990Y-114228571D01*
X71188990Y-114228571D02*
X71236609Y-114133333D01*
X71236609Y-114133333D02*
X71284228Y-114085714D01*
X71284228Y-114085714D02*
X71379466Y-114038095D01*
X71379466Y-114038095D02*
X71474704Y-114038095D01*
X71474704Y-114038095D02*
X71569942Y-114085714D01*
X71569942Y-114085714D02*
X71617561Y-114133333D01*
X71617561Y-114133333D02*
X71665180Y-114228571D01*
X71665180Y-114228571D02*
X71665180Y-114466666D01*
X71665180Y-114466666D02*
X71617561Y-114609523D01*
X71188990Y-115371428D02*
X71141371Y-115514285D01*
X71141371Y-115514285D02*
X71093752Y-115561904D01*
X71093752Y-115561904D02*
X70998514Y-115609523D01*
X70998514Y-115609523D02*
X70855657Y-115609523D01*
X70855657Y-115609523D02*
X70760419Y-115561904D01*
X70760419Y-115561904D02*
X70712800Y-115514285D01*
X70712800Y-115514285D02*
X70665180Y-115419047D01*
X70665180Y-115419047D02*
X70665180Y-115038095D01*
X70665180Y-115038095D02*
X71665180Y-115038095D01*
X71665180Y-115038095D02*
X71665180Y-115371428D01*
X71665180Y-115371428D02*
X71617561Y-115466666D01*
X71617561Y-115466666D02*
X71569942Y-115514285D01*
X71569942Y-115514285D02*
X71474704Y-115561904D01*
X71474704Y-115561904D02*
X71379466Y-115561904D01*
X71379466Y-115561904D02*
X71284228Y-115514285D01*
X71284228Y-115514285D02*
X71236609Y-115466666D01*
X71236609Y-115466666D02*
X71188990Y-115371428D01*
X71188990Y-115371428D02*
X71188990Y-115038095D01*
X87699580Y-67496666D02*
X87747200Y-67544285D01*
X87747200Y-67544285D02*
X87794819Y-67687142D01*
X87794819Y-67687142D02*
X87794819Y-67782380D01*
X87794819Y-67782380D02*
X87747200Y-67925237D01*
X87747200Y-67925237D02*
X87651961Y-68020475D01*
X87651961Y-68020475D02*
X87556723Y-68068094D01*
X87556723Y-68068094D02*
X87366247Y-68115713D01*
X87366247Y-68115713D02*
X87223390Y-68115713D01*
X87223390Y-68115713D02*
X87032914Y-68068094D01*
X87032914Y-68068094D02*
X86937676Y-68020475D01*
X86937676Y-68020475D02*
X86842438Y-67925237D01*
X86842438Y-67925237D02*
X86794819Y-67782380D01*
X86794819Y-67782380D02*
X86794819Y-67687142D01*
X86794819Y-67687142D02*
X86842438Y-67544285D01*
X86842438Y-67544285D02*
X86890057Y-67496666D01*
X86794819Y-67163332D02*
X86794819Y-66544285D01*
X86794819Y-66544285D02*
X87175771Y-66877618D01*
X87175771Y-66877618D02*
X87175771Y-66734761D01*
X87175771Y-66734761D02*
X87223390Y-66639523D01*
X87223390Y-66639523D02*
X87271009Y-66591904D01*
X87271009Y-66591904D02*
X87366247Y-66544285D01*
X87366247Y-66544285D02*
X87604342Y-66544285D01*
X87604342Y-66544285D02*
X87699580Y-66591904D01*
X87699580Y-66591904D02*
X87747200Y-66639523D01*
X87747200Y-66639523D02*
X87794819Y-66734761D01*
X87794819Y-66734761D02*
X87794819Y-67020475D01*
X87794819Y-67020475D02*
X87747200Y-67115713D01*
X87747200Y-67115713D02*
X87699580Y-67163332D01*
X98377142Y-24489580D02*
X98329523Y-24537200D01*
X98329523Y-24537200D02*
X98186666Y-24584819D01*
X98186666Y-24584819D02*
X98091428Y-24584819D01*
X98091428Y-24584819D02*
X97948571Y-24537200D01*
X97948571Y-24537200D02*
X97853333Y-24441961D01*
X97853333Y-24441961D02*
X97805714Y-24346723D01*
X97805714Y-24346723D02*
X97758095Y-24156247D01*
X97758095Y-24156247D02*
X97758095Y-24013390D01*
X97758095Y-24013390D02*
X97805714Y-23822914D01*
X97805714Y-23822914D02*
X97853333Y-23727676D01*
X97853333Y-23727676D02*
X97948571Y-23632438D01*
X97948571Y-23632438D02*
X98091428Y-23584819D01*
X98091428Y-23584819D02*
X98186666Y-23584819D01*
X98186666Y-23584819D02*
X98329523Y-23632438D01*
X98329523Y-23632438D02*
X98377142Y-23680057D01*
X99329523Y-24584819D02*
X98758095Y-24584819D01*
X99043809Y-24584819D02*
X99043809Y-23584819D01*
X99043809Y-23584819D02*
X98948571Y-23727676D01*
X98948571Y-23727676D02*
X98853333Y-23822914D01*
X98853333Y-23822914D02*
X98758095Y-23870533D01*
X100281904Y-24584819D02*
X99710476Y-24584819D01*
X99996190Y-24584819D02*
X99996190Y-23584819D01*
X99996190Y-23584819D02*
X99900952Y-23727676D01*
X99900952Y-23727676D02*
X99805714Y-23822914D01*
X99805714Y-23822914D02*
X99710476Y-23870533D01*
X99591905Y-49419819D02*
X99591905Y-48419819D01*
X99591905Y-48419819D02*
X99830000Y-48419819D01*
X99830000Y-48419819D02*
X99972857Y-48467438D01*
X99972857Y-48467438D02*
X100068095Y-48562676D01*
X100068095Y-48562676D02*
X100115714Y-48657914D01*
X100115714Y-48657914D02*
X100163333Y-48848390D01*
X100163333Y-48848390D02*
X100163333Y-48991247D01*
X100163333Y-48991247D02*
X100115714Y-49181723D01*
X100115714Y-49181723D02*
X100068095Y-49276961D01*
X100068095Y-49276961D02*
X99972857Y-49372200D01*
X99972857Y-49372200D02*
X99830000Y-49419819D01*
X99830000Y-49419819D02*
X99591905Y-49419819D01*
X101020476Y-48753152D02*
X101020476Y-49419819D01*
X100782381Y-48372200D02*
X100544286Y-49086485D01*
X100544286Y-49086485D02*
X101163333Y-49086485D01*
X96258095Y-49789819D02*
X96258095Y-48789819D01*
X96829523Y-49789819D02*
X96400952Y-49218390D01*
X96829523Y-48789819D02*
X96258095Y-49361247D01*
D11*
X101230000Y-30695000D02*
X101230000Y-30630000D01*
X101230000Y-32870000D02*
X101230000Y-32805000D01*
X104470000Y-30630000D02*
X101230000Y-30630000D01*
X104470000Y-30695000D02*
X104470000Y-30630000D01*
X104470000Y-32870000D02*
X101230000Y-32870000D01*
X104470000Y-32870000D02*
X104470000Y-32805000D01*
X73810000Y-65710000D02*
X73810000Y-68950000D01*
X73875000Y-65710000D02*
X73810000Y-65710000D01*
X73875000Y-68950000D02*
X73810000Y-68950000D01*
X76050000Y-65710000D02*
X75985000Y-65710000D01*
X76050000Y-65710000D02*
X76050000Y-68950000D01*
X76050000Y-68950000D02*
X75985000Y-68950000D01*
X84530302Y-152625000D02*
X85330302Y-152625000D01*
X84930302Y-152225000D02*
X84930302Y-153025000D01*
X88940000Y-150860000D02*
X88940000Y-159020000D01*
X88980000Y-150860000D02*
X88980000Y-159020000D01*
X89020000Y-150860000D02*
X89020000Y-159020000D01*
X89060000Y-150861000D02*
X89060000Y-159019000D01*
X89100000Y-150863000D02*
X89100000Y-159017000D01*
X89140000Y-150864000D02*
X89140000Y-159016000D01*
X89180000Y-150866000D02*
X89180000Y-159014000D01*
X89220000Y-150869000D02*
X89220000Y-159011000D01*
X89260000Y-150872000D02*
X89260000Y-159008000D01*
X89300000Y-150875000D02*
X89300000Y-159005000D01*
X89340000Y-150879000D02*
X89340000Y-159001000D01*
X89380000Y-150883000D02*
X89380000Y-158997000D01*
X89420000Y-150888000D02*
X89420000Y-158992000D01*
X89460000Y-150892000D02*
X89460000Y-158988000D01*
X89500000Y-150898000D02*
X89500000Y-158982000D01*
X89540000Y-150903000D02*
X89540000Y-158977000D01*
X89580000Y-150910000D02*
X89580000Y-158970000D01*
X89620000Y-150916000D02*
X89620000Y-158964000D01*
X89661000Y-150923000D02*
X89661000Y-158957000D01*
X89701000Y-150930000D02*
X89701000Y-158950000D01*
X89741000Y-150938000D02*
X89741000Y-158942000D01*
X89781000Y-150946000D02*
X89781000Y-158934000D01*
X89821000Y-150955000D02*
X89821000Y-158925000D01*
X89861000Y-150964000D02*
X89861000Y-158916000D01*
X89901000Y-150973000D02*
X89901000Y-158907000D01*
X89941000Y-150983000D02*
X89941000Y-158897000D01*
X89981000Y-150993000D02*
X89981000Y-158887000D01*
X90021000Y-151004000D02*
X90021000Y-158876000D01*
X90061000Y-151015000D02*
X90061000Y-158865000D01*
X90101000Y-151026000D02*
X90101000Y-158854000D01*
X90141000Y-151038000D02*
X90141000Y-158842000D01*
X90181000Y-151051000D02*
X90181000Y-158829000D01*
X90221000Y-151063000D02*
X90221000Y-158817000D01*
X90261000Y-151077000D02*
X90261000Y-158803000D01*
X90301000Y-151090000D02*
X90301000Y-158790000D01*
X90341000Y-151105000D02*
X90341000Y-158775000D01*
X90381000Y-151119000D02*
X90381000Y-158761000D01*
X90421000Y-151135000D02*
X90421000Y-153900000D01*
X90421000Y-155980000D02*
X90421000Y-158745000D01*
X90461000Y-151150000D02*
X90461000Y-153900000D01*
X90461000Y-155980000D02*
X90461000Y-158730000D01*
X90501000Y-151166000D02*
X90501000Y-153900000D01*
X90501000Y-155980000D02*
X90501000Y-158714000D01*
X90541000Y-151183000D02*
X90541000Y-153900000D01*
X90541000Y-155980000D02*
X90541000Y-158697000D01*
X90581000Y-151200000D02*
X90581000Y-153900000D01*
X90581000Y-155980000D02*
X90581000Y-158680000D01*
X90621000Y-151218000D02*
X90621000Y-153900000D01*
X90621000Y-155980000D02*
X90621000Y-158662000D01*
X90661000Y-151236000D02*
X90661000Y-153900000D01*
X90661000Y-155980000D02*
X90661000Y-158644000D01*
X90701000Y-151254000D02*
X90701000Y-153900000D01*
X90701000Y-155980000D02*
X90701000Y-158626000D01*
X90741000Y-151274000D02*
X90741000Y-153900000D01*
X90741000Y-155980000D02*
X90741000Y-158606000D01*
X90781000Y-151293000D02*
X90781000Y-153900000D01*
X90781000Y-155980000D02*
X90781000Y-158587000D01*
X90821000Y-151313000D02*
X90821000Y-153900000D01*
X90821000Y-155980000D02*
X90821000Y-158567000D01*
X90861000Y-151334000D02*
X90861000Y-153900000D01*
X90861000Y-155980000D02*
X90861000Y-158546000D01*
X90901000Y-151356000D02*
X90901000Y-153900000D01*
X90901000Y-155980000D02*
X90901000Y-158524000D01*
X90941000Y-151378000D02*
X90941000Y-153900000D01*
X90941000Y-155980000D02*
X90941000Y-158502000D01*
X90981000Y-151400000D02*
X90981000Y-153900000D01*
X90981000Y-155980000D02*
X90981000Y-158480000D01*
X91021000Y-151423000D02*
X91021000Y-153900000D01*
X91021000Y-155980000D02*
X91021000Y-158457000D01*
X91061000Y-151447000D02*
X91061000Y-153900000D01*
X91061000Y-155980000D02*
X91061000Y-158433000D01*
X91101000Y-151471000D02*
X91101000Y-153900000D01*
X91101000Y-155980000D02*
X91101000Y-158409000D01*
X91141000Y-151496000D02*
X91141000Y-153900000D01*
X91141000Y-155980000D02*
X91141000Y-158384000D01*
X91181000Y-151522000D02*
X91181000Y-153900000D01*
X91181000Y-155980000D02*
X91181000Y-158358000D01*
X91221000Y-151548000D02*
X91221000Y-153900000D01*
X91221000Y-155980000D02*
X91221000Y-158332000D01*
X91261000Y-151575000D02*
X91261000Y-153900000D01*
X91261000Y-155980000D02*
X91261000Y-158305000D01*
X91301000Y-151602000D02*
X91301000Y-153900000D01*
X91301000Y-155980000D02*
X91301000Y-158278000D01*
X91341000Y-151631000D02*
X91341000Y-153900000D01*
X91341000Y-155980000D02*
X91341000Y-158249000D01*
X91381000Y-151660000D02*
X91381000Y-153900000D01*
X91381000Y-155980000D02*
X91381000Y-158220000D01*
X91421000Y-151690000D02*
X91421000Y-153900000D01*
X91421000Y-155980000D02*
X91421000Y-158190000D01*
X91461000Y-151720000D02*
X91461000Y-153900000D01*
X91461000Y-155980000D02*
X91461000Y-158160000D01*
X91501000Y-151751000D02*
X91501000Y-153900000D01*
X91501000Y-155980000D02*
X91501000Y-158129000D01*
X91541000Y-151784000D02*
X91541000Y-153900000D01*
X91541000Y-155980000D02*
X91541000Y-158096000D01*
X91581000Y-151816000D02*
X91581000Y-153900000D01*
X91581000Y-155980000D02*
X91581000Y-158064000D01*
X91621000Y-151850000D02*
X91621000Y-153900000D01*
X91621000Y-155980000D02*
X91621000Y-158030000D01*
X91661000Y-151885000D02*
X91661000Y-153900000D01*
X91661000Y-155980000D02*
X91661000Y-157995000D01*
X91701000Y-151921000D02*
X91701000Y-153900000D01*
X91701000Y-155980000D02*
X91701000Y-157959000D01*
X91741000Y-151957000D02*
X91741000Y-153900000D01*
X91741000Y-155980000D02*
X91741000Y-157923000D01*
X91781000Y-151995000D02*
X91781000Y-153900000D01*
X91781000Y-155980000D02*
X91781000Y-157885000D01*
X91821000Y-152033000D02*
X91821000Y-153900000D01*
X91821000Y-155980000D02*
X91821000Y-157847000D01*
X91861000Y-152073000D02*
X91861000Y-153900000D01*
X91861000Y-155980000D02*
X91861000Y-157807000D01*
X91901000Y-152114000D02*
X91901000Y-153900000D01*
X91901000Y-155980000D02*
X91901000Y-157766000D01*
X91941000Y-152156000D02*
X91941000Y-153900000D01*
X91941000Y-155980000D02*
X91941000Y-157724000D01*
X91981000Y-152199000D02*
X91981000Y-153900000D01*
X91981000Y-155980000D02*
X91981000Y-157681000D01*
X92021000Y-152243000D02*
X92021000Y-153900000D01*
X92021000Y-155980000D02*
X92021000Y-157637000D01*
X92061000Y-152289000D02*
X92061000Y-153900000D01*
X92061000Y-155980000D02*
X92061000Y-157591000D01*
X92101000Y-152336000D02*
X92101000Y-153900000D01*
X92101000Y-155980000D02*
X92101000Y-157544000D01*
X92141000Y-152384000D02*
X92141000Y-153900000D01*
X92141000Y-155980000D02*
X92141000Y-157496000D01*
X92181000Y-152435000D02*
X92181000Y-153900000D01*
X92181000Y-155980000D02*
X92181000Y-157445000D01*
X92221000Y-152486000D02*
X92221000Y-153900000D01*
X92221000Y-155980000D02*
X92221000Y-157394000D01*
X92261000Y-152540000D02*
X92261000Y-153900000D01*
X92261000Y-155980000D02*
X92261000Y-157340000D01*
X92301000Y-152595000D02*
X92301000Y-153900000D01*
X92301000Y-155980000D02*
X92301000Y-157285000D01*
X92341000Y-152653000D02*
X92341000Y-153900000D01*
X92341000Y-155980000D02*
X92341000Y-157227000D01*
X92381000Y-152712000D02*
X92381000Y-153900000D01*
X92381000Y-155980000D02*
X92381000Y-157168000D01*
X92421000Y-152774000D02*
X92421000Y-153900000D01*
X92421000Y-155980000D02*
X92421000Y-157106000D01*
X92461000Y-152838000D02*
X92461000Y-153900000D01*
X92461000Y-155980000D02*
X92461000Y-157042000D01*
X92501000Y-152906000D02*
X92501000Y-156974000D01*
X92541000Y-152976000D02*
X92541000Y-156904000D01*
X92581000Y-153050000D02*
X92581000Y-156830000D01*
X92621000Y-153127000D02*
X92621000Y-156753000D01*
X92661000Y-153209000D02*
X92661000Y-156671000D01*
X92701000Y-153295000D02*
X92701000Y-156585000D01*
X92741000Y-153388000D02*
X92741000Y-156492000D01*
X92781000Y-153487000D02*
X92781000Y-156393000D01*
X92821000Y-153594000D02*
X92821000Y-156286000D01*
X92861000Y-153711000D02*
X92861000Y-156169000D01*
X92901000Y-153842000D02*
X92901000Y-156038000D01*
X92941000Y-153992000D02*
X92941000Y-155888000D01*
X92981000Y-154172000D02*
X92981000Y-155708000D01*
X93021000Y-154407000D02*
X93021000Y-155473000D01*
X93060000Y-154940000D02*
G75*
G02*
X84820000Y-154940000I-4120000J0D01*
G01*
X84820000Y-154940000D02*
G75*
G02*
X93060000Y-154940000I4120000J0D01*
G01*
X81290000Y-25085000D02*
X81290000Y-34855000D01*
X81465000Y-23565000D02*
X81465000Y-25084000D01*
X82680000Y-23565000D02*
X82680000Y-24324000D01*
X83895000Y-23565000D02*
X81465000Y-23565000D01*
X83895000Y-23565000D02*
X83895000Y-25084000D01*
X83895000Y-25084000D02*
X81465000Y-25084000D01*
X86360000Y-25085000D02*
X81290000Y-25085000D01*
X86360000Y-25085000D02*
X86360000Y-34855000D01*
X86360000Y-34855000D02*
X81290000Y-34855000D01*
X76099000Y-53935000D02*
X76099000Y-64175000D01*
X79230000Y-53935000D02*
X79230000Y-64175000D01*
X80740000Y-53935000D02*
X76099000Y-53935000D01*
X80740000Y-53935000D02*
X80740000Y-64175000D01*
X80740000Y-57205000D02*
X79230000Y-57205000D01*
X80740000Y-60906000D02*
X79230000Y-60906000D01*
X80740000Y-64175000D02*
X76099000Y-64175000D01*
X77117789Y-162865000D02*
X77867789Y-162865000D01*
X77492789Y-162490000D02*
X77492789Y-163240000D01*
X81260000Y-161210000D02*
X81260000Y-168870000D01*
X81300000Y-161210000D02*
X81300000Y-168870000D01*
X81340000Y-161210000D02*
X81340000Y-168870000D01*
X81380000Y-161211000D02*
X81380000Y-168869000D01*
X81420000Y-161213000D02*
X81420000Y-168867000D01*
X81460000Y-161215000D02*
X81460000Y-168865000D01*
X81500000Y-161217000D02*
X81500000Y-164000000D01*
X81500000Y-166080000D02*
X81500000Y-168863000D01*
X81540000Y-161220000D02*
X81540000Y-164000000D01*
X81540000Y-166080000D02*
X81540000Y-168860000D01*
X81580000Y-161223000D02*
X81580000Y-164000000D01*
X81580000Y-166080000D02*
X81580000Y-168857000D01*
X81620000Y-161226000D02*
X81620000Y-164000000D01*
X81620000Y-166080000D02*
X81620000Y-168854000D01*
X81660000Y-161230000D02*
X81660000Y-164000000D01*
X81660000Y-166080000D02*
X81660000Y-168850000D01*
X81700000Y-161235000D02*
X81700000Y-164000000D01*
X81700000Y-166080000D02*
X81700000Y-168845000D01*
X81740000Y-161239000D02*
X81740000Y-164000000D01*
X81740000Y-166080000D02*
X81740000Y-168841000D01*
X81780000Y-161245000D02*
X81780000Y-164000000D01*
X81780000Y-166080000D02*
X81780000Y-168835000D01*
X81820000Y-161250000D02*
X81820000Y-164000000D01*
X81820000Y-166080000D02*
X81820000Y-168830000D01*
X81860000Y-161256000D02*
X81860000Y-164000000D01*
X81860000Y-166080000D02*
X81860000Y-168824000D01*
X81900000Y-161263000D02*
X81900000Y-164000000D01*
X81900000Y-166080000D02*
X81900000Y-168817000D01*
X81940000Y-161270000D02*
X81940000Y-164000000D01*
X81940000Y-166080000D02*
X81940000Y-168810000D01*
X81981000Y-161277000D02*
X81981000Y-164000000D01*
X81981000Y-166080000D02*
X81981000Y-168803000D01*
X82021000Y-161285000D02*
X82021000Y-164000000D01*
X82021000Y-166080000D02*
X82021000Y-168795000D01*
X82061000Y-161293000D02*
X82061000Y-164000000D01*
X82061000Y-166080000D02*
X82061000Y-168787000D01*
X82101000Y-161302000D02*
X82101000Y-164000000D01*
X82101000Y-166080000D02*
X82101000Y-168778000D01*
X82141000Y-161311000D02*
X82141000Y-164000000D01*
X82141000Y-166080000D02*
X82141000Y-168769000D01*
X82181000Y-161320000D02*
X82181000Y-164000000D01*
X82181000Y-166080000D02*
X82181000Y-168760000D01*
X82221000Y-161330000D02*
X82221000Y-164000000D01*
X82221000Y-166080000D02*
X82221000Y-168750000D01*
X82261000Y-161341000D02*
X82261000Y-164000000D01*
X82261000Y-166080000D02*
X82261000Y-168739000D01*
X82301000Y-161352000D02*
X82301000Y-164000000D01*
X82301000Y-166080000D02*
X82301000Y-168728000D01*
X82341000Y-161363000D02*
X82341000Y-164000000D01*
X82341000Y-166080000D02*
X82341000Y-168717000D01*
X82381000Y-161375000D02*
X82381000Y-164000000D01*
X82381000Y-166080000D02*
X82381000Y-168705000D01*
X82421000Y-161387000D02*
X82421000Y-164000000D01*
X82421000Y-166080000D02*
X82421000Y-168693000D01*
X82461000Y-161400000D02*
X82461000Y-164000000D01*
X82461000Y-166080000D02*
X82461000Y-168680000D01*
X82501000Y-161414000D02*
X82501000Y-164000000D01*
X82501000Y-166080000D02*
X82501000Y-168666000D01*
X82541000Y-161427000D02*
X82541000Y-164000000D01*
X82541000Y-166080000D02*
X82541000Y-168653000D01*
X82581000Y-161442000D02*
X82581000Y-164000000D01*
X82581000Y-166080000D02*
X82581000Y-168638000D01*
X82621000Y-161456000D02*
X82621000Y-164000000D01*
X82621000Y-166080000D02*
X82621000Y-168624000D01*
X82661000Y-161472000D02*
X82661000Y-164000000D01*
X82661000Y-166080000D02*
X82661000Y-168608000D01*
X82701000Y-161487000D02*
X82701000Y-164000000D01*
X82701000Y-166080000D02*
X82701000Y-168593000D01*
X82741000Y-161504000D02*
X82741000Y-164000000D01*
X82741000Y-166080000D02*
X82741000Y-168576000D01*
X82781000Y-161520000D02*
X82781000Y-164000000D01*
X82781000Y-166080000D02*
X82781000Y-168560000D01*
X82821000Y-161538000D02*
X82821000Y-164000000D01*
X82821000Y-166080000D02*
X82821000Y-168542000D01*
X82861000Y-161556000D02*
X82861000Y-164000000D01*
X82861000Y-166080000D02*
X82861000Y-168524000D01*
X82901000Y-161574000D02*
X82901000Y-164000000D01*
X82901000Y-166080000D02*
X82901000Y-168506000D01*
X82941000Y-161593000D02*
X82941000Y-164000000D01*
X82941000Y-166080000D02*
X82941000Y-168487000D01*
X82981000Y-161613000D02*
X82981000Y-164000000D01*
X82981000Y-166080000D02*
X82981000Y-168467000D01*
X83021000Y-161633000D02*
X83021000Y-164000000D01*
X83021000Y-166080000D02*
X83021000Y-168447000D01*
X83061000Y-161654000D02*
X83061000Y-164000000D01*
X83061000Y-166080000D02*
X83061000Y-168426000D01*
X83101000Y-161675000D02*
X83101000Y-164000000D01*
X83101000Y-166080000D02*
X83101000Y-168405000D01*
X83141000Y-161697000D02*
X83141000Y-164000000D01*
X83141000Y-166080000D02*
X83141000Y-168383000D01*
X83181000Y-161719000D02*
X83181000Y-164000000D01*
X83181000Y-166080000D02*
X83181000Y-168361000D01*
X83221000Y-161743000D02*
X83221000Y-164000000D01*
X83221000Y-166080000D02*
X83221000Y-168337000D01*
X83261000Y-161766000D02*
X83261000Y-164000000D01*
X83261000Y-166080000D02*
X83261000Y-168314000D01*
X83301000Y-161791000D02*
X83301000Y-164000000D01*
X83301000Y-166080000D02*
X83301000Y-168289000D01*
X83341000Y-161816000D02*
X83341000Y-164000000D01*
X83341000Y-166080000D02*
X83341000Y-168264000D01*
X83381000Y-161842000D02*
X83381000Y-164000000D01*
X83381000Y-166080000D02*
X83381000Y-168238000D01*
X83421000Y-161868000D02*
X83421000Y-164000000D01*
X83421000Y-166080000D02*
X83421000Y-168212000D01*
X83461000Y-161896000D02*
X83461000Y-164000000D01*
X83461000Y-166080000D02*
X83461000Y-168184000D01*
X83501000Y-161924000D02*
X83501000Y-164000000D01*
X83501000Y-166080000D02*
X83501000Y-168156000D01*
X83541000Y-161952000D02*
X83541000Y-164000000D01*
X83541000Y-166080000D02*
X83541000Y-168128000D01*
X83581000Y-161982000D02*
X83581000Y-168098000D01*
X83621000Y-162012000D02*
X83621000Y-168068000D01*
X83661000Y-162044000D02*
X83661000Y-168036000D01*
X83701000Y-162076000D02*
X83701000Y-168004000D01*
X83741000Y-162109000D02*
X83741000Y-167971000D01*
X83781000Y-162142000D02*
X83781000Y-167938000D01*
X83821000Y-162177000D02*
X83821000Y-167903000D01*
X83861000Y-162213000D02*
X83861000Y-167867000D01*
X83901000Y-162250000D02*
X83901000Y-167830000D01*
X83941000Y-162288000D02*
X83941000Y-167792000D01*
X83981000Y-162327000D02*
X83981000Y-167753000D01*
X84021000Y-162367000D02*
X84021000Y-167713000D01*
X84061000Y-162408000D02*
X84061000Y-167672000D01*
X84101000Y-162451000D02*
X84101000Y-167629000D01*
X84141000Y-162494000D02*
X84141000Y-167586000D01*
X84181000Y-162540000D02*
X84181000Y-167540000D01*
X84221000Y-162586000D02*
X84221000Y-167494000D01*
X84261000Y-162635000D02*
X84261000Y-167445000D01*
X84301000Y-162685000D02*
X84301000Y-167395000D01*
X84341000Y-162736000D02*
X84341000Y-167344000D01*
X84381000Y-162790000D02*
X84381000Y-167290000D01*
X84421000Y-162845000D02*
X84421000Y-167235000D01*
X84461000Y-162903000D02*
X84461000Y-167177000D01*
X84501000Y-162963000D02*
X84501000Y-167117000D01*
X84541000Y-163026000D02*
X84541000Y-167054000D01*
X84581000Y-163091000D02*
X84581000Y-166989000D01*
X84621000Y-163159000D02*
X84621000Y-166921000D01*
X84661000Y-163231000D02*
X84661000Y-166849000D01*
X84701000Y-163307000D02*
X84701000Y-166773000D01*
X84741000Y-163386000D02*
X84741000Y-166694000D01*
X84781000Y-163471000D02*
X84781000Y-166609000D01*
X84821000Y-163562000D02*
X84821000Y-166518000D01*
X84861000Y-163659000D02*
X84861000Y-166421000D01*
X84901000Y-163765000D02*
X84901000Y-166315000D01*
X84941000Y-163882000D02*
X84941000Y-166198000D01*
X84981000Y-164012000D02*
X84981000Y-166068000D01*
X85021000Y-164163000D02*
X85021000Y-165917000D01*
X85061000Y-164347000D02*
X85061000Y-165733000D01*
X85101000Y-164599000D02*
X85101000Y-165481000D01*
X85130000Y-165040000D02*
G75*
G02*
X77390000Y-165040000I-3870000J0D01*
G01*
X77390000Y-165040000D02*
G75*
G02*
X85130000Y-165040000I3870000J0D01*
G01*
X78890000Y-65710000D02*
X78890000Y-68950000D01*
X78955000Y-65710000D02*
X78890000Y-65710000D01*
X78955000Y-68950000D02*
X78890000Y-68950000D01*
X81130000Y-65710000D02*
X81065000Y-65710000D01*
X81130000Y-65710000D02*
X81130000Y-68950000D01*
X81130000Y-68950000D02*
X81065000Y-68950000D01*
X74940000Y-25085000D02*
X74940000Y-34855000D01*
X75115000Y-23565000D02*
X75115000Y-25084000D01*
X76330000Y-23565000D02*
X76330000Y-24324000D01*
X77545000Y-23565000D02*
X75115000Y-23565000D01*
X77545000Y-23565000D02*
X77545000Y-25084000D01*
X77545000Y-25084000D02*
X75115000Y-25084000D01*
X80010000Y-25085000D02*
X74940000Y-25085000D01*
X80010000Y-25085000D02*
X80010000Y-34855000D01*
X80010000Y-34855000D02*
X74940000Y-34855000D01*
X97610000Y-26470000D02*
X103050000Y-26470000D01*
X97610000Y-26600000D02*
X97610000Y-26470000D01*
X97610000Y-29280000D02*
X97610000Y-29410000D01*
X97610000Y-29410000D02*
X103050000Y-29410000D01*
X98390000Y-26470000D02*
X98390000Y-29410000D01*
X98510000Y-26470000D02*
X98510000Y-29410000D01*
X98630000Y-26470000D02*
X98630000Y-29410000D01*
X103050000Y-26470000D02*
X103050000Y-26600000D01*
X103050000Y-29410000D02*
X103050000Y-29280000D01*
X71690000Y-142240000D02*
X72600000Y-142240000D01*
X72600000Y-139520000D02*
X72600000Y-144960000D01*
X72600000Y-144960000D02*
X82340000Y-144960000D01*
X74025000Y-139520000D02*
X74025000Y-144960000D01*
X74145000Y-139520000D02*
X74145000Y-144960000D01*
X74265000Y-139520000D02*
X74265000Y-144960000D01*
X82340000Y-139520000D02*
X72600000Y-139520000D01*
X82340000Y-144960000D02*
X82340000Y-139520000D01*
X83250000Y-142240000D02*
X82340000Y-142240000D01*
X69200000Y-39380000D02*
X69200000Y-49520000D01*
X69200000Y-49520000D02*
X69680000Y-49520000D01*
X69680000Y-39380000D02*
X69200000Y-39380000D01*
X72560000Y-39380000D02*
X73040000Y-39380000D01*
X73040000Y-39380000D02*
X73040000Y-49520000D01*
X73040000Y-49520000D02*
X72560000Y-49520000D01*
X88250000Y-39380000D02*
X88250000Y-49520000D01*
X88250000Y-49520000D02*
X88730000Y-49520000D01*
X88730000Y-39380000D02*
X88250000Y-39380000D01*
X91610000Y-39380000D02*
X92090000Y-39380000D01*
X92090000Y-39380000D02*
X92090000Y-49520000D01*
X92090000Y-49520000D02*
X91610000Y-49520000D01*
X84354000Y-53935000D02*
X84354000Y-64175000D01*
X87485000Y-53935000D02*
X87485000Y-64175000D01*
X88995000Y-53935000D02*
X84354000Y-53935000D01*
X88995000Y-53935000D02*
X88995000Y-64175000D01*
X88995000Y-57205000D02*
X87485000Y-57205000D01*
X88995000Y-60906000D02*
X87485000Y-60906000D01*
X88995000Y-64175000D02*
X84354000Y-64175000D01*
X72390000Y-96350000D02*
X72390000Y-100100000D01*
X74760000Y-93980000D02*
G75*
G02*
X70020000Y-93980000I-2370000J0D01*
G01*
X70020000Y-93980000D02*
G75*
G02*
X74760000Y-93980000I2370000J0D01*
G01*
X84490000Y-96350000D02*
X84490000Y-100100000D01*
X86860000Y-93980000D02*
G75*
G02*
X82120000Y-93980000I-2370000J0D01*
G01*
X82120000Y-93980000D02*
G75*
G02*
X86860000Y-93980000I2370000J0D01*
G01*
X107950000Y-175430000D02*
X107950000Y-171680000D01*
X110320000Y-177800000D02*
G75*
G02*
X105580000Y-177800000I-2370000J0D01*
G01*
X105580000Y-177800000D02*
G75*
G02*
X110320000Y-177800000I2370000J0D01*
G01*
X97610000Y-34090000D02*
X103050000Y-34090000D01*
X97610000Y-34220000D02*
X97610000Y-34090000D01*
X97610000Y-36900000D02*
X97610000Y-37030000D01*
X97610000Y-37030000D02*
X103050000Y-37030000D01*
X98390000Y-34090000D02*
X98390000Y-37030000D01*
X98510000Y-34090000D02*
X98510000Y-37030000D01*
X98630000Y-34090000D02*
X98630000Y-37030000D01*
X103050000Y-34090000D02*
X103050000Y-34220000D01*
X103050000Y-37030000D02*
X103050000Y-36900000D01*
X86967500Y-174260000D02*
X86967500Y-175260000D01*
X86967500Y-175260000D02*
X87467500Y-174760000D01*
X87467500Y-174760000D02*
X86967500Y-174260000D01*
X87652500Y-170880000D02*
X87652500Y-188840000D01*
X87652500Y-188840000D02*
X103172500Y-188840000D01*
X103172500Y-170880000D02*
X87652500Y-170880000D01*
X103172500Y-170880000D02*
X103172500Y-188840000D01*
X92609000Y-53935000D02*
X92609000Y-64175000D01*
X95740000Y-53935000D02*
X95740000Y-64175000D01*
X97250000Y-53935000D02*
X92609000Y-53935000D01*
X97250000Y-53935000D02*
X97250000Y-64175000D01*
X97250000Y-57205000D02*
X95740000Y-57205000D01*
X97250000Y-60906000D02*
X95740000Y-60906000D01*
X97250000Y-64175000D02*
X92609000Y-64175000D01*
X101230000Y-38315000D02*
X101230000Y-38250000D01*
X101230000Y-40490000D02*
X101230000Y-40425000D01*
X104470000Y-38250000D02*
X101230000Y-38250000D01*
X104470000Y-38315000D02*
X104470000Y-38250000D01*
X104470000Y-40490000D02*
X101230000Y-40490000D01*
X104470000Y-40490000D02*
X104470000Y-40425000D01*
X91980000Y-78700000D02*
X96621000Y-78700000D01*
X91980000Y-81969000D02*
X93490000Y-81969000D01*
X91980000Y-85670000D02*
X93490000Y-85670000D01*
X91980000Y-88940000D02*
X91980000Y-78700000D01*
X91980000Y-88940000D02*
X96621000Y-88940000D01*
X93490000Y-88940000D02*
X93490000Y-78700000D01*
X96621000Y-88940000D02*
X96621000Y-78700000D01*
X75550000Y-39380000D02*
X75550000Y-49520000D01*
X75550000Y-49520000D02*
X76030000Y-49520000D01*
X76030000Y-39380000D02*
X75550000Y-39380000D01*
X78910000Y-39380000D02*
X79390000Y-39380000D01*
X79390000Y-39380000D02*
X79390000Y-49520000D01*
X79390000Y-49520000D02*
X78910000Y-49520000D01*
X76140000Y-128560000D02*
X76140000Y-129810000D01*
X76140000Y-131810000D02*
X76140000Y-133060000D01*
X76140000Y-133060000D02*
X96580000Y-133060000D01*
X96580000Y-128560000D02*
X76140000Y-128560000D01*
X96580000Y-133060000D02*
X96580000Y-128560000D01*
X76140000Y-129810000D02*
G75*
G02*
X76140000Y-131810000I0J-1000000D01*
G01*
X81900000Y-39380000D02*
X81900000Y-49520000D01*
X81900000Y-49520000D02*
X82380000Y-49520000D01*
X82380000Y-39380000D02*
X81900000Y-39380000D01*
X85260000Y-39380000D02*
X85740000Y-39380000D01*
X85740000Y-39380000D02*
X85740000Y-49520000D01*
X85740000Y-49520000D02*
X85260000Y-49520000D01*
X76740000Y-78700000D02*
X81381000Y-78700000D01*
X76740000Y-81969000D02*
X78250000Y-81969000D01*
X76740000Y-85670000D02*
X78250000Y-85670000D01*
X76740000Y-88940000D02*
X76740000Y-78700000D01*
X76740000Y-88940000D02*
X81381000Y-88940000D01*
X78250000Y-88940000D02*
X78250000Y-78700000D01*
X81381000Y-88940000D02*
X81381000Y-78700000D01*
X107210000Y-130780000D02*
X107210000Y-141000000D01*
X107210000Y-141000000D02*
X111230000Y-141000000D01*
X107710000Y-131280000D02*
X108920000Y-131280000D01*
X107710000Y-140500000D02*
X107710000Y-131280000D01*
X108920000Y-131280000D02*
X108920000Y-130780000D01*
X108920000Y-140500000D02*
X107710000Y-140500000D01*
X108920000Y-141000000D02*
X108920000Y-140500000D01*
X109030000Y-141300000D02*
X111530000Y-141300000D01*
X109730000Y-130780000D02*
X109730000Y-131780000D01*
X109730000Y-131780000D02*
X111230000Y-131780000D01*
X109730000Y-140000000D02*
X111230000Y-140000000D01*
X109730000Y-141000000D02*
X109730000Y-140000000D01*
X111230000Y-130780000D02*
X107210000Y-130780000D01*
X111230000Y-141000000D02*
X111230000Y-130780000D01*
X111530000Y-141300000D02*
X111530000Y-138800000D01*
X69120000Y-78700000D02*
X73761000Y-78700000D01*
X69120000Y-81969000D02*
X70630000Y-81969000D01*
X69120000Y-85670000D02*
X70630000Y-85670000D01*
X69120000Y-88940000D02*
X69120000Y-78700000D01*
X69120000Y-88940000D02*
X73761000Y-88940000D01*
X70630000Y-88940000D02*
X70630000Y-78700000D01*
X73761000Y-88940000D02*
X73761000Y-78700000D01*
X68590000Y-25085000D02*
X68590000Y-34855000D01*
X68765000Y-23565000D02*
X68765000Y-25084000D01*
X69980000Y-23565000D02*
X69980000Y-24324000D01*
X71195000Y-23565000D02*
X68765000Y-23565000D01*
X71195000Y-23565000D02*
X71195000Y-25084000D01*
X71195000Y-25084000D02*
X68765000Y-25084000D01*
X73660000Y-25085000D02*
X68590000Y-25085000D01*
X73660000Y-25085000D02*
X73660000Y-34855000D01*
X73660000Y-34855000D02*
X68590000Y-34855000D01*
X67770000Y-148120000D02*
X72411000Y-148120000D01*
X67770000Y-151390000D02*
X69279000Y-151390000D01*
X67770000Y-155090000D02*
X69279000Y-155090000D01*
X67770000Y-158361000D02*
X67770000Y-148120000D01*
X67770000Y-158361000D02*
X72411000Y-158361000D01*
X69279000Y-158361000D02*
X69279000Y-148120000D01*
X72411000Y-149840000D02*
X75025000Y-149840000D01*
X72411000Y-150475000D02*
X72411000Y-148120000D01*
X72411000Y-153240000D02*
X75025000Y-153240000D01*
X72411000Y-153875000D02*
X72411000Y-152605000D01*
X72411000Y-156640000D02*
X75041000Y-156640000D01*
X72411000Y-158361000D02*
X72411000Y-156005000D01*
X77410000Y-71060000D02*
X87690000Y-71060000D01*
X77410000Y-73660000D02*
X77410000Y-71060000D01*
X77410000Y-76260000D02*
X77410000Y-74930000D01*
X78740000Y-76260000D02*
X77410000Y-76260000D01*
X80010000Y-73660000D02*
X77410000Y-73660000D01*
X80010000Y-76260000D02*
X80010000Y-73660000D01*
X80010000Y-76260000D02*
X87690000Y-76260000D01*
X87690000Y-76260000D02*
X87690000Y-71060000D01*
X98890000Y-156090000D02*
X98890000Y-166490000D01*
X98890000Y-166490000D02*
X109390000Y-166490000D01*
X101890000Y-156150000D02*
X101890000Y-166430000D01*
X101890000Y-166430000D02*
X103140000Y-166430000D01*
X105140000Y-166430000D02*
X106390000Y-166430000D01*
X106390000Y-156150000D02*
X101890000Y-156150000D01*
X106390000Y-166430000D02*
X106390000Y-156150000D01*
X109390000Y-156090000D02*
X98890000Y-156090000D01*
X109390000Y-166490000D02*
X109390000Y-156090000D01*
X103140000Y-166430000D02*
G75*
G02*
X105140000Y-166430000I1000000J0D01*
G01*
X107510000Y-24220000D02*
X107510000Y-39440000D01*
X107510000Y-39440000D02*
X111530000Y-39440000D01*
X108010000Y-24720000D02*
X109220000Y-24720000D01*
X108010000Y-38940000D02*
X108010000Y-24720000D01*
X109220000Y-24720000D02*
X109220000Y-24220000D01*
X109220000Y-38940000D02*
X108010000Y-38940000D01*
X109220000Y-39440000D02*
X109220000Y-38940000D01*
X109330000Y-39740000D02*
X111830000Y-39740000D01*
X110030000Y-24220000D02*
X110030000Y-25220000D01*
X110030000Y-25220000D02*
X111530000Y-25220000D01*
X110030000Y-38440000D02*
X111530000Y-38440000D01*
X110030000Y-39440000D02*
X110030000Y-38440000D01*
X111530000Y-24220000D02*
X107510000Y-24220000D01*
X111530000Y-39440000D02*
X111530000Y-24220000D01*
X111830000Y-39740000D02*
X111830000Y-37240000D01*
X78440000Y-96350000D02*
X78440000Y-100100000D01*
X80810000Y-93980000D02*
G75*
G02*
X76070000Y-93980000I-2370000J0D01*
G01*
X76070000Y-93980000D02*
G75*
G02*
X80810000Y-93980000I2370000J0D01*
G01*
X84360000Y-78700000D02*
X89001000Y-78700000D01*
X84360000Y-81969000D02*
X85870000Y-81969000D01*
X84360000Y-85670000D02*
X85870000Y-85670000D01*
X84360000Y-88940000D02*
X84360000Y-78700000D01*
X84360000Y-88940000D02*
X89001000Y-88940000D01*
X85870000Y-88940000D02*
X85870000Y-78700000D01*
X89001000Y-88940000D02*
X89001000Y-78700000D01*
X69782500Y-174260000D02*
X69782500Y-175260000D01*
X69782500Y-175260000D02*
X70282500Y-174760000D01*
X70282500Y-174760000D02*
X69782500Y-174260000D01*
X70467500Y-170880000D02*
X70467500Y-188840000D01*
X70467500Y-188840000D02*
X85987500Y-188840000D01*
X85987500Y-170880000D02*
X70467500Y-170880000D01*
X85987500Y-170880000D02*
X85987500Y-188840000D01*
X68280395Y-165481000D02*
X68280395Y-164599000D01*
X68320395Y-165733000D02*
X68320395Y-164347000D01*
X68360395Y-165917000D02*
X68360395Y-164163000D01*
X68400395Y-166068000D02*
X68400395Y-164012000D01*
X68440395Y-166198000D02*
X68440395Y-163882000D01*
X68480395Y-166315000D02*
X68480395Y-163765000D01*
X68520395Y-166421000D02*
X68520395Y-163659000D01*
X68560395Y-166518000D02*
X68560395Y-163562000D01*
X68600395Y-166609000D02*
X68600395Y-163471000D01*
X68640395Y-166694000D02*
X68640395Y-163386000D01*
X68680395Y-166773000D02*
X68680395Y-163307000D01*
X68720395Y-166849000D02*
X68720395Y-163231000D01*
X68760395Y-166921000D02*
X68760395Y-163159000D01*
X68800395Y-166989000D02*
X68800395Y-163091000D01*
X68840395Y-167054000D02*
X68840395Y-163026000D01*
X68880395Y-167117000D02*
X68880395Y-162963000D01*
X68920395Y-167177000D02*
X68920395Y-162903000D01*
X68960395Y-167235000D02*
X68960395Y-162845000D01*
X69000395Y-167290000D02*
X69000395Y-162790000D01*
X69040395Y-167344000D02*
X69040395Y-162736000D01*
X69080395Y-167395000D02*
X69080395Y-162685000D01*
X69120395Y-167445000D02*
X69120395Y-162635000D01*
X69160395Y-167494000D02*
X69160395Y-162586000D01*
X69200395Y-167540000D02*
X69200395Y-162540000D01*
X69240395Y-167586000D02*
X69240395Y-162494000D01*
X69280395Y-167629000D02*
X69280395Y-162451000D01*
X69320395Y-167672000D02*
X69320395Y-162408000D01*
X69360395Y-167713000D02*
X69360395Y-162367000D01*
X69400395Y-167753000D02*
X69400395Y-162327000D01*
X69440395Y-167792000D02*
X69440395Y-162288000D01*
X69480395Y-167830000D02*
X69480395Y-162250000D01*
X69520395Y-167867000D02*
X69520395Y-162213000D01*
X69560395Y-167903000D02*
X69560395Y-162177000D01*
X69600395Y-167938000D02*
X69600395Y-162142000D01*
X69640395Y-167971000D02*
X69640395Y-162109000D01*
X69680395Y-168004000D02*
X69680395Y-162076000D01*
X69720395Y-168036000D02*
X69720395Y-162044000D01*
X69760395Y-168068000D02*
X69760395Y-162012000D01*
X69800395Y-168098000D02*
X69800395Y-161982000D01*
X69840395Y-164000000D02*
X69840395Y-161952000D01*
X69840395Y-168128000D02*
X69840395Y-166080000D01*
X69880395Y-164000000D02*
X69880395Y-161924000D01*
X69880395Y-168156000D02*
X69880395Y-166080000D01*
X69920395Y-164000000D02*
X69920395Y-161896000D01*
X69920395Y-168184000D02*
X69920395Y-166080000D01*
X69960395Y-164000000D02*
X69960395Y-161868000D01*
X69960395Y-168212000D02*
X69960395Y-166080000D01*
X70000395Y-164000000D02*
X70000395Y-161842000D01*
X70000395Y-168238000D02*
X70000395Y-166080000D01*
X70040395Y-164000000D02*
X70040395Y-161816000D01*
X70040395Y-168264000D02*
X70040395Y-166080000D01*
X70080395Y-164000000D02*
X70080395Y-161791000D01*
X70080395Y-168289000D02*
X70080395Y-166080000D01*
X70120395Y-164000000D02*
X70120395Y-161766000D01*
X70120395Y-168314000D02*
X70120395Y-166080000D01*
X70160395Y-164000000D02*
X70160395Y-161743000D01*
X70160395Y-168337000D02*
X70160395Y-166080000D01*
X70200395Y-164000000D02*
X70200395Y-161719000D01*
X70200395Y-168361000D02*
X70200395Y-166080000D01*
X70240395Y-164000000D02*
X70240395Y-161697000D01*
X70240395Y-168383000D02*
X70240395Y-166080000D01*
X70280395Y-164000000D02*
X70280395Y-161675000D01*
X70280395Y-168405000D02*
X70280395Y-166080000D01*
X70320395Y-164000000D02*
X70320395Y-161654000D01*
X70320395Y-168426000D02*
X70320395Y-166080000D01*
X70360395Y-164000000D02*
X70360395Y-161633000D01*
X70360395Y-168447000D02*
X70360395Y-166080000D01*
X70400395Y-164000000D02*
X70400395Y-161613000D01*
X70400395Y-168467000D02*
X70400395Y-166080000D01*
X70440395Y-164000000D02*
X70440395Y-161593000D01*
X70440395Y-168487000D02*
X70440395Y-166080000D01*
X70480395Y-164000000D02*
X70480395Y-161574000D01*
X70480395Y-168506000D02*
X70480395Y-166080000D01*
X70520395Y-164000000D02*
X70520395Y-161556000D01*
X70520395Y-168524000D02*
X70520395Y-166080000D01*
X70560395Y-164000000D02*
X70560395Y-161538000D01*
X70560395Y-168542000D02*
X70560395Y-166080000D01*
X70600395Y-164000000D02*
X70600395Y-161520000D01*
X70600395Y-168560000D02*
X70600395Y-166080000D01*
X70640395Y-164000000D02*
X70640395Y-161504000D01*
X70640395Y-168576000D02*
X70640395Y-166080000D01*
X70680395Y-164000000D02*
X70680395Y-161487000D01*
X70680395Y-168593000D02*
X70680395Y-166080000D01*
X70720395Y-164000000D02*
X70720395Y-161472000D01*
X70720395Y-168608000D02*
X70720395Y-166080000D01*
X70760395Y-164000000D02*
X70760395Y-161456000D01*
X70760395Y-168624000D02*
X70760395Y-166080000D01*
X70800395Y-164000000D02*
X70800395Y-161442000D01*
X70800395Y-168638000D02*
X70800395Y-166080000D01*
X70840395Y-164000000D02*
X70840395Y-161427000D01*
X70840395Y-168653000D02*
X70840395Y-166080000D01*
X70880395Y-164000000D02*
X70880395Y-161414000D01*
X70880395Y-168666000D02*
X70880395Y-166080000D01*
X70920395Y-164000000D02*
X70920395Y-161400000D01*
X70920395Y-168680000D02*
X70920395Y-166080000D01*
X70960395Y-164000000D02*
X70960395Y-161387000D01*
X70960395Y-168693000D02*
X70960395Y-166080000D01*
X71000395Y-164000000D02*
X71000395Y-161375000D01*
X71000395Y-168705000D02*
X71000395Y-166080000D01*
X71040395Y-164000000D02*
X71040395Y-161363000D01*
X71040395Y-168717000D02*
X71040395Y-166080000D01*
X71080395Y-164000000D02*
X71080395Y-161352000D01*
X71080395Y-168728000D02*
X71080395Y-166080000D01*
X71120395Y-164000000D02*
X71120395Y-161341000D01*
X71120395Y-168739000D02*
X71120395Y-166080000D01*
X71160395Y-164000000D02*
X71160395Y-161330000D01*
X71160395Y-168750000D02*
X71160395Y-166080000D01*
X71200395Y-164000000D02*
X71200395Y-161320000D01*
X71200395Y-168760000D02*
X71200395Y-166080000D01*
X71240395Y-164000000D02*
X71240395Y-161311000D01*
X71240395Y-168769000D02*
X71240395Y-166080000D01*
X71280395Y-164000000D02*
X71280395Y-161302000D01*
X71280395Y-168778000D02*
X71280395Y-166080000D01*
X71320395Y-164000000D02*
X71320395Y-161293000D01*
X71320395Y-168787000D02*
X71320395Y-166080000D01*
X71360395Y-164000000D02*
X71360395Y-161285000D01*
X71360395Y-168795000D02*
X71360395Y-166080000D01*
X71400395Y-164000000D02*
X71400395Y-161277000D01*
X71400395Y-168803000D02*
X71400395Y-166080000D01*
X71441395Y-164000000D02*
X71441395Y-161270000D01*
X71441395Y-168810000D02*
X71441395Y-166080000D01*
X71481395Y-164000000D02*
X71481395Y-161263000D01*
X71481395Y-168817000D02*
X71481395Y-166080000D01*
X71521395Y-164000000D02*
X71521395Y-161256000D01*
X71521395Y-168824000D02*
X71521395Y-166080000D01*
X71561395Y-164000000D02*
X71561395Y-161250000D01*
X71561395Y-168830000D02*
X71561395Y-166080000D01*
X71601395Y-164000000D02*
X71601395Y-161245000D01*
X71601395Y-168835000D02*
X71601395Y-166080000D01*
X71641395Y-164000000D02*
X71641395Y-161239000D01*
X71641395Y-168841000D02*
X71641395Y-166080000D01*
X71681395Y-164000000D02*
X71681395Y-161235000D01*
X71681395Y-168845000D02*
X71681395Y-166080000D01*
X71721395Y-164000000D02*
X71721395Y-161230000D01*
X71721395Y-168850000D02*
X71721395Y-166080000D01*
X71761395Y-164000000D02*
X71761395Y-161226000D01*
X71761395Y-168854000D02*
X71761395Y-166080000D01*
X71801395Y-164000000D02*
X71801395Y-161223000D01*
X71801395Y-168857000D02*
X71801395Y-166080000D01*
X71841395Y-164000000D02*
X71841395Y-161220000D01*
X71841395Y-168860000D02*
X71841395Y-166080000D01*
X71881395Y-164000000D02*
X71881395Y-161217000D01*
X71881395Y-168863000D02*
X71881395Y-166080000D01*
X71921395Y-168865000D02*
X71921395Y-161215000D01*
X71961395Y-168867000D02*
X71961395Y-161213000D01*
X72001395Y-168869000D02*
X72001395Y-161211000D01*
X72041395Y-168870000D02*
X72041395Y-161210000D01*
X72081395Y-168870000D02*
X72081395Y-161210000D01*
X72121395Y-168870000D02*
X72121395Y-161210000D01*
X75888606Y-167590000D02*
X75888606Y-166840000D01*
X76263606Y-167215000D02*
X75513606Y-167215000D01*
X75991395Y-165040000D02*
G75*
G02*
X68251395Y-165040000I-3870000J0D01*
G01*
X68251395Y-165040000D02*
G75*
G02*
X75991395Y-165040000I3870000J0D01*
G01*
X89050000Y-65710000D02*
X89050000Y-68950000D01*
X89115000Y-65710000D02*
X89050000Y-65710000D01*
X89115000Y-68950000D02*
X89050000Y-68950000D01*
X91290000Y-65710000D02*
X91225000Y-65710000D01*
X91290000Y-65710000D02*
X91290000Y-68950000D01*
X91290000Y-68950000D02*
X91225000Y-68950000D01*
X110580000Y-143480000D02*
X107860000Y-143480000D01*
X107860000Y-153700000D01*
X110580000Y-153700000D01*
X110580000Y-143480000D01*
X101230000Y-45935000D02*
X101230000Y-45870000D01*
X101230000Y-48110000D02*
X101230000Y-48045000D01*
X104470000Y-45870000D02*
X101230000Y-45870000D01*
X104470000Y-45935000D02*
X104470000Y-45870000D01*
X104470000Y-48110000D02*
X101230000Y-48110000D01*
X104470000Y-48110000D02*
X104470000Y-48045000D01*
X98690000Y-167790000D02*
X98690000Y-167855000D01*
X98690000Y-167790000D02*
X101930000Y-167790000D01*
X98690000Y-169965000D02*
X98690000Y-170030000D01*
X98690000Y-170030000D02*
X101930000Y-170030000D01*
X101930000Y-167790000D02*
X101930000Y-167855000D01*
X101930000Y-169965000D02*
X101930000Y-170030000D01*
X68804000Y-53935000D02*
X68804000Y-64175000D01*
X71935000Y-53935000D02*
X71935000Y-64175000D01*
X73445000Y-53935000D02*
X68804000Y-53935000D01*
X73445000Y-53935000D02*
X73445000Y-64175000D01*
X73445000Y-57205000D02*
X71935000Y-57205000D01*
X73445000Y-60906000D02*
X71935000Y-60906000D01*
X73445000Y-64175000D02*
X68804000Y-64175000D01*
X90540000Y-96350000D02*
X90540000Y-100100000D01*
X92910000Y-93980000D02*
G75*
G02*
X88170000Y-93980000I-2370000J0D01*
G01*
X88170000Y-93980000D02*
G75*
G02*
X92910000Y-93980000I2370000J0D01*
G01*
X97610000Y-41710000D02*
X103050000Y-41710000D01*
X97610000Y-41840000D02*
X97610000Y-41710000D01*
X97610000Y-44520000D02*
X97610000Y-44650000D01*
X97610000Y-44650000D02*
X103050000Y-44650000D01*
X98390000Y-41710000D02*
X98390000Y-44650000D01*
X98510000Y-41710000D02*
X98510000Y-44650000D01*
X98630000Y-41710000D02*
X98630000Y-44650000D01*
X103050000Y-41710000D02*
X103050000Y-41840000D01*
X103050000Y-44650000D02*
X103050000Y-44520000D01*
X87640000Y-25085000D02*
X87640000Y-34855000D01*
X87815000Y-23565000D02*
X87815000Y-25084000D01*
X89030000Y-23565000D02*
X89030000Y-24324000D01*
X90245000Y-23565000D02*
X87815000Y-23565000D01*
X90245000Y-23565000D02*
X90245000Y-25084000D01*
X90245000Y-25084000D02*
X87815000Y-25084000D01*
X92710000Y-25085000D02*
X87640000Y-25085000D01*
X92710000Y-25085000D02*
X92710000Y-34855000D01*
X92710000Y-34855000D02*
X87640000Y-34855000D01*
X64640000Y-110360000D02*
X75060000Y-110360000D01*
X64640000Y-118240000D02*
X64640000Y-110360000D01*
X67180000Y-105280000D02*
X67180000Y-110360000D01*
X67180000Y-123320000D02*
X67180000Y-118240000D01*
X67180000Y-123320000D02*
X110620000Y-123320000D01*
X69850000Y-107950000D02*
X69850000Y-105280000D01*
X69850000Y-120650000D02*
X69850000Y-123320000D01*
X75060000Y-110360000D02*
X75060000Y-118240000D01*
X75060000Y-118240000D02*
X64640000Y-118240000D01*
X105410000Y-105280000D02*
X67180000Y-105280000D01*
X105410000Y-107950000D02*
X69850000Y-107950000D01*
X105410000Y-107950000D02*
X105410000Y-105280000D01*
X105410000Y-107950000D02*
X107950000Y-107950000D01*
X107950000Y-107950000D02*
X107950000Y-105280000D01*
X107950000Y-120650000D02*
X69850000Y-120650000D01*
X107950000Y-120650000D02*
X107950000Y-123320000D01*
X110620000Y-105280000D02*
X107950000Y-105280000D01*
X110620000Y-123320000D02*
X110620000Y-105280000D01*
X83970000Y-65710000D02*
X83970000Y-68950000D01*
X84035000Y-65710000D02*
X83970000Y-65710000D01*
X84035000Y-68950000D02*
X83970000Y-68950000D01*
X86210000Y-65710000D02*
X86145000Y-65710000D01*
X86210000Y-65710000D02*
X86210000Y-68950000D01*
X86210000Y-68950000D02*
X86145000Y-68950000D01*
X101230000Y-23075000D02*
X101230000Y-23010000D01*
X101230000Y-25250000D02*
X101230000Y-25185000D01*
X104470000Y-23010000D02*
X101230000Y-23010000D01*
X104470000Y-23075000D02*
X104470000Y-23010000D01*
X104470000Y-25250000D02*
X101230000Y-25250000D01*
X104470000Y-25250000D02*
X104470000Y-25185000D01*
X97610000Y-49965000D02*
X103050000Y-49965000D01*
X97610000Y-50095000D02*
X97610000Y-49965000D01*
X97610000Y-52775000D02*
X97610000Y-52905000D01*
X97610000Y-52905000D02*
X103050000Y-52905000D01*
X98390000Y-49965000D02*
X98390000Y-52905000D01*
X98510000Y-49965000D02*
X98510000Y-52905000D01*
X98630000Y-49965000D02*
X98630000Y-52905000D01*
X103050000Y-49965000D02*
X103050000Y-50095000D01*
X103050000Y-52905000D02*
X103050000Y-52775000D01*
%LPC*%
D12*
X104775000Y-93980000D03*
X96520000Y-147955000D03*
X71755000Y-130810000D03*
X71755000Y-74295000D03*
X109220000Y-47625000D03*
D13*
X104100000Y-31750000D03*
X101600000Y-31750000D03*
X74930000Y-66080000D03*
X74930000Y-68580000D03*
D14*
X86440000Y-154940000D03*
D13*
X91440000Y-154940000D03*
D15*
X85090000Y-32510000D03*
X82550000Y-29970000D03*
X85090000Y-27430000D03*
D16*
X77470000Y-56515000D03*
D17*
X77470000Y-59055000D03*
X77470000Y-61595000D03*
D14*
X80010000Y-165040000D03*
D13*
X82510000Y-165040000D03*
X80010000Y-66080000D03*
X80010000Y-68580000D03*
D15*
X78740000Y-32510000D03*
X76200000Y-29970000D03*
X78740000Y-27430000D03*
D18*
X96520000Y-27940000D03*
D19*
X104140000Y-27940000D03*
D20*
X69850000Y-142240000D03*
D21*
X85090000Y-142240000D03*
D22*
X71120000Y-38100000D03*
D23*
X71120000Y-50800000D03*
D22*
X90170000Y-38100000D03*
D23*
X90170000Y-50800000D03*
D16*
X85725000Y-56515000D03*
D17*
X85725000Y-59055000D03*
X85725000Y-61595000D03*
D22*
X72390000Y-93980000D03*
D23*
X72390000Y-101600000D03*
D22*
X84490000Y-93980000D03*
D23*
X84490000Y-101600000D03*
D22*
X107950000Y-177800000D03*
D23*
X107950000Y-170180000D03*
D18*
X96520000Y-35560000D03*
D19*
X104140000Y-35560000D03*
D24*
X89697500Y-181110000D03*
X101127500Y-181110000D03*
D25*
X90967500Y-174760000D03*
D26*
X92237500Y-172220000D03*
X93507500Y-174760000D03*
X94777500Y-172220000D03*
X96047500Y-174760000D03*
X97317500Y-172220000D03*
X98587500Y-174760000D03*
X99857500Y-172220000D03*
D16*
X93980000Y-56515000D03*
D17*
X93980000Y-59055000D03*
X93980000Y-61595000D03*
D13*
X104100000Y-39370000D03*
X101600000Y-39370000D03*
D16*
X95250000Y-86360000D03*
D17*
X95250000Y-83820000D03*
X95250000Y-81280000D03*
D22*
X77470000Y-38100000D03*
D23*
X77470000Y-50800000D03*
D27*
X77470000Y-134620000D03*
D28*
X80010000Y-134620000D03*
X82550000Y-134620000D03*
X85090000Y-134620000D03*
X87630000Y-134620000D03*
X90170000Y-134620000D03*
X92710000Y-134620000D03*
X95250000Y-134620000D03*
X95250000Y-127000000D03*
X92710000Y-127000000D03*
X90170000Y-127000000D03*
X87630000Y-127000000D03*
X85090000Y-127000000D03*
X82550000Y-127000000D03*
X80010000Y-127000000D03*
X77470000Y-127000000D03*
D22*
X83820000Y-38100000D03*
D23*
X83820000Y-50800000D03*
D16*
X80010000Y-86360000D03*
D17*
X80010000Y-83820000D03*
X80010000Y-81280000D03*
D29*
X108920000Y-138390000D03*
D30*
X108920000Y-135890000D03*
X108920000Y-133390000D03*
D16*
X72390000Y-86360000D03*
D17*
X72390000Y-83820000D03*
X72390000Y-81280000D03*
D15*
X72390000Y-32510000D03*
X69850000Y-29970000D03*
X72390000Y-27430000D03*
D31*
X76090000Y-156640000D03*
D32*
X72390000Y-154940000D03*
X76090000Y-153240000D03*
X72390000Y-151540000D03*
X76090000Y-149840000D03*
D33*
X78740000Y-74930000D03*
D34*
X78740000Y-72390000D03*
X81280000Y-74930000D03*
X81280000Y-72390000D03*
X83820000Y-74930000D03*
X83820000Y-72390000D03*
X86360000Y-74930000D03*
X86360000Y-72390000D03*
D35*
X107950000Y-165100000D03*
D36*
X107950000Y-162560000D03*
X107950000Y-160020000D03*
X107950000Y-157480000D03*
X100330000Y-157480000D03*
X100330000Y-160020000D03*
X100330000Y-162560000D03*
X100330000Y-165100000D03*
D29*
X109220000Y-36830000D03*
D30*
X109220000Y-34330000D03*
X109220000Y-31830000D03*
X109220000Y-29330000D03*
X109220000Y-26830000D03*
D22*
X78440000Y-93980000D03*
D23*
X78440000Y-101600000D03*
D16*
X87630000Y-86360000D03*
D17*
X87630000Y-83820000D03*
X87630000Y-81280000D03*
D24*
X72512500Y-181110000D03*
X83942500Y-181110000D03*
D25*
X73782500Y-174760000D03*
D26*
X75052500Y-172220000D03*
X76322500Y-174760000D03*
X77592500Y-172220000D03*
X78862500Y-174760000D03*
X80132500Y-172220000D03*
X81402500Y-174760000D03*
X82672500Y-172220000D03*
D14*
X73371395Y-165040000D03*
D13*
X70871395Y-165040000D03*
X90170000Y-66080000D03*
X90170000Y-68580000D03*
D25*
X109220000Y-148590000D03*
D13*
X109220000Y-146050000D03*
X109220000Y-151130000D03*
X104100000Y-46990000D03*
X101600000Y-46990000D03*
X99060000Y-168910000D03*
X101560000Y-168910000D03*
D16*
X70175000Y-56515000D03*
D17*
X70175000Y-59055000D03*
X70175000Y-61595000D03*
D22*
X90540000Y-93980000D03*
D23*
X90540000Y-101600000D03*
D18*
X96520000Y-43180000D03*
D19*
X104140000Y-43180000D03*
D15*
X91440000Y-32510000D03*
X88900000Y-29970000D03*
X91440000Y-27430000D03*
D14*
X106680000Y-106680000D03*
D37*
X104140000Y-106680000D03*
X101600000Y-106680000D03*
X99060000Y-106680000D03*
X96520000Y-106680000D03*
X93980000Y-106680000D03*
X91440000Y-106680000D03*
X88900000Y-106680000D03*
X86360000Y-106680000D03*
X83820000Y-106680000D03*
X81280000Y-106680000D03*
X78740000Y-106680000D03*
X76200000Y-106680000D03*
X73660000Y-106680000D03*
X71120000Y-106680000D03*
X71120000Y-121920000D03*
X73660000Y-121920000D03*
X76200000Y-121920000D03*
X78740000Y-121920000D03*
X81280000Y-121920000D03*
X83820000Y-121920000D03*
X86360000Y-121920000D03*
X88900000Y-121920000D03*
X91440000Y-121920000D03*
X93980000Y-121920000D03*
X96520000Y-121920000D03*
X99060000Y-121920000D03*
X101600000Y-121920000D03*
X104140000Y-121920000D03*
X106680000Y-121920000D03*
D13*
X85090000Y-66080000D03*
X85090000Y-68580000D03*
X104100000Y-24130000D03*
X101600000Y-24130000D03*
D18*
X96520000Y-51435000D03*
D19*
X104140000Y-51435000D03*
%LPD*%
M02*
