G04 #@! TF.GenerationSoftware,KiCad,Pcbnew,8.0.4*
G04 #@! TF.CreationDate,2024-09-09T15:56:08+02:00*
G04 #@! TF.ProjectId,dmx_to_pwm,646d785f-746f-45f7-9077-6d2e6b696361,rev?*
G04 #@! TF.SameCoordinates,Original*
G04 #@! TF.FileFunction,Copper,L1,Top*
G04 #@! TF.FilePolarity,Positive*
%FSLAX46Y46*%
G04 Gerber Fmt 4.6, Leading zero omitted, Abs format (unit mm)*
G04 Created by KiCad (PCBNEW 8.0.4) date 2024-09-09 15:56:08*
%MOMM*%
%LPD*%
G01*
G04 APERTURE LIST*
G04 Aperture macros list*
%AMRoundRect*
0 Rectangle with rounded corners*
0 $1 Rounding radius*
0 $2 $3 $4 $5 $6 $7 $8 $9 X,Y pos of 4 corners*
0 Add a 4 corners polygon primitive as box body*
4,1,4,$2,$3,$4,$5,$6,$7,$8,$9,$2,$3,0*
0 Add four circle primitives for the rounded corners*
1,1,$1+$1,$2,$3*
1,1,$1+$1,$4,$5*
1,1,$1+$1,$6,$7*
1,1,$1+$1,$8,$9*
0 Add four rect primitives between the rounded corners*
20,1,$1+$1,$2,$3,$4,$5,0*
20,1,$1+$1,$4,$5,$6,$7,0*
20,1,$1+$1,$6,$7,$8,$9,0*
20,1,$1+$1,$8,$9,$2,$3,0*%
G04 Aperture macros list end*
G04 #@! TA.AperFunction,ComponentPad*
%ADD10C,1.600000*%
G04 #@! TD*
G04 #@! TA.AperFunction,ComponentPad*
%ADD11R,2.200000X2.200000*%
G04 #@! TD*
G04 #@! TA.AperFunction,ComponentPad*
%ADD12O,2.200000X2.200000*%
G04 #@! TD*
G04 #@! TA.AperFunction,ComponentPad*
%ADD13C,1.440000*%
G04 #@! TD*
G04 #@! TA.AperFunction,ComponentPad*
%ADD14R,1.600000X1.600000*%
G04 #@! TD*
G04 #@! TA.AperFunction,ComponentPad*
%ADD15O,3.200000X3.200000*%
G04 #@! TD*
G04 #@! TA.AperFunction,ComponentPad*
%ADD16R,3.200000X3.200000*%
G04 #@! TD*
G04 #@! TA.AperFunction,ComponentPad*
%ADD17C,2.400000*%
G04 #@! TD*
G04 #@! TA.AperFunction,ComponentPad*
%ADD18O,2.400000X2.400000*%
G04 #@! TD*
G04 #@! TA.AperFunction,ComponentPad*
%ADD19R,2.000000X1.905000*%
G04 #@! TD*
G04 #@! TA.AperFunction,ComponentPad*
%ADD20O,2.000000X1.905000*%
G04 #@! TD*
G04 #@! TA.AperFunction,ComponentPad*
%ADD21C,1.500000*%
G04 #@! TD*
G04 #@! TA.AperFunction,ComponentPad*
%ADD22R,1.500000X1.500000*%
G04 #@! TD*
G04 #@! TA.AperFunction,ComponentPad*
%ADD23R,1.600000X2.400000*%
G04 #@! TD*
G04 #@! TA.AperFunction,ComponentPad*
%ADD24O,1.600000X2.400000*%
G04 #@! TD*
G04 #@! TA.AperFunction,ComponentPad*
%ADD25O,1.800000X1.800000*%
G04 #@! TD*
G04 #@! TA.AperFunction,ComponentPad*
%ADD26R,1.800000X1.800000*%
G04 #@! TD*
G04 #@! TA.AperFunction,ComponentPad*
%ADD27R,1.700000X1.700000*%
G04 #@! TD*
G04 #@! TA.AperFunction,ComponentPad*
%ADD28O,1.700000X1.700000*%
G04 #@! TD*
G04 #@! TA.AperFunction,ComponentPad*
%ADD29O,2.400000X1.600000*%
G04 #@! TD*
G04 #@! TA.AperFunction,ComponentPad*
%ADD30R,2.400000X1.600000*%
G04 #@! TD*
G04 #@! TA.AperFunction,ComponentPad*
%ADD31RoundRect,0.250000X0.725000X-0.600000X0.725000X0.600000X-0.725000X0.600000X-0.725000X-0.600000X0*%
G04 #@! TD*
G04 #@! TA.AperFunction,ComponentPad*
%ADD32O,1.950000X1.700000*%
G04 #@! TD*
G04 #@! TA.AperFunction,ComponentPad*
%ADD33R,2.400000X2.400000*%
G04 #@! TD*
G04 #@! TA.AperFunction,ComponentPad*
%ADD34O,1.600000X1.600000*%
G04 #@! TD*
G04 #@! TA.AperFunction,Conductor*
%ADD35C,0.250000*%
G04 #@! TD*
G04 #@! TA.AperFunction,Conductor*
%ADD36C,0.200000*%
G04 #@! TD*
G04 APERTURE END LIST*
D10*
X101600000Y-31750000D03*
X104100000Y-31750000D03*
X74930000Y-66080000D03*
X74930000Y-68580000D03*
D11*
X104140000Y-35560000D03*
D12*
X96520000Y-35560000D03*
D13*
X85090000Y-32510000D03*
X82550000Y-29970000D03*
X85090000Y-27430000D03*
D10*
X82510000Y-165040000D03*
D14*
X80010000Y-165040000D03*
D10*
X80010000Y-66080000D03*
X80010000Y-68580000D03*
D13*
X78740000Y-32510000D03*
X76200000Y-29970000D03*
X78740000Y-27430000D03*
D15*
X85090000Y-142240000D03*
D16*
X69850000Y-142240000D03*
D17*
X71120000Y-38100000D03*
D18*
X71120000Y-50800000D03*
D17*
X90170000Y-38100000D03*
D18*
X90170000Y-50800000D03*
D17*
X72390000Y-93980000D03*
D18*
X72390000Y-101600000D03*
D19*
X78740000Y-60960000D03*
D20*
X78740000Y-58420000D03*
X78740000Y-55880000D03*
D17*
X84490000Y-93980000D03*
D18*
X84490000Y-101600000D03*
D17*
X100330000Y-130810000D03*
D18*
X107950000Y-130810000D03*
D17*
X107950000Y-177800000D03*
D18*
X107950000Y-170180000D03*
D21*
X99857500Y-172220000D03*
X98587500Y-174760000D03*
X97317500Y-172220000D03*
X96047500Y-174760000D03*
X94777500Y-172220000D03*
X93507500Y-174760000D03*
X92237500Y-172220000D03*
D22*
X90967500Y-174760000D03*
D11*
X104140000Y-43180000D03*
D12*
X96520000Y-43180000D03*
D10*
X104100000Y-39370000D03*
X101600000Y-39370000D03*
D18*
X77470000Y-50800000D03*
D17*
X77470000Y-38100000D03*
D23*
X77470000Y-134620000D03*
D24*
X80010000Y-134620000D03*
X82550000Y-134620000D03*
X85090000Y-134620000D03*
X87630000Y-134620000D03*
X90170000Y-134620000D03*
X92710000Y-134620000D03*
X95250000Y-134620000D03*
X95250000Y-127000000D03*
X92710000Y-127000000D03*
X90170000Y-127000000D03*
X87630000Y-127000000D03*
X85090000Y-127000000D03*
X82550000Y-127000000D03*
X80010000Y-127000000D03*
X77470000Y-127000000D03*
D17*
X83820000Y-38100000D03*
D18*
X83820000Y-50800000D03*
D11*
X104140000Y-50800000D03*
D12*
X96520000Y-50800000D03*
D13*
X72390000Y-27430000D03*
X69850000Y-29970000D03*
X72390000Y-32510000D03*
D25*
X76090000Y-149840000D03*
X72390000Y-151540000D03*
X76090000Y-153240000D03*
X72390000Y-154940000D03*
D26*
X76090000Y-156640000D03*
D12*
X96520000Y-27940000D03*
D11*
X104140000Y-27940000D03*
D27*
X78740000Y-74930000D03*
D28*
X78740000Y-72390000D03*
X81280000Y-74930000D03*
X81280000Y-72390000D03*
X83820000Y-74930000D03*
X83820000Y-72390000D03*
X86360000Y-74930000D03*
X86360000Y-72390000D03*
D29*
X100330000Y-165100000D03*
X100330000Y-162560000D03*
X100330000Y-160020000D03*
X100330000Y-157480000D03*
X107950000Y-157480000D03*
X107950000Y-160020000D03*
X107950000Y-162560000D03*
D30*
X107950000Y-165100000D03*
D31*
X109220000Y-36830000D03*
D32*
X109220000Y-34330000D03*
X109220000Y-31830000D03*
X109220000Y-29330000D03*
X109220000Y-26830000D03*
D17*
X78440000Y-93980000D03*
D18*
X78440000Y-101600000D03*
D10*
X102910000Y-125730000D03*
X105410000Y-125730000D03*
D19*
X86360000Y-60960000D03*
D20*
X86360000Y-58420000D03*
X86360000Y-55880000D03*
D22*
X73782500Y-174760000D03*
D21*
X75052500Y-172220000D03*
X76322500Y-174760000D03*
X77592500Y-172220000D03*
X78862500Y-174760000D03*
X80132500Y-172220000D03*
X81402500Y-174760000D03*
X82672500Y-172220000D03*
D10*
X70871395Y-165040000D03*
D14*
X73371395Y-165040000D03*
D10*
X90170000Y-66080000D03*
X90170000Y-68580000D03*
X104100000Y-46990000D03*
X101600000Y-46990000D03*
D19*
X71120000Y-60960000D03*
D20*
X71120000Y-58420000D03*
X71120000Y-55880000D03*
D10*
X101560000Y-168910000D03*
X99060000Y-168910000D03*
D17*
X90540000Y-93980000D03*
D18*
X90540000Y-101600000D03*
D30*
X107950000Y-144780000D03*
D29*
X107950000Y-142240000D03*
X107950000Y-139700000D03*
X100330000Y-139700000D03*
X100330000Y-142240000D03*
X100330000Y-144780000D03*
D17*
X107950000Y-149860000D03*
D18*
X100330000Y-149860000D03*
D13*
X91440000Y-27430000D03*
X88900000Y-29970000D03*
X91440000Y-32510000D03*
D10*
X85090000Y-66080000D03*
X85090000Y-68580000D03*
D17*
X92710000Y-154940000D03*
D33*
X85210000Y-154940000D03*
D10*
X104100000Y-24130000D03*
X101600000Y-24130000D03*
D20*
X95250000Y-81280000D03*
X95250000Y-83820000D03*
D19*
X95250000Y-86360000D03*
D20*
X80010000Y-81280000D03*
X80010000Y-83820000D03*
D19*
X80010000Y-86360000D03*
X72390000Y-86360000D03*
D20*
X72390000Y-83820000D03*
X72390000Y-81280000D03*
D19*
X87630000Y-86360000D03*
D20*
X87630000Y-83820000D03*
X87630000Y-81280000D03*
D34*
X106680000Y-121920000D03*
X104140000Y-121920000D03*
X101600000Y-121920000D03*
X99060000Y-121920000D03*
X96520000Y-121920000D03*
X93980000Y-121920000D03*
X91440000Y-121920000D03*
X88900000Y-121920000D03*
X86360000Y-121920000D03*
X83820000Y-121920000D03*
X81280000Y-121920000D03*
X78740000Y-121920000D03*
X76200000Y-121920000D03*
X73660000Y-121920000D03*
X71120000Y-121920000D03*
X71120000Y-106680000D03*
X73660000Y-106680000D03*
X76200000Y-106680000D03*
X78740000Y-106680000D03*
X81280000Y-106680000D03*
X83820000Y-106680000D03*
X86360000Y-106680000D03*
X88900000Y-106680000D03*
X91440000Y-106680000D03*
X93980000Y-106680000D03*
X96520000Y-106680000D03*
X99060000Y-106680000D03*
X101600000Y-106680000D03*
X104140000Y-106680000D03*
D14*
X106680000Y-106680000D03*
D19*
X93980000Y-60960000D03*
D20*
X93980000Y-58420000D03*
X93980000Y-55880000D03*
D35*
X104100000Y-31750000D02*
X109140000Y-31750000D01*
X109140000Y-31750000D02*
X109220000Y-31830000D01*
X107950000Y-177800000D02*
X103640000Y-173490000D01*
X103640000Y-173490000D02*
X99857500Y-173490000D01*
X99060000Y-121920000D02*
X97935000Y-120795000D01*
X97935000Y-120795000D02*
X97935000Y-69754009D01*
X97935000Y-69754009D02*
X94260991Y-66080000D01*
X80010000Y-66080000D02*
X74930000Y-66080000D01*
X85090000Y-66080000D02*
X80010000Y-66080000D01*
X90170000Y-66080000D02*
X85090000Y-66080000D01*
X104140000Y-50800000D02*
X104140000Y-56200991D01*
X104140000Y-56200991D02*
X94260991Y-66080000D01*
X94260991Y-66080000D02*
X90170000Y-66080000D01*
X101600000Y-24130000D02*
X103985000Y-26515000D01*
X103985000Y-26515000D02*
X108905000Y-26515000D01*
X108905000Y-26515000D02*
X109220000Y-26830000D01*
X101600000Y-31750000D02*
X102870000Y-30480000D01*
X102870000Y-30480000D02*
X108070000Y-30480000D01*
X108070000Y-30480000D02*
X109220000Y-29330000D01*
X101600000Y-39370000D02*
X102725000Y-38245000D01*
X102725000Y-38245000D02*
X105305000Y-38245000D01*
X105305000Y-38245000D02*
X109220000Y-34330000D01*
X96520000Y-43180000D02*
X100330000Y-39370000D01*
X100330000Y-39370000D02*
X101600000Y-39370000D01*
X96520000Y-43180000D02*
X96520000Y-48260000D01*
X87685000Y-57095000D02*
X87685000Y-59635000D01*
X96520000Y-48260000D02*
X87685000Y-57095000D01*
X87685000Y-59635000D02*
X86360000Y-60960000D01*
X101600000Y-46990000D02*
X102725000Y-45865000D01*
X102725000Y-45865000D02*
X105265000Y-45865000D01*
X105265000Y-45865000D02*
X109220000Y-41910000D01*
X109220000Y-41910000D02*
X109220000Y-36830000D01*
X101560000Y-168910000D02*
X101560000Y-170517500D01*
X101560000Y-170517500D02*
X99857500Y-172220000D01*
X105410000Y-125730000D02*
X105410000Y-124460000D01*
X105410000Y-124460000D02*
X104140000Y-123190000D01*
X104140000Y-123190000D02*
X104140000Y-121920000D01*
X87630000Y-81280000D02*
X95250000Y-81280000D01*
X80010000Y-81280000D02*
X87630000Y-81280000D01*
X72390000Y-81280000D02*
X80010000Y-81280000D01*
X107950000Y-132080000D02*
X107950000Y-129540000D01*
X107950000Y-129540000D02*
X110490000Y-127000000D01*
X107950000Y-109220000D02*
X105410000Y-109220000D01*
X110490000Y-127000000D02*
X110490000Y-111760000D01*
X100330000Y-139700000D02*
X107950000Y-132080000D01*
X110490000Y-111760000D02*
X107950000Y-109220000D01*
X105410000Y-109220000D02*
X104140000Y-107950000D01*
X104140000Y-107950000D02*
X104140000Y-106680000D01*
X104140000Y-121920000D02*
X104140000Y-111760000D01*
X104140000Y-111760000D02*
X99060000Y-106680000D01*
X95250000Y-134620000D02*
X95250000Y-130810000D01*
X95250000Y-130810000D02*
X104140000Y-121920000D01*
X100330000Y-142240000D02*
X95250000Y-137160000D01*
X95250000Y-137160000D02*
X95250000Y-134620000D01*
X85090000Y-142240000D02*
X85090000Y-134620000D01*
X95250000Y-127000000D02*
X95250000Y-124460000D01*
X95250000Y-124460000D02*
X96520000Y-123190000D01*
X96520000Y-123190000D02*
X96520000Y-121920000D01*
X92710000Y-127000000D02*
X92710000Y-124460000D01*
X92710000Y-124460000D02*
X93980000Y-123190000D01*
X93980000Y-123190000D02*
X93980000Y-121920000D01*
X90170000Y-127000000D02*
X90170000Y-124460000D01*
X90170000Y-124460000D02*
X91440000Y-123190000D01*
X91440000Y-123190000D02*
X91440000Y-121920000D01*
X87630000Y-127000000D02*
X87630000Y-124460000D01*
X87630000Y-124460000D02*
X88900000Y-123190000D01*
X88900000Y-123190000D02*
X88900000Y-121920000D01*
X85090000Y-127000000D02*
X85090000Y-124460000D01*
X86360000Y-123190000D02*
X86360000Y-121920000D01*
X85090000Y-124460000D02*
X86360000Y-123190000D01*
X82550000Y-127000000D02*
X82550000Y-124460000D01*
X82550000Y-124460000D02*
X83820000Y-123190000D01*
X83820000Y-123190000D02*
X83820000Y-121920000D01*
X80010000Y-127000000D02*
X80010000Y-124460000D01*
X80010000Y-124460000D02*
X81280000Y-123190000D01*
X81280000Y-123190000D02*
X81280000Y-121920000D01*
X77470000Y-127000000D02*
X77470000Y-124460000D01*
X77470000Y-124460000D02*
X78740000Y-123190000D01*
X78740000Y-123190000D02*
X78740000Y-121920000D01*
X80010000Y-134620000D02*
X77470000Y-134620000D01*
X82550000Y-134620000D02*
X80010000Y-134620000D01*
X85090000Y-134620000D02*
X82550000Y-134620000D01*
X87630000Y-134620000D02*
X85090000Y-134620000D01*
X90170000Y-134620000D02*
X87630000Y-134620000D01*
X92710000Y-134620000D02*
X90170000Y-134620000D01*
X95250000Y-134620000D02*
X92710000Y-134620000D01*
X76090000Y-149840000D02*
X83690000Y-142240000D01*
X83690000Y-142240000D02*
X85090000Y-142240000D01*
X82510000Y-167640000D02*
X73471395Y-167640000D01*
X73471395Y-167640000D02*
X70871395Y-165040000D01*
X82510000Y-165040000D02*
X82510000Y-167640000D01*
X82510000Y-167640000D02*
X82510000Y-172180000D01*
X80132500Y-172220000D02*
X82550000Y-172220000D01*
X82550000Y-172220000D02*
X82672500Y-172220000D01*
X82510000Y-172180000D02*
X82550000Y-172220000D01*
X107950000Y-149860000D02*
X107950000Y-144780000D01*
X110490000Y-162560000D02*
X110490000Y-170180000D01*
X107950000Y-162560000D02*
X110490000Y-162560000D01*
X110490000Y-170180000D02*
X107950000Y-170180000D01*
X107950000Y-160020000D02*
X107950000Y-162560000D01*
X102870000Y-152400000D02*
X100330000Y-154940000D01*
X100330000Y-154940000D02*
X100330000Y-157480000D01*
D36*
X90967500Y-174760000D02*
X90967500Y-169382500D01*
X90967500Y-169382500D02*
X100330000Y-160020000D01*
X92237500Y-172220000D02*
X92237500Y-170652500D01*
X92237500Y-170652500D02*
X100330000Y-162560000D01*
D35*
X102870000Y-142240000D02*
X107950000Y-142240000D01*
X102870000Y-142240000D02*
X100330000Y-142240000D01*
X82510000Y-165040000D02*
X82510000Y-159660000D01*
X82510000Y-159660000D02*
X76090000Y-153240000D01*
X76090000Y-149840000D02*
X76090000Y-153240000D01*
X73371395Y-165040000D02*
X73371395Y-159358605D01*
X73371395Y-159358605D02*
X76090000Y-156640000D01*
X96047500Y-174760000D02*
X96047500Y-173490000D01*
X96047500Y-173490000D02*
X94777500Y-172220000D01*
X93507500Y-174760000D02*
X94777500Y-173490000D01*
X94777500Y-173490000D02*
X94777500Y-172220000D01*
X78862500Y-174760000D02*
X78862500Y-173490000D01*
X78862500Y-173490000D02*
X77592500Y-172220000D01*
X76322500Y-174760000D02*
X76322500Y-173490000D01*
X76322500Y-173490000D02*
X77592500Y-172220000D01*
X82672500Y-172220000D02*
X81402500Y-173490000D01*
X81402500Y-173490000D02*
X81402500Y-174760000D01*
X97317500Y-172220000D02*
X99857500Y-172220000D01*
X99857500Y-172220000D02*
X99857500Y-173490000D01*
X99857500Y-173490000D02*
X98587500Y-174760000D01*
X95547500Y-177800000D02*
X84442500Y-177800000D01*
X84442500Y-177800000D02*
X81402500Y-174760000D01*
X98587500Y-174760000D02*
X95547500Y-177800000D01*
X102870000Y-152400000D02*
X102870000Y-142240000D01*
M02*
