M48
; DRILL file {KiCad 8.0.6} date 2024-11-01T16:27:56+0100
; FORMAT={-:-/ absolute / metric / decimal}
; #@! TF.CreationDate,2024-11-01T16:27:56+01:00
; #@! TF.GenerationSoftware,Kicad,Pcbnew,8.0.6
; #@! TF.FileFunction,Plated,1,2,PTH
FMAT,2
METRIC
; #@! TA.AperFunction,Plated,PTH,ComponentDrill
T1C0.760
; #@! TA.AperFunction,Plated,PTH,ComponentDrill
T2C0.800
; #@! TA.AperFunction,Plated,PTH,ComponentDrill
T3C0.950
; #@! TA.AperFunction,Plated,PTH,ComponentDrill
T4C1.000
; #@! TA.AperFunction,Plated,PTH,ComponentDrill
T5C1.100
; #@! TA.AperFunction,Plated,PTH,ComponentDrill
T6C1.200
; #@! TA.AperFunction,Plated,PTH,ComponentDrill
T7C1.600
; #@! TA.AperFunction,Plated,PTH,ComponentDrill
T8C3.200
%
G90
G05
T1
X73.782Y-174.76
X75.052Y-172.22
X76.322Y-174.76
X77.593Y-172.22
X78.862Y-174.76
X80.132Y-172.22
X81.403Y-174.76
X82.672Y-172.22
X90.968Y-174.76
X92.237Y-172.22
X93.507Y-174.76
X94.777Y-172.22
X96.047Y-174.76
X97.317Y-172.22
X98.587Y-174.76
X99.858Y-172.22
T2
X69.85Y-29.97
X70.871Y-165.04
X72.39Y-27.43
X72.39Y-32.51
X73.371Y-165.04
X74.93Y-66.08
X74.93Y-68.58
X76.2Y-29.97
X77.47Y-127.0
X77.47Y-134.62
X78.74Y-27.43
X78.74Y-32.51
X80.01Y-66.08
X80.01Y-68.58
X80.01Y-127.0
X80.01Y-134.62
X80.01Y-165.04
X82.51Y-165.04
X82.55Y-29.97
X82.55Y-127.0
X82.55Y-134.62
X85.09Y-27.43
X85.09Y-32.51
X85.09Y-66.08
X85.09Y-68.58
X85.09Y-127.0
X85.09Y-134.62
X86.44Y-154.94
X87.63Y-127.0
X87.63Y-134.62
X88.9Y-29.97
X90.17Y-66.08
X90.17Y-68.58
X90.17Y-127.0
X90.17Y-134.62
X91.44Y-27.43
X91.44Y-32.51
X91.44Y-154.94
X92.71Y-127.0
X92.71Y-134.62
X95.25Y-127.0
X95.25Y-134.62
X99.06Y-168.91
X100.33Y-157.48
X100.33Y-160.02
X100.33Y-162.56
X100.33Y-165.1
X101.56Y-168.91
X101.6Y-24.13
X101.6Y-31.75
X101.6Y-39.37
X101.6Y-46.99
X104.1Y-24.13
X104.1Y-31.75
X104.1Y-39.37
X104.1Y-46.99
X107.95Y-157.48
X107.95Y-160.02
X107.95Y-162.56
X107.95Y-165.1
X109.22Y-146.05
X109.22Y-148.59
X109.22Y-151.13
T3
X108.92Y-133.39
X108.92Y-135.89
X108.92Y-138.39
X109.22Y-26.83
X109.22Y-29.33
X109.22Y-31.83
X109.22Y-34.33
X109.22Y-36.83
T4
X71.12Y-106.68
X71.12Y-121.92
X73.66Y-106.68
X73.66Y-121.92
X76.2Y-106.68
X76.2Y-121.92
X78.74Y-72.39
X78.74Y-74.93
X78.74Y-106.68
X78.74Y-121.92
X81.28Y-72.39
X81.28Y-74.93
X81.28Y-106.68
X81.28Y-121.92
X83.82Y-72.39
X83.82Y-74.93
X83.82Y-106.68
X83.82Y-121.92
X86.36Y-72.39
X86.36Y-74.93
X86.36Y-106.68
X86.36Y-121.92
X88.9Y-106.68
X88.9Y-121.92
X91.44Y-106.68
X91.44Y-121.92
X93.98Y-106.68
X93.98Y-121.92
X96.52Y-106.68
X96.52Y-121.92
X99.06Y-106.68
X99.06Y-121.92
X101.6Y-106.68
X101.6Y-121.92
X104.14Y-106.68
X104.14Y-121.92
X106.68Y-106.68
X106.68Y-121.92
T5
X70.175Y-56.515
X70.175Y-59.055
X70.175Y-61.595
X72.39Y-81.28
X72.39Y-83.82
X72.39Y-86.36
X72.39Y-151.54
X72.39Y-154.94
X76.09Y-149.84
X76.09Y-153.24
X76.09Y-156.64
X77.47Y-56.515
X77.47Y-59.055
X77.47Y-61.595
X80.01Y-81.28
X80.01Y-83.82
X80.01Y-86.36
X85.725Y-56.515
X85.725Y-59.055
X85.725Y-61.595
X87.63Y-81.28
X87.63Y-83.82
X87.63Y-86.36
X93.98Y-56.515
X93.98Y-59.055
X93.98Y-61.595
X95.25Y-81.28
X95.25Y-83.82
X95.25Y-86.36
X96.52Y-27.94
X96.52Y-35.56
X96.52Y-43.18
X96.52Y-51.435
X104.14Y-27.94
X104.14Y-35.56
X104.14Y-43.18
X104.14Y-51.435
T6
X71.12Y-38.1
X71.12Y-50.8
X72.39Y-93.98
X72.39Y-101.6
X77.47Y-38.1
X77.47Y-50.8
X78.44Y-93.98
X78.44Y-101.6
X83.82Y-38.1
X83.82Y-50.8
X84.49Y-93.98
X84.49Y-101.6
X90.17Y-38.1
X90.17Y-50.8
X90.54Y-93.98
X90.54Y-101.6
X107.95Y-170.18
X107.95Y-177.8
T7
X69.85Y-142.24
X85.09Y-142.24
T8
X71.755Y-74.295
X71.755Y-130.81
X96.52Y-147.955
X104.775Y-93.98
X109.22Y-47.625
M30
