G04 #@! TF.GenerationSoftware,KiCad,Pcbnew,8.0.6*
G04 #@! TF.CreationDate,2024-11-01T16:27:22+01:00*
G04 #@! TF.ProjectId,dmx_to_pwm,646d785f-746f-45f7-9077-6d2e6b696361,rev?*
G04 #@! TF.SameCoordinates,Original*
G04 #@! TF.FileFunction,Copper,L2,Bot*
G04 #@! TF.FilePolarity,Positive*
%FSLAX46Y46*%
G04 Gerber Fmt 4.6, Leading zero omitted, Abs format (unit mm)*
G04 Created by KiCad (PCBNEW 8.0.6) date 2024-11-01 16:27:22*
%MOMM*%
%LPD*%
G01*
G04 APERTURE LIST*
G04 Aperture macros list*
%AMRoundRect*
0 Rectangle with rounded corners*
0 $1 Rounding radius*
0 $2 $3 $4 $5 $6 $7 $8 $9 X,Y pos of 4 corners*
0 Add a 4 corners polygon primitive as box body*
4,1,4,$2,$3,$4,$5,$6,$7,$8,$9,$2,$3,0*
0 Add four circle primitives for the rounded corners*
1,1,$1+$1,$2,$3*
1,1,$1+$1,$4,$5*
1,1,$1+$1,$6,$7*
1,1,$1+$1,$8,$9*
0 Add four rect primitives between the rounded corners*
20,1,$1+$1,$2,$3,$4,$5,0*
20,1,$1+$1,$4,$5,$6,$7,0*
20,1,$1+$1,$6,$7,$8,$9,0*
20,1,$1+$1,$8,$9,$2,$3,0*%
G04 Aperture macros list end*
G04 #@! TA.AperFunction,ComponentPad*
%ADD10C,6.400000*%
G04 #@! TD*
G04 #@! TA.AperFunction,ComponentPad*
%ADD11C,1.600000*%
G04 #@! TD*
G04 #@! TA.AperFunction,ComponentPad*
%ADD12R,1.600000X1.600000*%
G04 #@! TD*
G04 #@! TA.AperFunction,ComponentPad*
%ADD13C,1.440000*%
G04 #@! TD*
G04 #@! TA.AperFunction,ComponentPad*
%ADD14R,2.000000X1.905000*%
G04 #@! TD*
G04 #@! TA.AperFunction,ComponentPad*
%ADD15O,2.000000X1.905000*%
G04 #@! TD*
G04 #@! TA.AperFunction,ComponentPad*
%ADD16R,2.200000X2.200000*%
G04 #@! TD*
G04 #@! TA.AperFunction,ComponentPad*
%ADD17O,2.200000X2.200000*%
G04 #@! TD*
G04 #@! TA.AperFunction,ComponentPad*
%ADD18R,3.200000X3.200000*%
G04 #@! TD*
G04 #@! TA.AperFunction,ComponentPad*
%ADD19O,3.200000X3.200000*%
G04 #@! TD*
G04 #@! TA.AperFunction,ComponentPad*
%ADD20C,2.400000*%
G04 #@! TD*
G04 #@! TA.AperFunction,ComponentPad*
%ADD21O,2.400000X2.400000*%
G04 #@! TD*
G04 #@! TA.AperFunction,ComponentPad*
%ADD22R,1.500000X1.500000*%
G04 #@! TD*
G04 #@! TA.AperFunction,ComponentPad*
%ADD23C,1.500000*%
G04 #@! TD*
G04 #@! TA.AperFunction,ComponentPad*
%ADD24R,1.600000X2.400000*%
G04 #@! TD*
G04 #@! TA.AperFunction,ComponentPad*
%ADD25O,1.600000X2.400000*%
G04 #@! TD*
G04 #@! TA.AperFunction,ComponentPad*
%ADD26RoundRect,0.250000X0.725000X-0.600000X0.725000X0.600000X-0.725000X0.600000X-0.725000X-0.600000X0*%
G04 #@! TD*
G04 #@! TA.AperFunction,ComponentPad*
%ADD27O,1.950000X1.700000*%
G04 #@! TD*
G04 #@! TA.AperFunction,ComponentPad*
%ADD28R,1.800000X1.800000*%
G04 #@! TD*
G04 #@! TA.AperFunction,ComponentPad*
%ADD29O,1.800000X1.800000*%
G04 #@! TD*
G04 #@! TA.AperFunction,ComponentPad*
%ADD30R,1.700000X1.700000*%
G04 #@! TD*
G04 #@! TA.AperFunction,ComponentPad*
%ADD31O,1.700000X1.700000*%
G04 #@! TD*
G04 #@! TA.AperFunction,ComponentPad*
%ADD32R,2.400000X1.600000*%
G04 #@! TD*
G04 #@! TA.AperFunction,ComponentPad*
%ADD33O,2.400000X1.600000*%
G04 #@! TD*
G04 #@! TA.AperFunction,ComponentPad*
%ADD34O,1.600000X1.600000*%
G04 #@! TD*
G04 #@! TA.AperFunction,Conductor*
%ADD35C,1.000000*%
G04 #@! TD*
G04 #@! TA.AperFunction,Conductor*
%ADD36C,0.500000*%
G04 #@! TD*
G04 #@! TA.AperFunction,Conductor*
%ADD37C,0.250000*%
G04 #@! TD*
G04 #@! TA.AperFunction,Conductor*
%ADD38C,0.200000*%
G04 #@! TD*
G04 APERTURE END LIST*
G04 #@! TA.AperFunction,Conductor*
G36*
X72390000Y-164782500D02*
G01*
X76835000Y-164782500D01*
X76835000Y-170497500D01*
X72390000Y-170497500D01*
X72390000Y-164782500D01*
G37*
G04 #@! TD.AperFunction*
G04 #@! TA.AperFunction,Conductor*
G36*
X74930000Y-156845000D02*
G01*
X76835000Y-156845000D01*
X76835000Y-165100000D01*
X74930000Y-165100000D01*
X74930000Y-156845000D01*
G37*
G04 #@! TD.AperFunction*
G04 #@! TA.AperFunction,Conductor*
G36*
X93345000Y-169545000D02*
G01*
X95885000Y-169545000D01*
X95885000Y-175260000D01*
X93345000Y-175260000D01*
X93345000Y-169545000D01*
G37*
G04 #@! TD.AperFunction*
G04 #@! TA.AperFunction,Conductor*
G36*
X76200000Y-169545000D02*
G01*
X78740000Y-169545000D01*
X78740000Y-175260000D01*
X76200000Y-175260000D01*
X76200000Y-169545000D01*
G37*
G04 #@! TD.AperFunction*
G04 #@! TA.AperFunction,Conductor*
G36*
X76200000Y-168275000D02*
G01*
X95885000Y-168275000D01*
X95885000Y-170180000D01*
X76200000Y-170180000D01*
X76200000Y-168275000D01*
G37*
G04 #@! TD.AperFunction*
D10*
X104775000Y-93980000D03*
X96520000Y-147955000D03*
X71755000Y-130810000D03*
X71755000Y-74295000D03*
X109220000Y-47625000D03*
D11*
X104100000Y-31750000D03*
X101600000Y-31750000D03*
X74930000Y-66080000D03*
X74930000Y-68580000D03*
D12*
X86440000Y-154940000D03*
D11*
X91440000Y-154940000D03*
D13*
X85090000Y-32510000D03*
X82550000Y-29970000D03*
X85090000Y-27430000D03*
D14*
X77470000Y-56515000D03*
D15*
X77470000Y-59055000D03*
X77470000Y-61595000D03*
D12*
X80010000Y-165040000D03*
D11*
X82510000Y-165040000D03*
X80010000Y-66080000D03*
X80010000Y-68580000D03*
D13*
X78740000Y-32510000D03*
X76200000Y-29970000D03*
X78740000Y-27430000D03*
D16*
X96520000Y-27940000D03*
D17*
X104140000Y-27940000D03*
D18*
X69850000Y-142240000D03*
D19*
X85090000Y-142240000D03*
D20*
X71120000Y-38100000D03*
D21*
X71120000Y-50800000D03*
D20*
X90170000Y-38100000D03*
D21*
X90170000Y-50800000D03*
D14*
X85725000Y-56515000D03*
D15*
X85725000Y-59055000D03*
X85725000Y-61595000D03*
D20*
X72390000Y-93980000D03*
D21*
X72390000Y-101600000D03*
D20*
X84490000Y-93980000D03*
D21*
X84490000Y-101600000D03*
D20*
X107950000Y-177800000D03*
D21*
X107950000Y-170180000D03*
D16*
X96520000Y-35560000D03*
D17*
X104140000Y-35560000D03*
D22*
X90967500Y-174760000D03*
D23*
X92237500Y-172220000D03*
X93507500Y-174760000D03*
X94777500Y-172220000D03*
X96047500Y-174760000D03*
X97317500Y-172220000D03*
X98587500Y-174760000D03*
X99857500Y-172220000D03*
D14*
X93980000Y-56515000D03*
D15*
X93980000Y-59055000D03*
X93980000Y-61595000D03*
D11*
X104100000Y-39370000D03*
X101600000Y-39370000D03*
D14*
X95250000Y-86360000D03*
D15*
X95250000Y-83820000D03*
X95250000Y-81280000D03*
D20*
X77470000Y-38100000D03*
D21*
X77470000Y-50800000D03*
D24*
X77470000Y-134620000D03*
D25*
X80010000Y-134620000D03*
X82550000Y-134620000D03*
X85090000Y-134620000D03*
X87630000Y-134620000D03*
X90170000Y-134620000D03*
X92710000Y-134620000D03*
X95250000Y-134620000D03*
X95250000Y-127000000D03*
X92710000Y-127000000D03*
X90170000Y-127000000D03*
X87630000Y-127000000D03*
X85090000Y-127000000D03*
X82550000Y-127000000D03*
X80010000Y-127000000D03*
X77470000Y-127000000D03*
D20*
X83820000Y-38100000D03*
D21*
X83820000Y-50800000D03*
D14*
X80010000Y-86360000D03*
D15*
X80010000Y-83820000D03*
X80010000Y-81280000D03*
D26*
X108920000Y-138390000D03*
D27*
X108920000Y-135890000D03*
X108920000Y-133390000D03*
D14*
X72390000Y-86360000D03*
D15*
X72390000Y-83820000D03*
X72390000Y-81280000D03*
D13*
X72390000Y-32510000D03*
X69850000Y-29970000D03*
X72390000Y-27430000D03*
D28*
X76090000Y-156640000D03*
D29*
X72390000Y-154940000D03*
X76090000Y-153240000D03*
X72390000Y-151540000D03*
X76090000Y-149840000D03*
D30*
X78740000Y-74930000D03*
D31*
X78740000Y-72390000D03*
X81280000Y-74930000D03*
X81280000Y-72390000D03*
X83820000Y-74930000D03*
X83820000Y-72390000D03*
X86360000Y-74930000D03*
X86360000Y-72390000D03*
D32*
X107950000Y-165100000D03*
D33*
X107950000Y-162560000D03*
X107950000Y-160020000D03*
X107950000Y-157480000D03*
X100330000Y-157480000D03*
X100330000Y-160020000D03*
X100330000Y-162560000D03*
X100330000Y-165100000D03*
D26*
X109220000Y-36830000D03*
D27*
X109220000Y-34330000D03*
X109220000Y-31830000D03*
X109220000Y-29330000D03*
X109220000Y-26830000D03*
D20*
X78440000Y-93980000D03*
D21*
X78440000Y-101600000D03*
D14*
X87630000Y-86360000D03*
D15*
X87630000Y-83820000D03*
X87630000Y-81280000D03*
D22*
X73782500Y-174760000D03*
D23*
X75052500Y-172220000D03*
X76322500Y-174760000D03*
X77592500Y-172220000D03*
X78862500Y-174760000D03*
X80132500Y-172220000D03*
X81402500Y-174760000D03*
X82672500Y-172220000D03*
D12*
X73371395Y-165040000D03*
D11*
X70871395Y-165040000D03*
X90170000Y-66080000D03*
X90170000Y-68580000D03*
D22*
X109220000Y-148590000D03*
D11*
X109220000Y-146050000D03*
X109220000Y-151130000D03*
X104100000Y-46990000D03*
X101600000Y-46990000D03*
X99060000Y-168910000D03*
X101560000Y-168910000D03*
D14*
X70175000Y-56515000D03*
D15*
X70175000Y-59055000D03*
X70175000Y-61595000D03*
D20*
X90540000Y-93980000D03*
D21*
X90540000Y-101600000D03*
D16*
X96520000Y-43180000D03*
D17*
X104140000Y-43180000D03*
D13*
X91440000Y-32510000D03*
X88900000Y-29970000D03*
X91440000Y-27430000D03*
D12*
X106680000Y-106680000D03*
D34*
X104140000Y-106680000D03*
X101600000Y-106680000D03*
X99060000Y-106680000D03*
X96520000Y-106680000D03*
X93980000Y-106680000D03*
X91440000Y-106680000D03*
X88900000Y-106680000D03*
X86360000Y-106680000D03*
X83820000Y-106680000D03*
X81280000Y-106680000D03*
X78740000Y-106680000D03*
X76200000Y-106680000D03*
X73660000Y-106680000D03*
X71120000Y-106680000D03*
X71120000Y-121920000D03*
X73660000Y-121920000D03*
X76200000Y-121920000D03*
X78740000Y-121920000D03*
X81280000Y-121920000D03*
X83820000Y-121920000D03*
X86360000Y-121920000D03*
X88900000Y-121920000D03*
X91440000Y-121920000D03*
X93980000Y-121920000D03*
X96520000Y-121920000D03*
X99060000Y-121920000D03*
X101600000Y-121920000D03*
X104140000Y-121920000D03*
X106680000Y-121920000D03*
D11*
X85090000Y-66080000D03*
X85090000Y-68580000D03*
X104100000Y-24130000D03*
X101600000Y-24130000D03*
D16*
X96520000Y-51435000D03*
D17*
X104140000Y-51435000D03*
D35*
X88590000Y-157480000D02*
X91130000Y-154940000D01*
X85725000Y-157480000D02*
X88590000Y-157480000D01*
X80010000Y-163195000D02*
X85725000Y-157480000D01*
X91130000Y-154940000D02*
X91130000Y-145725000D01*
X80010000Y-165040000D02*
X80010000Y-163195000D01*
X99060000Y-137795000D02*
X99060000Y-130810000D01*
X91130000Y-145725000D02*
X99060000Y-137795000D01*
D36*
X93345000Y-31750000D02*
X93345000Y-40005000D01*
X92710000Y-40640000D02*
X92710000Y-52070000D01*
X93345000Y-40005000D02*
X92710000Y-40640000D01*
X92710000Y-28700000D02*
X92710000Y-31115000D01*
X92710000Y-31115000D02*
X93345000Y-31750000D01*
X91440000Y-27430000D02*
X92710000Y-28700000D01*
X78740000Y-27430000D02*
X80770000Y-25400000D01*
X93980000Y-29210000D02*
X95802146Y-31032146D01*
X80770000Y-25400000D02*
X92075000Y-25400000D01*
X92075000Y-25400000D02*
X93980000Y-27305000D01*
X93980000Y-27305000D02*
X93980000Y-29210000D01*
X95802146Y-31032146D02*
X96520000Y-31032146D01*
X101600000Y-46990000D02*
X103505000Y-45085000D01*
X103505000Y-45085000D02*
X105085000Y-45085000D01*
X105085000Y-45085000D02*
X109220000Y-40950000D01*
X109220000Y-40950000D02*
X109220000Y-36830000D01*
X72390000Y-27430000D02*
X75690000Y-24130000D01*
X75690000Y-24130000D02*
X92710000Y-24130000D01*
X92710000Y-24130000D02*
X93530000Y-24950000D01*
X93980000Y-53340000D02*
X93980000Y-56515000D01*
X92710000Y-52070000D02*
X93980000Y-50800000D01*
X93980000Y-50800000D02*
X96520000Y-50800000D01*
X96520000Y-50800000D02*
X100330000Y-46990000D01*
X100330000Y-46990000D02*
X101600000Y-46990000D01*
X92710000Y-52070000D02*
X93980000Y-53340000D01*
X78740000Y-27430000D02*
X77037146Y-27430000D01*
X77037146Y-27430000D02*
X74930000Y-29537146D01*
X74930000Y-29537146D02*
X74930000Y-30480000D01*
X74930000Y-30480000D02*
X75155000Y-30705000D01*
X75155000Y-30705000D02*
X75155000Y-54200000D01*
X75155000Y-54200000D02*
X77470000Y-56515000D01*
X72390000Y-27430000D02*
X69725000Y-27430000D01*
X67945000Y-31115000D02*
X68580000Y-31750000D01*
X68580000Y-31750000D02*
X68580000Y-54920000D01*
X67945000Y-29210000D02*
X67945000Y-31115000D01*
X69725000Y-27430000D02*
X67945000Y-29210000D01*
X68580000Y-54920000D02*
X70175000Y-56515000D01*
D35*
X90170000Y-38100000D02*
X91440000Y-36830000D01*
X91440000Y-36830000D02*
X91440000Y-32510000D01*
D36*
X80010000Y-59055000D02*
X80010000Y-53340000D01*
X80010000Y-53340000D02*
X77470000Y-50800000D01*
X80010000Y-59055000D02*
X77470000Y-59055000D01*
D37*
X93980000Y-105040000D02*
X90540000Y-101600000D01*
X93980000Y-106680000D02*
X93980000Y-105040000D01*
X104140000Y-31710000D02*
X104100000Y-31750000D01*
X104100000Y-35520000D02*
X104140000Y-35560000D01*
X104100000Y-50760000D02*
X104140000Y-50800000D01*
X104140000Y-39330000D02*
X104100000Y-39370000D01*
X104100000Y-43140000D02*
X104140000Y-43180000D01*
X104100000Y-27900000D02*
X104140000Y-27940000D01*
X78740000Y-106680000D02*
X73660000Y-101600000D01*
X73660000Y-101600000D02*
X72390000Y-101600000D01*
X83820000Y-104140000D02*
X78740000Y-104140000D01*
X86360000Y-106680000D02*
X83820000Y-104140000D01*
X78740000Y-101900000D02*
X78440000Y-101600000D01*
X78740000Y-104140000D02*
X78740000Y-101900000D01*
X84490000Y-102270000D02*
X84490000Y-101600000D01*
X88900000Y-106680000D02*
X84490000Y-102270000D01*
X99060000Y-130810000D02*
X99060000Y-133350000D01*
X100330000Y-165100000D02*
X91440000Y-156210000D01*
X100330000Y-165100000D02*
X99060000Y-166370000D01*
D35*
X111760000Y-121920000D02*
X111760000Y-88265000D01*
X99060000Y-133350000D02*
X100330000Y-133350000D01*
D37*
X91440000Y-156210000D02*
X91440000Y-154940000D01*
D35*
X95250000Y-83820000D02*
X87630000Y-83820000D01*
X107315000Y-83820000D02*
X95250000Y-83820000D01*
X99060000Y-128270000D02*
X99060000Y-121920000D01*
X99060000Y-130810000D02*
X99060000Y-128270000D01*
X80010000Y-83820000D02*
X72390000Y-83820000D01*
X100330000Y-133350000D02*
X111760000Y-121920000D01*
X87630000Y-83820000D02*
X80010000Y-83820000D01*
X108920000Y-133390000D02*
X99100000Y-133390000D01*
D37*
X99060000Y-166370000D02*
X99060000Y-168910000D01*
D35*
X111760000Y-88265000D02*
X107315000Y-83820000D01*
D38*
X75052500Y-175382500D02*
X75052500Y-172220000D01*
X89917500Y-173710000D02*
X86462500Y-177165000D01*
X86462500Y-177165000D02*
X76835000Y-177165000D01*
X76835000Y-177165000D02*
X75052500Y-175382500D01*
X92237500Y-172220000D02*
X90747500Y-173710000D01*
X90747500Y-173710000D02*
X89917500Y-173710000D01*
X87927500Y-177800000D02*
X76245000Y-177800000D01*
X76245000Y-177800000D02*
X73782500Y-175337500D01*
X90967500Y-174760000D02*
X87927500Y-177800000D01*
X73782500Y-175337500D02*
X73782500Y-174760000D01*
D37*
X84490000Y-93980000D02*
X87630000Y-90840000D01*
X87630000Y-90840000D02*
X87630000Y-86360000D01*
X78440000Y-87930000D02*
X80010000Y-86360000D01*
X78440000Y-93980000D02*
X78440000Y-87930000D01*
X72390000Y-93980000D02*
X72390000Y-86360000D01*
X90540000Y-93980000D02*
X95250000Y-89270000D01*
X95250000Y-89270000D02*
X95250000Y-86360000D01*
D35*
X91440000Y-32510000D02*
X88900000Y-29970000D01*
D36*
X83820000Y-50800000D02*
X83820000Y-59055000D01*
X83820000Y-59055000D02*
X85725000Y-59055000D01*
D37*
X92709302Y-59054302D02*
X92710000Y-59055000D01*
X92708604Y-59055000D02*
X92709302Y-59054302D01*
D36*
X90170000Y-59055000D02*
X92708604Y-59055000D01*
X90170000Y-50800000D02*
X90170000Y-59055000D01*
D37*
X92710000Y-59055000D02*
X93980000Y-59055000D01*
D35*
X85090000Y-32510000D02*
X82550000Y-29970000D01*
X83820000Y-38100000D02*
X83820000Y-36830000D01*
X85090000Y-35560000D02*
X85090000Y-32510000D01*
X83820000Y-36830000D02*
X85090000Y-35560000D01*
X77470000Y-36830000D02*
X78740000Y-35560000D01*
X78740000Y-35560000D02*
X78740000Y-32510000D01*
X78740000Y-32510000D02*
X76200000Y-29970000D01*
X77470000Y-38100000D02*
X77470000Y-36830000D01*
X72390000Y-32510000D02*
X69850000Y-29970000D01*
X71120000Y-36830000D02*
X72390000Y-35560000D01*
X72390000Y-35560000D02*
X72390000Y-32510000D01*
X71120000Y-38100000D02*
X71120000Y-36830000D01*
D37*
X69850000Y-147320000D02*
X77470000Y-147320000D01*
X77470000Y-147320000D02*
X85090000Y-154940000D01*
X85090000Y-154940000D02*
X86440000Y-154940000D01*
X72390000Y-154940000D02*
X69850000Y-152400000D01*
X69850000Y-147320000D02*
X69850000Y-142240000D01*
X69850000Y-152400000D02*
X69850000Y-147320000D01*
X87630000Y-64770000D02*
X90805000Y-61595000D01*
X88900000Y-68580000D02*
X90170000Y-68580000D01*
X86360000Y-71120000D02*
X87630000Y-69850000D01*
X86360000Y-72390000D02*
X86360000Y-71120000D01*
X87630000Y-69850000D02*
X88900000Y-68580000D01*
X90805000Y-61595000D02*
X93980000Y-61595000D01*
X87630000Y-69850000D02*
X87630000Y-64770000D01*
X83820000Y-72390000D02*
X82550000Y-71120000D01*
X82550000Y-71120000D02*
X82550000Y-68580000D01*
X82550000Y-68580000D02*
X85090000Y-68580000D01*
X82550000Y-68580000D02*
X82550000Y-62230000D01*
X82550000Y-62230000D02*
X83185000Y-61595000D01*
X83185000Y-61595000D02*
X85725000Y-61595000D01*
X78740000Y-69850000D02*
X80010000Y-68580000D01*
X77470000Y-69850000D02*
X77470000Y-61595000D01*
X78740000Y-69850000D02*
X77470000Y-69850000D01*
X81280000Y-72390000D02*
X78740000Y-69850000D01*
X73660000Y-69850000D02*
X74930000Y-68580000D01*
X70175000Y-66365000D02*
X70175000Y-61595000D01*
X73660000Y-69850000D02*
X70175000Y-66365000D01*
X76200000Y-72390000D02*
X73660000Y-69850000D01*
X78740000Y-72390000D02*
X76200000Y-72390000D01*
X81335000Y-74985000D02*
X81280000Y-74930000D01*
X81280000Y-80010000D02*
X80010000Y-81280000D01*
X81280000Y-74930000D02*
X81280000Y-80010000D01*
X74930000Y-81280000D02*
X72390000Y-81280000D01*
X78740000Y-77470000D02*
X78740000Y-74930000D01*
X78740000Y-77470000D02*
X74930000Y-81280000D01*
X87630000Y-81280000D02*
X83820000Y-77470000D01*
X83820000Y-77470000D02*
X83820000Y-74930000D01*
X92710000Y-81280000D02*
X86360000Y-74930000D01*
X95250000Y-81280000D02*
X92710000Y-81280000D01*
D36*
X85090000Y-27430000D02*
X87685000Y-30025000D01*
X101600000Y-39370000D02*
X103505000Y-37465000D01*
X103505000Y-37465000D02*
X106085000Y-37465000D01*
X87685000Y-30025000D02*
X87685000Y-54555000D01*
X87685000Y-54555000D02*
X85725000Y-56515000D01*
X106085000Y-37465000D02*
X109220000Y-34330000D01*
X97955708Y-31750000D02*
X101600000Y-31750000D01*
D37*
X109185000Y-29365000D02*
X109220000Y-29330000D01*
D36*
X106525000Y-29365000D02*
X109185000Y-29365000D01*
X106045000Y-29845000D02*
X106525000Y-29365000D01*
X96520000Y-31032146D02*
X97237854Y-31032146D01*
X96520000Y-35560000D02*
X96520000Y-31032146D01*
X103505000Y-29845000D02*
X106045000Y-29845000D01*
X101600000Y-31750000D02*
X103505000Y-29845000D01*
X97237854Y-31032146D02*
X97955708Y-31750000D01*
X93530000Y-24950000D02*
X94350000Y-24130000D01*
D37*
X108905000Y-26515000D02*
X109220000Y-26830000D01*
D36*
X106045000Y-26035000D02*
X106525000Y-26515000D01*
X94350000Y-24130000D02*
X101600000Y-24130000D01*
X106525000Y-26515000D02*
X108905000Y-26515000D01*
X101600000Y-24130000D02*
X103505000Y-26035000D01*
X93530000Y-24950000D02*
X96520000Y-27940000D01*
X103505000Y-26035000D02*
X106045000Y-26035000D01*
X73025000Y-59055000D02*
X73025000Y-52705000D01*
X70175000Y-59055000D02*
X73025000Y-59055000D01*
X73025000Y-52705000D02*
X71120000Y-50800000D01*
M02*
